<?xml version="1.0" encoding="utf-8"?>
<!-- Generator: Adobe Illustrator 19.0.0, SVG Export Plug-In . SVG Version: 6.00 Build 0)  -->
<svg version="1.1" id="Capa_1" xmlns="http://www.w3.org/2000/svg" xmlns:xlink="http://www.w3.org/1999/xlink" x="0px" y="0px"
	 viewBox="-221 350.6 151.5 141.3" style="enable-background:new -221 350.6 151.5 141.3;" xml:space="preserve">
<style type="text/css">
	.st0{fill:#FEFEFE;}
	.st1{fill:#FC7E1E;}
	.st2{fill:#39C3FC;}
	.st3{fill:#D191FC;}
	.st4{fill:#42322A;}
	.st5{fill:#28253A;}
	.st6{fill:#1A013E;}
	.st7{fill:#CE8EF9;}
</style>
<path class="st0" d="M-382.7,722.2c0.2-0.2,0.4-0.4,0.6-0.6C-382,722.1-382.2,722.3-382.7,722.2z"/>
<path class="st1" d="M-380,633.6c0,36.6-29.3,65.9-65.9,65.9s-66.2-29.6-66.1-66.1c0.1-36.3,29.8-66,66.2-65.9
	C-407.7,567.6-379.3,599.3-380,633.6z M-386,633.7c0-33.3-26.5-60-59.6-60.1c-33.3-0.1-60.2,26.6-60.3,59.8c0,33.3,26.6,60,60,60
	C-412.6,693.4-386,666.9-386,633.7z"/>
<path class="st2" d="M-161.1,700.2c-36.6,0-66-29.3-66-65.9c0-36.6,29.6-66.2,66.1-66.1c36.4,0.1,65.9,29.8,65.9,66.1
	C-95,670.7-124.6,700.2-161.1,700.2z M-161.2,694.1c33.3,0.1,60.1-26.6,60.1-59.8c0-33.1-26.6-60-59.7-60.1
	c-33.4,0-60.1,26.6-60.2,59.8C-221.1,667.4-194.5,694.1-161.2,694.1z"/>
<path class="st3" d="M-212.8,422.1c-0.3-36.2,29.7-66,66.2-66c35.6,0.1,65.9,29.1,65.9,66.1c0,36.2-29.8,66-66,66
	C-183.2,488.2-213.2,458.4-212.8,422.1z M-146.9,362.3c-33.3,0.1-59.9,26.8-59.8,60.1c0.1,33.1,26.8,59.8,60,59.7
	c33.1,0,59.9-26.8,59.9-59.9C-86.9,388.9-113.6,362.2-146.9,362.3z"/>
<path class="st4" d="M-386,633.7c0,33.2-26.6,59.7-59.9,59.7s-60-26.7-60-60c0-33.2,26.9-59.9,60.3-59.8
	C-412.5,573.7-385.9,600.4-386,633.7z"/>
<path class="st5" d="M-161.2,694.1c-33.3,0-59.9-26.7-59.8-60.1c0.1-33.3,26.8-59.8,60.2-59.7c33,0.1,59.7,26.9,59.7,60.1
	C-101.2,667.6-127.9,694.2-161.2,694.1z"/>
<path class="st6" d="M-146.9,362.3c33.3-0.1,60,26.6,60,59.9c0,33.1-26.7,59.9-59.9,59.9s-59.9-26.6-60-59.7
	C-206.9,389-180.3,362.3-146.9,362.3z M-161.6,398.6c-4.4,0-4.3,0-5.4,3.8c-3.6,12.8-7.2,25.6-10.9,38.4c-1,3.7-1.1,3.5,2.7,3.8
	c2.7,0.2,4.2-0.6,4.6-3.4c0.4-2.5,1.3-4.9,1.8-7.4c0.3-1.5,0.9-2.2,2.6-2.1c2.5,0.2,5.1,0.3,7.6,0c2.9-0.3,4.3,0.7,4.6,3.6
	c0.1,1.4,0.7,2.7,1.1,4.1c1.5,5.4,1.5,5.3,7.3,5.3c1.8,0,2.3-0.3,1.7-2.2c-4.2-13.9-8.4-27.8-12.5-41.8c-0.5-1.6-1.1-2.2-2.7-2
	C-159.9,398.6-160.7,398.6-161.6,398.6z M-125.3,428.9c1.3,0,2.6,0,3.9,0c6.6,0,6.6,0,6.1-6.6c-0.4-6.4-4.1-11.1-9.7-12.3
	c-6.1-1.2-11.5,1.4-14.3,7.3c-2.9,6-3.1,12.3-0.9,18.6c1.8,5.3,5.5,8.3,11.1,9c2.2,0.2,4.3,0.2,6.4-0.1c5.3-0.8,4.9-1.1,5-6.1
	c0-1.4-0.5-1.6-1.7-1.2c-2.5,0.8-5.1,1-7.8,0.7c-3.9-0.6-6.2-2.9-6.8-6.8c-0.2-1.7-0.1-2.7,2-2.5
	C-129.6,429.1-127.5,428.9-125.3,428.9z"/>
<path class="st1" d="M-438.3,661.2c-4.5,0-4.5,0-5.7-4.3c-0.9-3.1-1.7-6.1-2.5-9.2c-0.4-1.6-1.1-2.3-2.9-2.3
	c-3.8,0.2-7.7,0.2-11.6,0c-1.9-0.1-2.6,0.7-3,2.4c-0.9,3.7-2,7.4-2.9,11.2c-0.4,1.6-1.2,2.2-2.9,2.2c-6.6,0.1-6.6,0.1-4.9-6.2
	c4.2-14.8,8.4-29.6,12.7-44.4c0.5-1.8-0.3-4.4,1.6-5.3c1.6-0.7,3.7-0.2,5.6-0.2c5.1,0,5.2,0,6.7,5c4.8,16.1,9.4,32.2,14.2,48.3
	c0.6,2,0.3,2.8-1.9,2.6C-436.6,661.1-437.5,661.2-438.3,661.2z M-455.2,613.5c-1.9,7.7-3.6,14.8-5.5,21.8c-0.4,1.6-0.1,2.1,1.6,2.1
	c2.7-0.1,5.4-0.1,8.1,0c1.2,0,1.8-0.2,1.4-1.6C-451.5,628.5-453.3,621.3-455.2,613.5z"/>
<path class="st1" d="M-425.7,640.8c0-6.2,0-12.4,0-18.6c0-1.6,0.3-2.3,2.2-2.3c7-0.2,7-0.2,7,6.7c0,10.6-0.1,21.2,0.1,31.8
	c0,2.3-0.7,2.8-2.9,2.8c-6.3-0.1-6.3,0-6.3-6.3C-425.7,650.2-425.7,645.5-425.7,640.8L-425.7,640.8z"/>
<path class="st1" d="M-426.3,608.9c0-3.1,2-5.2,5-5.2c3.1-0.1,5.3,2.1,5.3,5.2c0,3.3-2,5.3-5.1,5.3
	C-424.5,614.2-426.3,612.3-426.3,608.9z"/>
<path class="st2" d="M-192.6,633.5c0-6.9,0.1-13.7,0-20.6c0-1.7,0.4-2.3,2.2-2.3c5.9,0.2,11.8-0.2,17.8,0.3c7,0.5,10.9,4.2,12,11.2
	c1.3,7.9-2.7,15-9.4,16.4c-3.6,0.7-7.3,1-10.9,0.6c-2.7-0.2-3.3,0.8-3.2,3.3c0.2,3.9,0,7.9,0.1,11.8c0,1.6-0.5,2-2.1,2.1
	c-6.4,0.1-6.4,0.2-6.4-6.2C-192.6,644.6-192.6,639-192.6,633.5z M-184.1,624.8c0,1.6,0,3.2,0,4.8c0,1.1,0.2,1.8,1.5,1.8
	c2.9-0.1,5.8,0.2,8.7-0.4c2.7-0.6,4.2-2.3,4.6-5c0.6-4.6-2-7.2-7.3-7.5C-184.1,618-184.1,618-184.1,624.8z"/>
<path class="st2" d="M-144.6,622.4c7.6,0,11.6,2.3,13.5,7c0.5,1.3,0.6,2.1-1.1,2.2c-1.2,0.1-2.4,0.5-3.6,0.8
	c-1.4,0.3-2.3,0.1-3.2-1.3c-1.6-2.5-6.8-3.1-9.2-1.3c-1.5,1.1-1.3,3,0.6,3.8c2.3,0.9,4.8,1.5,7.2,2.3c1.2,0.4,2.3,0.7,3.5,1.1
	c5.4,1.9,7.5,4.6,7.4,9.3c-0.1,4.6-3.1,8.6-7.8,10c-5,1.4-10,1.4-14.8-1.2c-0.7-0.4-1.3-0.8-1.8-1.3c-1.9-1.8-4.3-4.1-3.5-6.3
	c0.8-2.1,4.4-1.1,6.6-1.8c1.1-0.3,1.1,0.7,1.4,1.3c1.9,3.6,6.2,4.9,9.9,3c1.2-0.6,1.7-1.6,1.7-3c0-1.4-1-1.9-2.1-2.3
	c-3.1-0.9-6.2-1.6-9.2-2.7c-6-2.1-8-5.2-7.5-10.9c0.4-4.3,4-7.5,9.3-8.3C-146.1,622.5-145,622.4-144.6,622.4z"/>
<path class="st7" d="M-161.6,398.6c0.8,0,1.7,0.1,2.5,0c1.6-0.2,2.3,0.4,2.7,2c4.1,13.9,8.2,27.9,12.5,41.8c0.6,1.9,0.1,2.2-1.7,2.2
	c-5.8,0.1-5.8,0.1-7.3-5.3c-0.4-1.4-1-2.7-1.1-4.1c-0.3-2.9-1.7-4-4.6-3.6c-2.5,0.3-5.1,0.2-7.6,0c-1.7-0.1-2.3,0.6-2.6,2.1
	c-0.5,2.5-1.4,4.9-1.8,7.4c-0.4,2.8-1.9,3.6-4.6,3.4c-3.8-0.2-3.8-0.1-2.7-3.8c3.6-12.8,7.3-25.6,10.9-38.4
	C-165.9,398.5-166,398.5-161.6,398.6z M-166.5,424.7c3,0,5.9,0,8.8,0c0.9,0,1.1-0.4,0.9-1.2c-1.5-5.7-3-11.5-4.5-17.2
	c-0.2,0-0.3,0-0.5,0.1C-163.3,412.4-164.9,418.4-166.5,424.7z"/>
<path class="st7" d="M-125.3,428.9c-2.2,0-4.3,0.2-6.5,0c-2.1-0.2-2.3,0.8-2,2.5c0.6,3.9,2.8,6.2,6.8,6.8c2.6,0.4,5.2,0.2,7.8-0.7
	c1.2-0.4,1.7-0.2,1.7,1.2c-0.1,5,0.2,5.3-5,6.1c-2.1,0.3-4.2,0.4-6.4,0.1c-5.7-0.6-9.3-3.7-11.1-9c-2.2-6.3-2-12.6,0.9-18.6
	c2.9-5.9,8.2-8.6,14.3-7.3c5.6,1.1,9.3,5.8,9.7,12.3c0.4,6.6,0.4,6.6-6.1,6.6C-122.7,428.9-124,428.9-125.3,428.9z M-128.2,423.3
	c1.2,0,2.4-0.1,3.6,0c2.1,0.2,2.3-0.9,1.9-2.6c-0.6-2.5-1.7-4.3-4.5-4.6c-2.7-0.3-5,1-6,3.6c-1.3,3.2-1,3.6,2.4,3.6
	C-129.9,423.3-129.1,423.3-128.2,423.3z"/>
<path class="st4" d="M-455.2,613.5c2,7.8,3.8,15,5.7,22.3c0.4,1.4-0.2,1.6-1.4,1.6c-2.7,0-5.4-0.1-8.1,0c-1.7,0.1-2-0.4-1.6-2.1
	C-458.9,628.3-457.2,621.2-455.2,613.5z"/>
<path class="st5" d="M-184.1,624.8c0-6.8,0-6.8,7.5-6.4c5.3,0.3,7.9,2.9,7.3,7.5c-0.3,2.7-1.9,4.4-4.6,5c-2.9,0.7-5.8,0.3-8.7,0.4
	c-1.3,0-1.6-0.7-1.5-1.8C-184.1,628-184.1,626.4-184.1,624.8z"/>
<path class="st6" d="M-166.5,424.7c1.6-6.3,3.2-12.3,4.7-18.3c0.2,0,0.3,0,0.5-0.1c1.5,5.7,3,11.5,4.5,17.2c0.2,0.9,0,1.2-0.9,1.2
	C-160.6,424.7-163.4,424.7-166.5,424.7z"/>
<path class="st6" d="M-128.2,423.3c-0.8,0-1.7,0-2.5,0c-3.4,0-3.7-0.5-2.4-3.6c1-2.5,3.3-3.9,6-3.6c2.8,0.3,3.9,2.2,4.5,4.6
	c0.4,1.7,0.2,2.8-1.9,2.6C-125.8,423.2-127,423.3-128.2,423.3z"/>
</svg>
