<?xml version="1.0" encoding="utf-8"?>
<!-- Generator: Adobe Illustrator 19.0.0, SVG Export Plug-In . SVG Version: 6.00 Build 0)  -->
<svg version="1.1" id="Capa_1" xmlns="http://www.w3.org/2000/svg" xmlns:xlink="http://www.w3.org/1999/xlink" x="0px" y="0px"
	 viewBox="0 0 146.7 145.3" style="enable-background:new 0 0 146.7 145.3;" xml:space="preserve">
<style type="text/css">
	.st0{fill:#FC7E1E;}
	.st1{fill:#D191FC;}
	.st2{fill:#42322A;}
	.st3{fill:#1A013E;}
	.st4{fill:#CE8EF9;}
	.st5{fill:#39C3FC;}
	.st6{fill:#28253A;}
</style>
<path class="st0" d="M139.3,73.8c0,36.6-29.3,65.9-65.9,65.9c-36.6,0-66.2-29.6-66.1-66.1c0.1-36.3,29.8-66,66.2-65.9
	C111.5,7.8,140,39.4,139.3,73.8z M133.3,73.9c0-33.3-26.5-60-59.6-60.1c-33.3-0.1-60.2,26.6-60.3,59.8c0,33.3,26.6,60,60,60
	C106.6,133.6,133.3,107.1,133.3,73.9z"/>
<path class="st1" d="M311.6-140.1c-0.3-36.2,29.7-66,66.2-66c35.6,0.1,65.9,29.1,65.9,66.1c0,36.2-29.8,66-66,66
	C341.3-74,311.3-103.8,311.6-140.1z M377.5-199.9c-33.3,0.1-59.9,26.8-59.8,60.1c0.1,33.1,26.8,59.8,60,59.7
	c33.1,0,59.9-26.8,59.9-59.9C437.6-173.3,410.8-200,377.5-199.9z"/>
<path class="st2" d="M133.3,73.9c0,33.2-26.6,59.7-59.9,59.7c-33.3,0-60-26.7-60-60c0-33.2,26.9-59.9,60.3-59.8
	C106.8,13.9,133.3,40.6,133.3,73.9z"/>
<path class="st3" d="M377.5-199.9c33.3-0.1,60,26.6,60,59.9c0,33.1-26.7,59.9-59.9,59.9c-33.2,0-59.9-26.6-60-59.7
	C317.6-173.1,344.2-199.9,377.5-199.9z M362.9-163.6c-4.4,0-4.3,0-5.4,3.8c-3.6,12.8-7.2,25.6-10.9,38.4c-1,3.7-1.1,3.5,2.7,3.8
	c2.7,0.2,4.2-0.6,4.6-3.4c0.4-2.5,1.3-4.9,1.8-7.4c0.3-1.5,0.9-2.2,2.6-2.1c2.5,0.2,5.1,0.3,7.6,0c2.9-0.3,4.3,0.7,4.6,3.6
	c0.1,1.4,0.7,2.7,1.1,4.1c1.5,5.4,1.5,5.3,7.3,5.3c1.8,0,2.3-0.3,1.7-2.2c-4.2-13.9-8.4-27.8-12.5-41.8c-0.5-1.6-1.1-2.2-2.7-2
	C364.6-163.6,363.7-163.6,362.9-163.6z M399.2-133.2c1.3,0,2.6,0,3.9,0c6.6,0,6.6,0,6.1-6.6c-0.4-6.4-4.1-11.1-9.7-12.3
	c-6.1-1.2-11.5,1.4-14.3,7.3c-2.9,6-3.1,12.3-0.9,18.6c1.8,5.3,5.5,8.3,11.1,9c2.2,0.2,4.3,0.2,6.4-0.1c5.3-0.8,4.9-1.1,5-6.1
	c0-1.4-0.5-1.6-1.7-1.2c-2.5,0.8-5.1,1-7.8,0.7c-3.9-0.6-6.2-2.9-6.8-6.8c-0.2-1.7-0.1-2.7,2-2.5C394.8-133.1,397-133.2,399.2-133.2
	z"/>
<path class="st0" d="M81,101.4c-4.5,0-4.5,0-5.7-4.3c-0.9-3.1-1.7-6.1-2.5-9.2c-0.4-1.6-1.1-2.3-2.9-2.3c-3.8,0.2-7.7,0.2-11.6,0
	c-1.9-0.1-2.6,0.7-3,2.4c-0.9,3.7-2,7.4-2.9,11.2c-0.4,1.6-1.2,2.2-2.9,2.2c-6.6,0.1-6.6,0.1-4.9-6.2c4.2-14.8,8.4-29.6,12.7-44.4
	c0.5-1.8-0.3-4.4,1.6-5.3c1.6-0.7,3.7-0.2,5.6-0.2c5.1,0,5.2,0,6.7,5c4.8,16.1,9.4,32.2,14.2,48.3c0.6,2,0.3,2.8-1.9,2.6
	C82.7,101.3,81.8,101.4,81,101.4z M64,53.6c-1.9,7.7-3.6,14.8-5.5,21.8c-0.4,1.6-0.1,2.1,1.6,2.1c2.7-0.1,5.4-0.1,8.1,0
	c1.2,0,1.8-0.2,1.4-1.6C67.8,68.7,66,61.5,64,53.6z"/>
<path class="st0" d="M93.6,81c0-6.2,0-12.4,0-18.6c0-1.6,0.3-2.3,2.2-2.3c7-0.2,7-0.2,7,6.7c0,10.6-0.1,21.2,0.1,31.8
	c0,2.3-0.7,2.8-2.9,2.8c-6.3-0.1-6.3,0-6.3-6.3C93.6,90.4,93.6,85.7,93.6,81C93.6,81,93.6,81,93.6,81z"/>
<path class="st0" d="M93,49.1c0-3.1,2-5.2,5-5.2c3.1-0.1,5.3,2.1,5.3,5.2c0,3.3-2,5.3-5.1,5.3C94.8,54.4,93,52.5,93,49.1z"/>
<path class="st4" d="M362.9-163.6c0.8,0,1.7,0.1,2.5,0c1.6-0.2,2.3,0.4,2.7,2c4.1,13.9,8.2,27.9,12.5,41.8c0.6,1.9,0.1,2.2-1.7,2.2
	c-5.8,0.1-5.8,0.1-7.3-5.3c-0.4-1.4-1-2.7-1.1-4.1c-0.3-2.9-1.7-4-4.6-3.6c-2.5,0.3-5.1,0.2-7.6,0c-1.7-0.1-2.3,0.6-2.6,2.1
	c-0.5,2.5-1.4,4.9-1.8,7.4c-0.4,2.8-1.9,3.6-4.6,3.4c-3.8-0.2-3.8-0.1-2.7-3.8c3.6-12.8,7.3-25.6,10.9-38.4
	C358.6-163.7,358.5-163.7,362.9-163.6z M358-137.5c3,0,5.9,0,8.8,0c0.9,0,1.1-0.4,0.9-1.2c-1.5-5.7-3-11.5-4.5-17.2
	c-0.2,0-0.3,0-0.5,0.1C361.1-149.8,359.6-143.8,358-137.5z"/>
<path class="st4" d="M399.2-133.2c-2.2,0-4.3,0.2-6.5,0c-2.1-0.2-2.3,0.8-2,2.5c0.6,3.9,2.8,6.2,6.8,6.8c2.6,0.4,5.2,0.2,7.8-0.7
	c1.2-0.4,1.7-0.2,1.7,1.2c-0.1,5,0.2,5.3-5,6.1c-2.1,0.3-4.2,0.4-6.4,0.1c-5.7-0.6-9.3-3.7-11.1-9c-2.2-6.3-2-12.6,0.9-18.6
	c2.9-5.9,8.2-8.6,14.3-7.3c5.6,1.1,9.3,5.8,9.7,12.3c0.4,6.6,0.4,6.6-6.1,6.6C401.8-133.2,400.5-133.2,399.2-133.2z M396.2-138.9
	c1.2,0,2.4-0.1,3.6,0c2.1,0.2,2.3-0.9,1.9-2.6c-0.6-2.5-1.7-4.3-4.5-4.6c-2.7-0.3-5,1-6,3.6c-1.3,3.2-1,3.6,2.4,3.6
	C394.5-138.9,395.4-138.9,396.2-138.9z"/>
<path class="st2" d="M64,53.6c2,7.8,3.8,15,5.7,22.3c0.4,1.4-0.2,1.6-1.4,1.6c-2.7,0-5.4-0.1-8.1,0c-1.7,0.1-2-0.4-1.6-2.1
	C60.4,68.5,62.1,61.4,64,53.6z"/>
<g>
	<path class="st5" d="M352.3,344.4c-36.6,0-66-29.3-66-65.9c0-36.6,29.6-66.2,66.1-66.1c36.4,0.1,65.9,29.8,65.9,66.1
		C418.3,314.9,388.8,344.4,352.3,344.4z M352.1,338.3c33.3,0.1,60.1-26.6,60.1-59.8c0-33.1-26.6-60-59.7-60.1
		c-33.4-0.1-60.1,26.5-60.2,59.7C292.3,311.6,318.8,338.3,352.1,338.3z"/>
	<path class="st6" d="M352.1,338.3c-33.3-0.1-59.8-26.8-59.8-60.1c0.1-33.3,26.8-59.8,60.2-59.7c33,0.1,59.7,26.9,59.7,60.1
		C412.2,311.8,385.4,338.4,352.1,338.3z"/>
	<path class="st5" d="M320.8,277.7c0-6.9,0.1-13.7,0-20.6c0-1.7,0.4-2.3,2.2-2.3c5.9,0.2,11.8-0.2,17.8,0.3c7,0.5,10.9,4.2,12,11.2
		c1.3,7.9-2.7,15-9.4,16.4c-3.6,0.7-7.3,1-10.9,0.6c-2.7-0.2-3.3,0.8-3.2,3.3c0.2,3.9,0,7.9,0.1,11.8c0,1.6-0.5,2-2.1,2.1
		c-6.4,0.1-6.4,0.2-6.4-6.2C320.8,288.8,320.8,283.2,320.8,277.7z M329.2,269c0,1.6,0,3.2,0,4.8c0,1.1,0.2,1.8,1.5,1.8
		c2.9-0.1,5.8,0.2,8.7-0.4c2.7-0.6,4.2-2.3,4.6-5c0.6-4.6-2-7.2-7.3-7.5C329.2,262.2,329.2,262.2,329.2,269z"/>
	<path class="st5" d="M368.7,266.6c7.6,0,11.6,2.3,13.5,7c0.5,1.3,0.6,2.1-1.1,2.2c-1.2,0.1-2.4,0.5-3.6,0.8
		c-1.4,0.3-2.3,0.1-3.2-1.3c-1.6-2.5-6.8-3.1-9.2-1.3c-1.5,1.1-1.3,3,0.6,3.8c2.3,0.9,4.8,1.5,7.2,2.3c1.2,0.4,2.3,0.7,3.5,1.1
		c5.4,1.9,7.5,4.6,7.4,9.3c-0.1,4.6-3.1,8.6-7.8,10c-5,1.4-10,1.4-14.8-1.2c-0.7-0.4-1.3-0.8-1.8-1.3c-1.9-1.8-4.3-4.1-3.5-6.3
		c0.8-2.1,4.4-1.1,6.6-1.8c1.1-0.3,1.1,0.7,1.4,1.3c1.9,3.6,6.2,4.9,9.9,3c1.2-0.6,1.7-1.6,1.7-3c0-1.4-1-1.9-2.1-2.3
		c-3.1-0.9-6.2-1.6-9.2-2.7c-6-2.1-8-5.2-7.5-10.9c0.4-4.3,4-7.5,9.3-8.3C367.3,266.7,368.4,266.6,368.7,266.6z"/>
	<path class="st6" d="M329.2,269c0-6.8,0-6.8,7.5-6.4c5.3,0.3,7.9,2.9,7.3,7.5c-0.3,2.7-1.9,4.4-4.6,5c-2.9,0.7-5.8,0.3-8.7,0.4
		c-1.3,0-1.6-0.7-1.5-1.8C329.3,272.2,329.2,270.6,329.2,269z"/>
</g>
<path class="st3" d="M358-137.5c1.6-6.3,3.2-12.3,4.7-18.3c0.2,0,0.3,0,0.5-0.1c1.5,5.7,3,11.5,4.5,17.2c0.2,0.9,0,1.2-0.9,1.2
	C363.9-137.5,361-137.5,358-137.5z"/>
<path class="st3" d="M396.2-138.9c-0.8,0-1.7,0-2.5,0c-3.4,0-3.7-0.5-2.4-3.6c1-2.5,3.3-3.9,6-3.6c2.8,0.3,3.9,2.2,4.5,4.6
	c0.4,1.7,0.2,2.8-1.9,2.6C398.7-139,397.4-138.9,396.2-138.9z"/>
</svg>
