<?xml version="1.0" encoding="utf-8"?>
<!-- Generator: Adobe Illustrator 19.0.0, SVG Export Plug-In . SVG Version: 6.00 Build 0)  -->
<svg version="1.1" id="Capa_1" xmlns="http://www.w3.org/2000/svg" xmlns:xlink="http://www.w3.org/1999/xlink" x="0px" y="0px"
	 viewBox="0 0 150 159" style="enable-background:new 0 0 150 159;" xml:space="preserve">
<style type="text/css">
	.st0{fill:#3B1F07;}
	.st1{fill:#FDC611;}
	.st2{fill:#FEEF15;}
	.st3{fill:#FED308;}
	.st4{fill:#FEE104;}
	.st5{fill:#FBB405;}
	.st6{fill:#FEE803;}
	.st7{fill:#7E3E09;}
	.st8{fill:#512908;}
	.st9{fill:#F05D0A;}
	.st10{fill:#FDF842;}
	.st11{fill:#FDFB65;}
	.st12{fill:#FED906;}
</style>
<path class="st0" d="M63.1,108.9c0-0.2-2.2,3.7-3,3.6c-0.7-0.1-4.2,6.7-4.3,6c-0.4-2-6.5-14.5-6.7-16.5c-0.2-1.8,0.3-5.2,0.2-6
	c-0.1-1.7,4.4-8.8,5-9.8c2-3,6.3-10.2,6.4-11.4c0.1-1.6,0-5.5-0.4-5.5c0-0.1-0.1-0.3-0.1-0.4c0.1-1.4,0.1-2.8-0.2-4.2
	c0.6-0.2,1.2-0.4,1.8-0.6c0.1,0.8,0.3,1.5,0.4,2.3c0.1,1.5,0.1,2.9,0.2,4.4c0,0.4,0,0.9,0.5,1.1c0.5,0.2,0.9-0.2,1.2-0.5
	c1.4-1.5,2.4-3.2,2.8-5.2c0-3.1,0-5.9-0.7-9.2c0.4-0.2,0.9-0.3,1.4-0.2c0.2,0.6,0.4,1.2,0.7,1.8c0.5,1.1,0.7,0.6,1.8,0.1
	c2.1-0.9,3.1-1.4,3.2-4c0-0.4,1-1,1.1-1.4c0.6,0,0.9-0.5,1.3-0.9c0.2,1,0.2,1.4,0.2,2.3c0.1,1,0,0.7,0.8,0.2c1.1-0.7,1.7-0.8,2.2-2
	c0.7-0.2,1.3,0.1,1.6,0.8c-1.8,2.8-3.2,5.6-5.9,7.4c-1.8,1.2-3.8,2.3-4.2,4.5c-0.1,0.2-0.3,0.5-0.4,0.7c-2.1,6.1-4.4,12.2-6.9,18.1
	c-0.6,1.4-1.1,2.9-1.3,4.5c-0.7,3.5-0.3,6.9-0.1,10.4c0.1,1.5,0.2,3,0.8,4.5c0.2,0.6,0.7,1.2,1.6,0.7
	C64,106.1,64.1,108.7,63.1,108.9z"/>
<path class="st0" d="M27.3,86c0.7-0.4,1.1-1.1,1.6-1.7c1.4,1.6,3,3,4.8,4.1c1.2,0.7,2.5,1.3,3.9,1.1c1.3-0.1,1.8-0.8,1.6-2.1
	c-0.2-1.1-0.8-2.1-1.2-3.1c0.5-0.2,0.8-0.5,1.1-1c0.2,0.3,0.6,0.2,0.7,0.5c0.6,1.2,0.6,1.4,1.7,0.6c0.7-0.5,1.5-0.8,2.1-1.5
	c0.5,0.1,1,0.2,1.4,0.3c-0.5,1.2-1.8,1.4-2.5,2.3c-1.2,0.6-1.8,1.4-1.2,2.7c0.1,0.1,0,0.3,0.1,0.5c-1.1,0.2-0.7,1.2-0.3,2.4
	c0.4,1.3,1,1.8,2.1,2.6c0.3,0.2,4.5,2.6,4.5,3.2c-0.9-0.3-2.6,0.7-3.5,0.6c-1-0.1-4.5-2.7-5.4-2.4C34.8,93,30.2,89.7,27.3,86z"/>
<path class="st1" d="M108.6,26.5c1-0.1,1.6,0.5,1.9,1.4c0.3,0.7-0.1,1.3-0.6,1.8c-1,1-0.9,2.3,0.4,3c1,0.5,2.4,0.6,2.8,2
	c0.1,0.2,0.3,0.3,0.5,0.2c0.1,0,0.2-0.1,0.2-0.1c1,0.2,1.8,1.1,2.9,1.1c0.3,0,0.4,0.6,0.3,0.9c-0.3,1,0.3,1.3,1.1,1.4
	c1,0.1,2,0.5,2.9,1.5c-1.1,0.1-2,0.3-2.5,1.1c-0.6,0.8-0.5,1.3,0.5,1.6c0.7,0.2,1.5,0.5,1.5,1.5c0,0.3,0.2,0.4,0.4,0.6
	c1.3,1.1,1.1,2.2-0.4,3c0.9,0.6,1.5,1.2,2.6,0.2c1.1-1,2.7-0.9,4.2-0.6c0.5,0.1,1.3,0.1,1.8-0.1c1.6-0.4,2.9,0.5,4,1.4
	c0.7,0.6,1.3,0.9,2.1,0.7c0.7-0.1,1.3,0.4,2,0.4c0.3,0,0.3,0.3,0.3,0.5c0.1,2.6,2,3.7,3.9,4.4c1.3,0.5,1.8,1.1,2.2,2.5
	c0.4,1.4,0.8,2.8,1.2,4.2c0.2,0.8,0.3,1.6-0.4,2.2c-0.4,0.3-0.3,0.8-0.3,1.2c0,1.4,0,2.7,0,4.1c0,0.6,0,1.1-0.9,1.2
	c-0.7,0.1-1,0.5-1,1.3c0,0.8-0.8,1.5-0.3,2.4c0.1,0.2-0.2,0.2-0.3,0.3c-0.8,0.3-1.2,0.8-0.8,1.6c0.2,0.4-0.1,0.5-0.3,0.7
	c-0.6,0.5-0.7,1-0.3,1.7c0.2,0.3,0.9,0.3,0.6,0.9c-0.3,0.5-0.9,0.8-1.4,0.9c-1.8,0.3-1.8,0.3-1.8,2c0,0.4-0.1,0.7-0.5,1
	c-0.9,0.7-1.4,2-2.7,2.1c-0.5,0.1-0.4,0.8-0.8,1.1c-1,0-1.9,0.8-2.8,1c-0.3,0.1-1.6,0.2-1.8-0.2c-0.4-0.8-1.4-0.4-2.2-0.7
	c-0.5-0.2-0.6-1.2-0.7-1.7c-0.1-0.9-0.9-0.5-1.6-0.8c-0.9-0.4-1.6-0.7-2.3-1.4c-0.3-0.3-0.4-0.3-0.8,0.1c-0.8,0.8-1.9-0.1-2.5-0.8
	c-0.3-0.3-1.3-0.7-1.7-0.8c-1.4-0.5-1.5-1.5-1.4-2.9c0-0.4-0.4-1.1-0.5-1.5c-0.2-0.9-0.2-1.1,0.6-1.8c-0.7-0.5-0.1,0.1-0.8,0
	c-0.7-0.1-0.6-0.2-0.6,0.5c0,1.1-1.1,1.7-2,1.7c-1,0-1.7-0.4-2.4,0.4c-0.5,0.3-0.9,0.2-0.9-0.4c0-0.4-0.2-0.7-0.5-0.9
	c-0.9-0.7-1.8-1.5-0.5-2.7c0.1-0.2,0.2-0.5,0.3-0.7c0.4-0.4,0.2-0.8,0.2-1.3c0-0.3,0.1-0.8-0.4-0.9c-0.4-0.1-0.9-0.2-1.1,0.4
	c-1,0-0.9,1-1.4,1.5c-0.1,0.1-0.2,0.2-0.2,0.3l0,0c-0.1,0.1-0.3,0.1-0.4,0.2c-1.1,0.8-2.1,0.4-2.9-0.5c-0.6-0.7,0.1-1.2,0.2-1.8
	c0-0.2,0.2-0.4,0.1-0.4c-0.8-1.3-0.2-2.7-0.3-4c0-0.3-0.1-0.7-0.1-1c-0.3-0.6-1.2-0.3-1.5-0.9c-0.1-0.5-0.2-0.9-0.5-1.3
	c-1.3-1.3-1.7-1-2.3,0.6c-0.3,0.9-0.9,0.5-1.5,0.3c-0.7-0.4-1.4-0.6-2.1-0.4c-0.5,0-1.1,0.1-1.4-0.4c-0.3-0.5-0.5-1.2-1.2-1.3
	c-0.4-0.6,0.7-1.4-0.2-2c-0.1-0.4-0.7,0-1,0.1c-0.5,0.1-0.7-0.1-1.2,0c-0.3-0.6,0.5-1.9-1.1-1.7c-0.7,0-1.5-0.2-1.7,0.9
	c-0.3,1.4-1.4,1.3-2.5,1.3c-0.6,0-1.1,0.1-1.6,0.4c-0.7,0.5-1.4,0.6-1.6-0.5c0-0.2-0.3-0.3-0.4-0.4c-0.2-0.4-0.5-0.6-0.9-0.7
	c-0.5-0.5-0.8-1-0.3-1.5c1-0.9,1.5-1.9,1.2-3.2c-0.3-0.7-1.1-0.5-1.8-0.3c-1.1-0.5-1.9-1.8-3.1-1c-0.4,0.4-0.9,1.1-1.5,1.1
	c0-1.1-1.1,0-1.7,0.3c-0.6-0.2-0.7-0.5-1.1-0.4c-0.4-0.7-0.9-1.7-0.3-2.6c0.4,0,0.9-0.3,1.1-0.8c0.6-1.2,1.6-1.3,2.6-2
	c0.8,0.1,1.7-0.2,2.4-0.5c1.1-0.3,2.6-0.5,3.4,0.6c0.4,0.5,0.8,0.5,1.5,0.1c0.9-0.4,1.9,0.2,2.9,0.5c0.3,0.7,0.8,0.9,1.6,0.8
	c0.8-0.1,1.3-0.8,1.9-0.8c1.4,0.1,2.5-0.7,3.8-0.9c0.2,0,0.4,0,0.6,0.2c1.2,1.3,1.6,1.3,3.2,0.2c0.4-0.2,0.7-0.3,1.1-0.1
	c0.8,0.4,1.5,0.6,2.3,0.9c0.5,0.2,1,0.3,1,0.8c0.1,0.5-0.5,0.5-0.8,0.8c-0.2,0.2-0.4,0.4-0.6,0.6c-0.3,0.4-0.3,0.9,0,1.3
	c0.3,0.4,0.7,0.5,1.2,0.3c0.2-0.1,0.5-0.2,0.7-0.2c0.9-0.3,1.7-0.5,1.6,1.1c0.5-0.5,0.8-1,1.2-1.3c0.5-0.4,0.8-0.7,1.5,0
	c0.7,0.8,1.9,0.9,2.3,1.9c0,0.1,0.1,0.8,0.1,1c-0.6,1.5-1.2,1.5-2.4,0.3c-0.2-0.2-0.5-0.2-0.7,0c-0.6,0.5-1.4,1.1-1.2,2
	c0.3,1.8,0.1,3.5,0.2,5.2c0,1.8,0,1.8,1.7,1.4c0.8-0.2,1.9-1.1,2.5-0.4c0.7,0.8,1,0.9,2,0.4c1-0.6,2.2-1.1,3.1,0
	c0.6,0.8,0.5-0.1,1.2-0.1c0.6,0,0.7-0.4,0.6-1.1c0.9,0.3,2.9,1.6,3.8,1.1c0.6-0.3,1.5-0.9,2-0.2c0.9,1.3,1.9,1,3,0.5
	c0.2-0.1,0.6-0.5,0.8,0c0.4,0.9,1.5,1.2,1.7,2.5c0.1,0.9,1.4,1.4,2.2,2.1c0.7,0.6,1.4,1.2,2.4,1.9c0.8,0.6,1.1,1.6,1.9,1.7
	c3.2,0.4,6.2-1.3,6.2-5.2c0-0.7,0.1-1.3,0.7-1.8c1.1-1.1,1.4-2.4,0.6-3.8c-0.3-0.6-0.2-1.1,0-1.7c0.4-1.2-0.1-1.3-1.4-1.4
	c-0.3,0-0.9-0.6-1-0.8c-0.2-1.2-0.5-1.5-1.4-2.1c-0.3-0.2-0.7-0.9-0.8-1.2c-0.1-1.3-0.5-1.4-1.8-0.9c-0.5,0.2-0.9-0.1-1.4-0.4
	c-0.7-0.3-1.5-0.3-2-1.1c-0.3-0.5-1-0.4-1.4-0.3c-1.5,0.6-2.9-0.8-4.4-0.2c0,0-0.1-0.1-0.1-0.2c-0.3-0.9-0.8,0.4-1.3,0.6
	c-0.6,0.2-1.2-1-1.6-1.4c-0.4-0.5-1-0.6-1.7-0.5c-0.5,0-1,0-1.4-0.2c-0.7-0.4-1.1-1.3-1.9-1.4c-0.1-0.3-0.2-0.7-0.4-1
	c-0.3-0.4-0.3-0.8,0.1-1c0.7-0.3,1-1.1,1.6-1.6c0.5-0.5,0.4-0.9,0-1.3c-0.5-0.4-1-0.7-1.6-0.7c-1.1,0-2.2,0-3.3,0
	c-1,0-1.8-0.1-2.3-1.3c-0.3-0.7-0.7-1.6-1.7-1.9c-0.5-0.1-1.2-0.3-1.1-0.6c0.4-0.8,0.4-1.5,0.3-2.2c-0.1-0.4-0.8,0.1-1.2,0.1
	c-0.2,0-0.4,0.1-0.6,0c-0.5-0.1-0.8-0.3-0.4-0.9c0.4-0.4,0.9-0.8,0.6-1.4c-0.3-0.7-1,0.1-1.6,0.1c-0.6,0-1.2-0.7-0.8-1.5
	c0.2-0.5-0.2-0.7-0.3-1c0.5-1.3,1.4-0.6,2.2-0.6c0.7,0.1,1.3,0.7,2,0.6c0.4,0,0.3,0,0.4-0.5c0-0.4,0-0.9-0.5-1
	c-1.1-0.2-1.4-1.1-2.4-1.6c-0.8-0.4-0.6-1-0.2-1.3c0.6-0.5,1.7-0.5,2.1-1.5c0.1-0.2,0.6,0.1,0.9,0.2c0.3,0.1,0.3,0.7,0.8,0.7
	C108.5,27.2,108.5,26.9,108.6,26.5z M106.7,28.1C106.7,28.1,106.7,28.1,106.7,28.1c-0.1-0.1-0.1-0.1-0.1-0.1
	C106.6,28.1,106.6,28.1,106.7,28.1C106.7,28.2,106.7,28.1,106.7,28.1z"/>
<path class="st2" d="M57.4,12.3c0.8-0.6,1.5-0.4,2.1,0.8c0.1-1.3,0.4-2.2,1.5-2.5c0.4-0.1,0.2-0.4,0.2-0.7c0-0.4,0.1-0.9,0.4-0.9
	c1.1-0.2,2.1-0.8,3.2-0.8c0.5,0,1,0.2,1.5,0.1c0.2,0,0.5-0.2,0.7,0.1c0.4,0.8,1,1,1.8,0.4c0.2-0.2,0.5,0,0.5,0.2
	c0.2,1.2,1.1,1.5,2.2,1.5c0.4,0,0.9,0.2,1.2,0.5c-0.2,0.3,1.1,1.4-0.1,1.2c-0.2,0-0.2,0.2-0.2,0.4c0.1,0.7-0.4,1-0.9,1.2
	c-0.6,0.2-0.7,0.7-1.1,1.2c-0.6,0.5-2.5,0.4-2.8,0.8c-1.2,1.2-2.8,1.2-4.2,1.3c-1.7,0.2-1.6,1-2.3,1.9c-0.5,0.6-1.9,0.9-2.4,0.4
	c-0.9-1.1-1.1-1.6-1.5-0.6c-0.5,1-1.3,1.4-2.2,1.9c-0.6,0.3-1.5,0.3-1.4,1.4c0,0.2-0.4,0.3-0.7,0.2c-1.3-0.6-2.4,0.2-3.5,0.8
	c-0.5,0.2-0.6,0.9-0.3,1.5c0.4,0.9-0.8,2.8-1.8,2.7c-1-0.1-1.4,0.1-1.5,1.1c-0.1,1,0.1,1.5,1.3,1.5c0.8,0,1.1,0.4,0.4,1.1
	c-0.3,0.2-0.4,0.5-0.2,0.9c0.6,1.3,0,2.1-1.4,2.3c-0.3,0-0.7-0.1-0.9,0.2c-0.3,1-0.9,0.7-1.5,0.5c-0.4-0.4-0.7-0.2-0.9,0.2
	c-0.3,0.4-0.6,0.8-0.9,1.3c-0.5,0.8-1.1,1.2-2.1,1c-0.5-0.1-0.9,0-1.3,0.4c-0.6,0.6-1.4,0.9-2.1,1.3c-0.2,0.1-0.5,0.2-0.6-0.1
	c-0.4-0.9-1.1-0.6-1.7-0.4c-0.7,0.2-0.6,0.9-0.7,1.5c-0.2,2.1-1.6,2.8-3.4,1.7c-0.1-0.1-0.3-0.1-0.4-0.2c-0.5-0.4-0.9-0.4-1.4,0.3
	c-0.4,0.6-0.7,1.2-1.8,0.7c-0.6-0.3-1.6,0.6-2.1-0.5c0,0-0.4,0.1-0.5,0.2c-0.4,0.3-0.9,0.2-1.4,0.2c0.5-1.3,0.4-2.5-0.5-3.6
	c0.1-0.1,0.1-0.3,0.1-0.4c0-0.4,0.1-0.9,0.6-1c0.5-0.1,0.8,0.2,0.9,0.6c0.1,0.3,0.1,0,0.3-0.1c0.9-0.4,1.8,0.4,2-1.1
	c0-0.1,0.8-0.8,1-0.8c0.8-0.2,1-0.4,1.1-1.2c0.1-0.7,0.6-1.2,1.2-1.1c0.9,0,0.9-0.5,1.3-1.1c0.4-0.8,0.8-1.8,1.5-2.2
	c0.7-0.4,0.6-0.5,0.5-0.9c0-0.6,0.3-1.1,0.5-1.7c0.2-0.2,0.5-0.4,0.7-0.5c0.3,0.3,0.5,0.2,0.9-0.1c0.8-0.6,1.7-1.3,2.6-1.6
	c0.9-0.3,1.9-0.2,2.3-1.3c0.1-0.3,0.5-0.7,0.8-0.6c0.7,0.6,1.4,1.1,2,0.2c0.4-0.7,1.2-1,2-1c0.8,0,2,0.1,2.4-0.5
	c0.5-0.9,1.5-1.2,2-1.3c1.3-0.2,2.1-1.4,3.5-1.5c0.8-0.1,0.8-0.8,0.1-1.3c-0.5-0.4-0.4-1.4,0.3-1.7c0.8-0.4,1.9-0.2,2.1-1.5
	c1.2,0.2,1.6-0.9,2.4-1.4C57.4,13.1,57.5,12.8,57.4,12.3z"/>
<path class="st3" d="M69.7,14.6c0.4-0.5,0.9-0.8,1.5-1.1c0.5-0.2,1-0.3,0.9-1c0-0.2,0-0.5,0.3-0.4c1.2,0.2,0.2-0.6,0.4-0.9
	c0.6,0.1,1.2,0.1,1.8,0.2c0.4,0.1,0.7,0.3,0.7,0.7c0,0.5-0.5,0.3-0.8,0.3c-0.3,0-0.7-0.2-0.7,0.4c0.1,0.6,0.5,0.2,0.7,0.1
	c0.7-0.1,1.1,0.4,1.5,0.8c0.4,0.4,0.7,0.7,1.2,0.1c0.5-0.6,1.2-0.5,1.9-0.2c0.7,0.3,1.3,0.6,2.1,0.6c0,0.4,0,0.9-0.1,1.3
	c-0.8,3.1-1.7,6.3-2.5,9.4c-1.1,0-1.1,0.7-0.9,1.4c0.1,0.6,0,0.8-0.5,1c-0.6,0.1-0.9-0.1-1.2-0.6c-0.2-0.3,0.1-0.7-0.4-0.9
	c-0.5,0.7-0.9,1.4-1.9,0.3c-0.4-0.5-0.9,0-1.1,0.5c-0.2,0.4-0.6,0.8,0.1,1.1c0.7,0.3,0.9,0.9,1.2,1.6c0.3,1-0.2,2-0.2,2.9
	c0,0.4,0.6,1.9,0.3,1.9c-0.9,0-1.4,0.9-2.1,1.2c-0.6,0.2-1.4,0.5-0.9,1.3c0.4,0.7-0.3,0-1.1,0.2c-1.1,0.2,0.4-0.2,0.8,0.9
	c0.1,0.3-1.9,1.7-2.3,1.9c-1.2,0.6-0.5,0,0.3,1.2c0.7,0.9,0.1,2.5-0.8,3.2c-1,0.8-1.6,0.9-1.1,2.3c0.7,0.2-0.1,0.9-0.3,1
	c-0.6,0.6,0,0.3,0.5,0.6c1.7,1,2.3,2.4,4.1,3.4c-0.5,0.9,0.8,1.9,1.2,2.6c-1.9-0.1-2.2,0.3-2.9,2.1c-0.2,0.6-1.6,0.5-2,1
	c-0.5,0-0.9,0-1.4,0.2c-0.9,0-0.7,1.1-0.7,2c-0.1,0.7-0.8,1.2-1.4,1.6c-0.4,0.3-0.6,0.8-0.5,1.5c0.2,1.1-0.9,1.4-1.8,2
	c-0.6,0.2-1.2,0.4-1.8,0.6c-1.2,0.5-1.7,1.3-1.6,2.6c0,0.4,0,0.8-0.3,0.9c-0.4,0.2-0.4-0.2-0.6-0.5c-0.3-0.5-1.2-0.2-1.6,0
	c-0.7-0.6-0.1-1.4,0.1-2.2c1.2-4.2,0.1-5.2,1.2-9.4c0.1-0.3,2.4-3.7,2.8-3.7c0.4,0.2,0.6,0.5,1.2,0.4c1.5-0.3,2.5-1.3,3.7-2.1
	c0.5-0.3,0.2-0.7-0.1-1.1c-1.1-1.1-3.4-1.3-4.8-1.8c1-3.7,1.7-7.7,2.7-11.4c1.6-5.6,3.3-11.2,4.8-16.8C67.9,18,69.6,16.5,69.7,14.6z
	"/>
<path class="st4" d="M27.4,86c-0.9-0.1-1.6,0.1-1.8,1.2c-0.2,1.1-1.3,0.6-1.8,0.3c0.6-2.4,0.9-5.1,1.6-7.4c1.1-3.4,2-6.8,3-10.3
	c0.5-2,2-3.7,2.1-5.8c1-1.3-0.5-3.2,0.7-4.5c-0.9-1.2,0.8-2.5,1.2-3.3c0.5-0.9,1.5-1.3,2.6-1c0.4,0.1,0.8,0.7,1.2,0.2
	c0.4-0.6,1.2-0.1,1.6,0.1c1.4,0.7,1.5-0.1,2.9,0.6c0.4,0.2,1.3,0.9,1.4,0.4c0.3-1.6,1.9-1.5,3-2c1-0.5,2.1-0.8,3.4-0.6
	c-0.5,1-1,2.1-1.1,3.2c-0.1,1.3-1.2,2.6-0.1,3.8c-0.8,0.4-1.6,0.9-1.7,1.9c0,0.5-0.3,0.8-0.8,0.8c-0.3,0-0.6,0.2-0.7,0.5
	c-0.7,0.2-0.7,0.7-0.6,1.3c-0.3,0.5-0.7,1-1,1.5c-0.6,0.8-0.4,1.4,0.4,2c0.4,0.3,1.1,0.4,1.2,1.1c-0.8,0-1.2,0.3-1.4,1.1
	c-0.5,2.3-1.3,4.6-1.9,6.9c-0.3,1-1,2.3,0.1,3.4c-1,0.2-1.1,1.1-1.4,1.9c-0.2,0.5-0.6,0.8-1.1,1c-1.2,0.1-2.3,0.2-3-1.1
	c-0.1-0.2-0.3-0.3-0.5-0.2c-0.7,0.4-0.7,0-0.9-0.5c-0.1-0.6-0.4-1.1-1.1-1.1c-0.6,0-0.9,0.4-1.1,0.9c-0.3,0.8-0.6,1.5-1.7,1.2
	c-0.5-0.1-0.7,0.4-0.9,0.8C28.5,85,28.1,85.7,27.4,86z"/>
<path class="st0" d="M94.3,62.9c0.8-0.2,1.5,0,2.1,0.4c-0.1,0.6-0.2,1.2-0.3,1.7c-0.1,0.4,0,0.7,0.5,0.7c2.2-0.1,3.2-0.5,3.4-2.6
	c0-0.2,0.1-0.4,0.2-0.7c0.3,0.4,0.4,0.8,0.5,1.3c-0.3,1.4-0.2,1.4,1.1,1c0.1,0,0.2-0.1,0.3-0.1c0,0.3,0.1,0.7,0.1,1
	c-2,0.7-3.8,2.2-5.8,2.9c-0.5,0.2-1.1,0.8-1.3,1.4c-0.7,2.4-2.8,3.8-4.8,5.1c-2.1,1.4-4.1,1.6-5.6,3.6c-2.6,2.6-3.8,5.9-5.4,9.2
	c1.8-0.3,3.4-0.2,4.9-0.2c0.7,0,1.4,0,2-0.3c1.6-0.6,3.2-0.9,4.8-1.3c2.7-0.7,4.7-2.5,6.1-4.7c1-1.6,2.1-3,3.7-4.1
	c0.9-0.4,1.6-1,2.2-1.8c0.9-1.2,2-1.8,2.4-3.2l0,0c0.2,0,0.2-0.1,0.2-0.3c0.5-0.5,0.4-1.5,1.4-1.5c0,0.9-0.4,2,1.3,1.7
	c-0.1,0.2-0.2,0.5-0.3,0.7c-1.4,0.1-2.1,1.3-1.8,2.6c0.1,0.3,0,0.4,0.2,0.4c0.8-0.1,1.4,0.4,2.1-0.3c0.3,0.2,0.5,0.5,0.5,0.9
	c0,0.7,0.4,0.7,0.9,0.4c0.3,0,0.6-0.3,0.9,0.1c-1,0.9-2.3,1.6-3.6,1.4c-2.4-0.3-4.4-0.3-6.1,1.5c-1.2,0.9-2.1,1.9-2.7,3.3
	c-0.3,0.7-0.4,1.4,0.6,1.5c2.2,0.2,4.5,0.1,6.4-1.1c0.2-0.1,0.4-0.8,0.5-0.9c2.3-1.8,4-3.5,6.1-5.6c0.2-0.2,0.6-0.4,0.9-0.1
	c0.3,0.2,0.3,0.7,0.1,0.9c-0.5,0.8-1.3,1.5-1.9,2.3c0,0-0.1,0.1-0.1,0.1c0.1,0,0.1-0.1,0.2-0.1c0.8,0.2,1.3-0.7,2.2-0.8
	c-0.4,1-0.9,1.9-1.7,2c-0.6,0.1-1.3-0.1-1.8,0.3c-1.2,1.2-2.6,2.1-3.7,3.3c-0.4,0.4-0.1,0.4,0.7,0.4c0.8,0,1.6,0.4,2.3,0.5
	c1.6,0.3,3,0.9,4.3-0.6c0.4-0.4,1-0.7,1.5-0.9c1.3-0.6,2.6-0.9,3.7-1.8c0.3-0.3,0.5-1,1-0.6c0.5,0.4,0.4,0.8,0.2,1.2
	c-0.2,0.3-0.6,0.7-0.9,0.9c-0.7,0.4-1.7,1.1-2.5,1.4c-1.3,0.4-2,1.3-3,2.2c-1.4,1.2-3.1,1.7-5.1,0.6c-1.1-0.6-2.3-0.8-3.6-0.8
	c-1.7-0.4-3.3-0.6-5.1,0c-1.8,0.5-3.5,1.1-5.3,1.4c-0.6-0.4-1.1,0.1-1.8,0.1c-1.6,0-3.1,0.3-4.6,0.8c-0.6,0.2-1.3,0.9-1.9,0
	c-0.2-0.3-0.7,0.2-0.9,0.5c-0.9,1.1-2.4,0.1-3.5,0.4c-1.1,0.3-3.7,2.6-4.6,3.3c-0.8,0.6-1.3,2.1-1.9,2.3c-1,0.4,0.2-5.2,0.3-6.2
	c0-0.3,0-0.6-0.3-0.7c0.1-0.3-0.1-0.7,0.3-1c1.1-0.2,1.6-1.1,2-1.9c0.9-1.6,0.4-5.4-0.9-4.1c-0.1-1.4,1.1-3.9-0.2-3.3
	c0.1-0.8,0.1-1.5,0.2-2.3c0.2-1.4-0.2-3.4,0-4.8c0.6-4.7,1.6-8.7,2.7-13.4c0.4,0.1,0.7,0.4,0.9,0.7c-0.2,1.4,0.8,3.8,0.7,5.2
	c-0.4,3.4-1.4,5.7-1.4,9.1c0,0.3-0.9,0.9-0.5,1c0.4,0.1,0.6-0.2,0.8-0.4c1.5-1.7,2.3-3.6,2.6-5.9c0.4-2.8,0.3-5.4-0.2-8.1
	c0.5-0.3,1-0.4,1.6-0.4c0.2,1.3,0.9,1.5,1.1,2.8c0,0.3-0.4,0.8,0,0.9c0.4,0.1,0.3-0.6,0.5-0.8c1.1-2,2.2-2.8,2.6-5
	c1.6-0.2,0.8,1.1,1.1,1.7c0,0.9-0.1,0.9,0.1,1.8c1.6-0.3,1.4-0.9,2.1-2c0.8,0.6-0.3,1.3,0.2,2c-0.6,0.7-0.3,2.2-1.1,2.8
	c-0.9,0.8-2.2,1.2-2.6,2.5c-0.5,1.6-0.9,2.5-1.4,4.1c-0.2,0.7-0.7,0.9-0.1,1.5c0.7,0.7,0.4,0.3,1.1,0c0.3-0.1,1.5-1.3,1.8-1.5
	C92.8,68.3,94.7,67.1,94.3,62.9z"/>
<path class="st2" d="M48.3,53.9c-1.3-0.2-1.8,1.1-2.8,1.6c-1.2,0.5-2.5,1.1-2.8,2.6c-0.1,0.6-0.7,0.3-1.1,0.1
	c-1.4-0.7-2.8-1.5-4.2-2.2c-0.4-0.2-0.8-0.5-1.2,0.1c-0.4,0.5-1,0.1-1.4-0.1c-1.1-0.3-1.8,0-2.3,0.9c-0.4,0.8-1.6,1.4-0.7,2.5
	c-1.2,1.3,0.3,3.6-0.7,5c-0.3,0-1.3-0.4-1.6-0.6c-1-0.7-1.5,0.3-2.1,0.7c-0.6,0.5-0.8,1.2-0.4,1.8c0.5,0.7,0.2,1.1-0.3,1.5
	c-0.7,0.6-0.8,1.3-0.3,2c0.4,0.6,0.2,0.8-0.3,1.2c-0.4,0.3-0.8,0.5-1.3,0.6c-0.9,0.3-1.8,0.7-2.6,0c-0.8-0.8-0.2-1.6,0.2-2.4
	c0.3-0.6,0.1-0.8-0.6-0.9c-0.8-0.1-1.3,0.3-1.8,0.7c-0.4,0.3-0.9,0.5-1.3,0c-0.4-0.4-0.7-0.7-0.4-1c0.5-0.4-0.1-0.8-0.4-0.6
	c-0.6,0.5-1.4,1.4-1.4,0.4c0-0.5-0.3,0-0.8,0c-0.5,0-0.5,0.5-0.6,0.8c-0.1,0.2-0.6-0.3-0.9-0.3c-0.2,0-3.3-0.3-3.6-0.5
	c-0.3-0.2-0.2-0.6-0.1-0.9c0.2-0.6,0-0.7-0.5-0.7C9,66,9,66.6,8.8,67c-0.2,0.4-0.3,1.1-1,1c-0.7-0.2-0.6-0.8-0.6-1.4
	c0-0.3,0.1-0.6,0.3-0.9c0.7-0.1,1-0.6,1.4-1c0.9-0.9,1.8-1.7,3.2-0.9c0.4,0.4,0.9,0.3,1.2,0.1c0.9-0.5,1.8-0.9,2.7-0.8
	c1.6,0.2,2.2-0.6,2.3-2.1c0-0.8,0.5-2,0.8-2.5c0.3-0.6,1.7,0.1,2.3-0.2c3-1.4,4.7-3.5,7.7-4.8c1.6-0.7,4.3-1.1,6-1.5
	c0.4,0.3,0.9,0.2,1.4,0.2c1-0.2,1.8-0.8,2.7-1.2c0.7-0.3,1.3-0.9,2,0c0.1,0.1,0.5,0.2,0.7,0.1c1.2-1,2.8-1.5,4.1-2.4
	c0.6-0.5,1.7-0.9,2.3-0.3c0.5,0.5,0.7,0.3,1.1,0.1c0.7-0.4,1.4-0.7,2.2-0.5c1.8,0.5,3.3-0.2,5-0.5c0.8-0.1,1.8-0.6,2.6-0.3
	c0.6,0.2,1.2,0.2,1.7,0.4c1.4,0.5,2.9,1,4,2.1c0.3,0.3,0.6,1.2,0,1.5c-1.2,0.8-2.3,1.8-3.8,2.1c-0.6,0.1-1-0.3-1.3-0.5
	c-0.7-0.8-1.9-0.9-2.6,0c-0.7,0.9-1.3,0.7-1.9,0c-0.3-0.3-0.6-0.6-0.9-0.9c-0.2-0.2-0.4-0.5-0.7-0.4c-0.4,0.2-0.1,0.6,0,0.8
	c0.2,0.9,0.5,1.8,0.8,2.9c-0.8-0.2-1-0.6-1.3-0.9c-0.3-0.2-0.8-0.4-0.9-0.1c-0.4,1.3-1,0.4-1.4,0.1c-0.5-0.3-0.9-0.7-1.4-0.9
	C48.6,53,48.3,53.2,48.3,53.9z"/>
<path class="st5" d="M70.8,51.5c-1.7-1-3.2-2.4-4.9-3.5c-0.5-0.3-0.8-0.8-0.2-1.4c0.2-0.1,0.4-0.3,0.3-0.5c-0.5-1.4,0.2-2.1,1.2-2.9
	c0.8-0.7,0.8-1.8,0.2-2.7c-0.8-1.1-0.7-1.5,0.5-2.1c0.4-0.2,0.2-0.4,0.1-0.6c-0.4-1.1,0-2,1.1-2.2c0.8-0.1,1-0.5,0.6-1.1
	c-0.5-0.8,0.1-1.2,0.7-1.5c0.8-0.3,1.6-0.6,2.4-0.5c0.4,0,0.2-0.4,0.1-0.8c0-1,0.7-1.7,0.3-2.7c-0.2-0.7-0.3-1-1.1-1.3
	c-0.6-0.3-0.6-1.2-0.4-1.6c0.2-0.4,1.6-1,2.1-0.5c0.9,1.1,1.1,0.2,1.6-0.5c0.5,0.2,0.6,1.1,0.8,1.4c0.3,0.5,0.2,0.4,0.7,0.2
	c0.5-0.1,0.4-0.1,0.2-0.7c-0.2-0.7,0.2-1.9,1.3-1.9c0.4,0,1,0.9,1.1,1.3c0.1,0.4,0.1,0.3,0.5,0.2c0.8-0.1,1.1,0.7,1,1.2
	c0,1,0.1,0.1,0.7-0.3c2.8-1.8,4.7-1.1,7.7-0.3c0.2,0,1,0,1.1-0.1c0.7-1.2,1.9-0.2,2.7,0.1c0.5,0.2,0.7,0.1,1-0.2
	c0.7-0.8,2.2,0.5,2.7-0.7c0.1-0.1,0.9-0.1,1,0c0.3,0.3,0.4,0.6,0.7,0.9c0.6,0.8,0.5,0.3,1.3-0.3c0.4-0.3,1.4-1.2,1.6-1.4
	c0.1-0.1,1-0.3,1.2-0.2c1.5,0.8,2.9,1,4.4,1.4c0.4,0.3,0.8,0.6,1.2,0.9c0,0.3,0,0.9,0,1.3c-0.5-0.1-0.7-0.4-1-0.6
	c-0.3-0.1-0.6-0.1-0.7,0.1c-0.4,1-1,0.6-1.6,1.1c-0.4,0.3-0.4,0.4,0.4,0.8c1,0.4,0.6,0.7,1.8,0.9c0.5,0.1,1.2,1.7,1.2,2.1
	c0,0.5-0.9,0.7-1.3,0.7c-0.8,0.1-1.2-0.5-1.9-0.5c-0.8-0.1-1.4-1-2.1,0.1c-0.7,0.1-1.2-0.5-1.9-0.5c-2,0.1-3.7-1.2-5.5-1.9
	c-0.7-0.3-1.2-0.8-1.9-0.2c-0.5,0-1-0.1-1.4-0.1c-1.8-0.1-3.6,0.2-5,1.5c-0.4,0.4-0.8,0.7-1.3,0.1c-0.1-0.2-0.4-0.4-0.6-0.1
	c-0.7,1.3-1.8,2-1.7,3.7c0,0.3-0.7,0.9-0.9,1.3c-0.5,0.1-1-0.2-1.3-0.5c-0.4-0.4-0.7-0.7-1.2-1c-0.9-0.7-0.7-0.8-1,0.3
	c-0.1,0.5-1.1,0.5-1.5,0.7c-0.5,0-0.8,0.5-1.1,0.8c-0.6,0.6-1,1.4-1.7,1.9c-0.1,0.1,0.3,0.6,0.2,0.6l-0.5,0c-1,0.4-2.4,0.4-2.5,1.4
	c-0.1,1.2-1.5,1.4-1.4,2.6c0.1,0.6,0,1.1,0.6,1.4c0.5,0.3,1,0.7,1.3,1.2c0.4,0.6,0.8,0.9,1.5,0.8c0.5-0.1,0.7,0.2,0.6,0.7
	c-0.1,0.3-0.1,0.6-0.2,0.9c-1,0.7-1.9,1.4-2.5,2.6C72.2,51.4,71.1,51.5,70.8,51.5z"/>
<path class="st6" d="M9.7,66.1c0.5,0,1.2-0.1,0.9,0.5c-0.1,0.3-0.5,0.5-0.1,0.7c0.3,0.2,0.5-0.2,0.7-0.4c0.3-0.2,0.5-0.1,0.8-0.3
	c1.1-0.8,1.6-0.8,2.1,0.5c0.1,0.2,0,0.4,0.2,0.4c0.3,0,0.4,0.1,0.5-0.2c0.1-0.2-0.3-0.8-0.2-1c0.2-0.4,0.8-0.4,1.3-0.3
	c0.5,0,1.1-0.2,1.1,0.3c0.1,1,0.1,0.6,0.7,0.1c0.3-0.3,0.8-0.1,1.2-0.3c0.2,0.6,0.4,1.4-0.1,1.9c-0.4,0.3-0.4,0.4,0,0.8
	c0.4,0.5,0.5,0.3,0.9,0c0.6-0.4,1.1-0.9,1.9-0.8c0.7,0.1,1.5,0.3,1.1,1c-0.4,0.8-0.7,1.3,0.1,2c0.8,0.7,0.4,0.4,1.3,0.1
	c0.5-0.1,0.6,0,1-0.3c0.5-0.3,0.7-0.3,0.4-0.9c-0.5-0.7-0.3-1.5,0.3-2.1c0.5-0.4,0.5-0.6,0-1.3c-0.4-0.6,0.4-1.8,1.1-2.2
	c0.6-0.4,1.4-1.9,2.4-1.2c0.2,0.2,1.2,1.2,1.5,1.2c-0.1,2.1-1,3.9-1.5,5.9c-0.9,3.5-2.6,6.4-3.7,9.9c-0.7,2.4-1.2,5.1-1.8,7.4
	c-0.9,0.2-1.8,1.1-2.6-0.2c-0.3-0.4-0.5,0.1-0.7,0.3c-0.3,0.3-0.5,0.9-1,0.9c-0.7,0.1-1.3-0.2-1.3-1c0-0.7-0.3-1.2-1-1.3
	c-0.6-0.2-0.8,0.4-1.1,0.7c-0.1,0.1-0.2,0.2-0.2,0.3C15.5,88,15.4,86,14.6,87c-0.4,0.5-0.6,0.3-0.8-0.9c0-0.2-0.1-0.4-0.3-0.5
	c-0.3-0.1-0.4,0.2-0.6,0.3c-0.4,0.3-0.5,1.5-1.5,0.6c-0.1-0.1-0.3,0-0.3,0.2c-0.1,0.4-0.2,0.7-0.7,0.6c-0.5-0.1-0.6-0.5-0.7-0.9
	c0-0.6-0.3-1.1-0.6-1.6C9,84.3,9,84,8.4,84.1c-0.1,0-0.3-0.2-0.3-0.2c0.7-0.9-0.7-1.8-0.1-2.7c0.2-0.4,0.1-0.7-0.3-0.9
	c-0.4-0.2-0.7,0-0.8,0.4c-0.2,0.5-0.5,1.1-1.2,0.7c-0.7-0.4-1.2-1.2-0.8-1.8c0.6-0.8,0.6-1.6,0.2-2.4c1,1,2.3,0.3,3.4,0
	c0.1,1.2,0.1,1.5,0.5,1c0.8-0.9,1.5-0.1,1.9,0.5c0.4,0.7,0.7,0.7,1.4,0.8c0.4,0.1,0.7,0.4,0.5-0.3c-0.4-1.1,0.4-1.2,1.4-0.9
	c0.4-0.2,1,0.4,0.9-0.6c-0.1-0.7,0.3-1.3,1-1.4c0.7-0.1,1.2,0.4,1.1,1.2c0,0.8,0.3,0.9,0.9,0.5c1.5-0.9,1.6-0.8,1.6,0.9
	c0,1.2,0.4,1.5,1.5,1c0.4-0.2,0.7-0.2,0.9,0.2c0.3,0.3,0.5,0.3,0.8,0.6c0.1,0,0.2,0.4,0.3,0.3c0-0.7,0.8-0.9,0.7-1.5
	c-0.4-2.2-1.3-4.2-2.8-5.9c-0.2-0.2-0.4-0.2-0.7-0.2c-0.5,0-1,0-1.4,0c-1,0-1.7,0-1.8-1.3c0-0.6-0.5-0.9-0.9-0.2
	c-0.5,1-1.1,0.5-1.6,0.1c-0.5-0.9-1.1-0.9-1.9,0.2c-0.5,0.7-1.1,0.7-1.3,0c-0.4-1.1-0.9-0.8-1.5-0.3c-0.3,0.2-0.7,0.4-1,0.6
	c-0.9-0.5-1.9-1.1-2.2,0.6c-0.1,0.4-0.5,0.5-0.9,0.3c-0.7-0.3-0.9,0.1-1.2,0.6c-0.9-1.2-0.8-2.2,0.5-2.9c0.8-0.4,1.6-0.6,2.4-1
	c0.4-0.2,1-0.3,0.4-0.9c-0.1-0.1,0-0.4,0.1-0.4C9.2,68.4,9.2,67.1,9.7,66.1z"/>
<path class="st0" d="M75.4,96.6c-1.3,3.6-2.6,7.2-3.3,11c-1.2,6-0.8,11.9,0.3,17.9c0.5,2.9,1.4,5.8,2,8.7c0.6,3,2.3,5.2,4.9,6.9
	c0.3,0.2,0.7,0.5,1,0.8c-0.6,0.4-1.1,0-1.6-0.1c-1.3-0.3-2.6-0.5-4-0.3c-2.5,0.5-5,0.2-7.5,0.7c-2.4,0.5-4.5,1.5-6.5,2.9
	c-0.2,0.2-0.4,0.5-0.7,0.3c-0.3-0.1-0.1-0.4-0.1-0.6c0.1-0.6,0.2-1.2,0.3-1.7c0.4-0.5-0.3-1.7,0.3-2c0.2-0.1-2.9-4.2-3.3-4.6
	c0.8-1-0.1-3.1-0.2-6.6c0-0.6-0.9-8-0.9-7.1c-0.7-0.6-0.8-5.5-0.8-6.3c-0.2-3.1,0-6.5,1.1-9.4c0.3-0.7,6.1,0,6.1-0.2
	c0.4,0,4.9-8,6.6-10.5c0.2-0.3,3.6-0.3,4.3,0.1C74,96.8,74.7,97,75.4,96.6z"/>
<path class="st7" d="M67.1,105.8c0,0.2-0.1,0.3-0.1,0.5c-0.8,0.6-0.7,1.9-1.9,2.3c0.1-0.7-1.3,1.7-1.5,5.9c-0.1,2,1,4.3,0.1,6
	c-0.6-2.4-1.4-4.9-1.9-7.3c-0.3-1.3-1.5-1.6-2.7-1c-0.6,0.3-0.9,0.4-1.3,0.9c-0.8-2-1.6-3.8-2.5-5.6c-1.9-3.7-2.9-7.6-2.5-11.8
	c0.1-0.7,0-1.2-0.9-1.2c-0.5,0-0.8-0.5-0.8-1c0-0.3,0.2-0.7-0.3-1c-0.7,0.6-0.4,1.8-1,2.2c-0.8,0.6-0.5,1.2-0.3,1.8
	c0.9,2.9,1.8,5.9,2.8,8.8c0.5,1.6,0.5,2.1,1.5,3.6c-0.5-4.7-2.4-7.9-3-12.6c3.3,10.1,7.1,20.2,8.7,30.6c0.4-3.8-0.7-7.7-1.8-11.2
	c1.4-0.1,1,1.9,2.1,3c-0.3-2-0.4-3-0.6-4.8c0-0.3-0.2-0.6,0.2-0.7c0.3-0.1,0.8,0,0.9,0.3c0.1,0.5,0.3,1.2,0.4,1.7
	c0.3,2-0.1,4.1,0.5,6c0.1,0.4,0.1,0.9,0.8,1.1c0.2-2.5-1-4.8-0.5-7.2c0.4,0.5,0.7,1.1,0.8,1.7c0.6,4.3,1.5,8.5,1.9,12.8
	c0.2,1.4,0.5,2.9,0.1,4.3c-0.1,0.3-0.2,1.2-0.7,1.2c-0.5,0-0.8-0.8-0.8-1.1c-0.4-2.7-0.7-3.1-1.5,1.4c-0.6-1.2-1.2,0-0.6,2
	c0.2,0.9,0.2,1.3-0.9,1.1c-1.7-0.3-3.3,0.2-3.7,1.6c-0.3-0.1-0.4,0.2-0.6,0.3c-1.1-0.1-0.4-0.8-0.4-1.2l0,0c0.1-0.1,0.1-0.2,0.2-0.3
	l0,0c0.8-0.3,1.3-1.6,1-1.5c0.7-1.7,0.3-3.4,0.2-5.2c0-0.4,0-0.9-0.1-1.3c0.7,0,0.9,0.4,1,0.9c0.2,1,0.6,2,0.8,3
	c0.1,0.6-0.1,1.5,0.6,1.3c0.7-0.2,0-0.9-0.1-1.5c-0.7-3-1.3-6-1.9-9c-0.2-1.1-0.7-2.2-0.4-3.6c1.2,1.3,1.1,3,1.7,4.3
	c0.2-0.3,0.1-0.6,0-0.9c-0.6-2.9-1.3-5.7-2.2-8.5c-0.5-1.6-2.3-4.6-2.3-4.6c0,0,0.1,0,0.1,0c0.4,1.6,0.9,3.2,1.3,4.9
	c0.2,0.9,0.4,1.9-0.2,2.9c-0.9-4.1-2-8.1-3.3-12.1c-0.1-2-0.8-3.8-1.8-5.5c-0.6-1-1.3-2-2.6-2.3l0,0c-0.1-0.1-0.2-0.2-0.3-0.3
	c0,0,0.1,0,0.1,0c-0.1-0.1-0.2-0.2-0.3-0.3c-1.7-1.5-3.6-2.8-5.7-3.8c0.3-1.1,0.8-1.2,1.7-0.6c1.6,1.1,3.2,2.2,4.8,3.2
	c0,0,0.1,0.1,0.1,0.1c0,0-0.1-0.1-0.1-0.1c-0.6-1-1.7-2-1.6-3.3c0.9,0.4,1.9,1.4,2.2,2.3c0.5,0.6,0.9,1.5,1.8,2
	c-0.4-2.1-1.9-3.9-2.7-5.7c2.1-0.3,3-0.7,2.8-2.1c0.1,0,0.1,0,0.1,0.1c0.2,0,0.3-0.1,0.3-0.3c0.9-0.8,1.6-1.6,2.2-2.6
	c1-1.6,1.7-3.4,2.5-5.2c0.6,0.6,0.3,1.3,0,1.9c-0.9,1.7-1.8,3.5-2.7,5.2c-0.3,0.6-0.5,1.2-0.3,2c0.6-0.9,1.1-1.8,1.5-2.8
	c0.4-0.9,0.6-2,1.8-2.8c-1.5,5.8-1.2,11.2-0.2,16.7c0.6-2.9-0.3-5.8,0.3-8.7c0.4,0.2,0.4,0.5,0.4,0.8c0,1.4,0.1,2.8,0.2,4.2
	c0.1,3.1,1,6.2,2.1,9.1c0.2,0.6-0.1,1.3,0.7,1.3c0.7,0,0.6-0.7,0.8-1.2c0.1-0.3,0.1-0.7,0.5-0.7c0.9,0.1,0.3-0.1,0.7-1
	c0.2-0.4,0.5-1,1.4-0.8c0,0.2,0,0.5,0,0.7c0.1,1.3,0.4,1.2,0.6,2.6c0.1-0.1,0.2-0.3,0.3-0.4c0.1-0.2,0.2-0.6,0.3-0.8
	c0.4-3.4,1.2-5,2.9-7.9c3.3-5.5,6.7-10.9,9.5-16.8c0.1-0.3,0.3-0.6,0.7-0.6c0,1.6-0.3,3.1-0.5,4.7c-0.3,0.3-0.5,0.6-0.6,1
	c-0.4,0.2-0.5,0.7-0.7,1.1c-0.5,1.3-0.4,3.4-2,3.9c-0.1-1.5,1.4-2.6,1.2-4.2C70.9,94.9,69,100.3,67.1,105.8z"/>
<path class="st1" d="M107.3,25.6c-1.5-0.3-3.2-0.1-4.6-0.9c-0.1-0.1-0.3-0.1-0.4,0c-0.2,0.2,0,0.4,0.1,0.5c0.2,0.2,0.3,0.3,0.5,0.5
	c0.2,0.2,0.2,0.4,0,0.6c-0.2,0.2-0.5,0.5-0.7,0.3c-0.7-1.1-1.1-0.1-1.6,0.2c-0.8,0.6-1.4,0.6-2-0.2c-0.2-0.3-0.6-0.6-0.8-0.9
	c-0.1-0.1-0.4-0.3-0.5-0.2c-0.5,1.2-1.9,0.3-2.6,1.1c-0.3,0.3-0.8,0.3-1.2,0.1c-0.8-0.3-1.7-1-2.4,0.2c-0.1,0.2-0.3,0-0.4,0
	c-3-0.7-6-1.1-8.8,0.6c-0.7,0.4-1.1,0.4-1.1-0.6c0-0.5-0.1-1-0.8-0.8c-0.4,0.1-1,0.7-1.1,0.3c-0.1-0.3-1.1-1.9-1.5-1.9
	c0.9-3.1,0.6-2.8,1.5-5.9c0.1-0.4,2.4-4.1,2.4-4.5c0.7-0.2,1.3-0.5,2-0.7c0.6-0.2,1.2-0.2,1.6,0.4c-0.1,0.1-0.1,0.2-0.1,0.2
	c-0.6,0.2-1.5,0-1.6,0.7c-0.1,0.6,0.6,0.9,1.1,1.3c0.4,0.4,0.8,0.7,1.3,1.2c0.1-0.9,0.4-1.5,0.9-2.1c0.4-0.5,1-1,1.5-0.7
	c0.9,0.4,1.3-0.1,1.8-0.6c1.3-1.2,1.9-1.1,2.6,0.6c0.3,0.8,0.9,1.1,1.7,1c0.8-0.1,1.5-0.1,2.3-0.1c0.5,0,1,0.1,1,0.7
	c0,0.8,0.3,0.7,0.9,0.6c0.6-0.2,1.4-0.5,1.5,0.7c0,0.3,0.4,0.3,0.6,0.3c0.9,0,1.5,0.8,2.6,0.7c0.8-0.2,1.3,1.3,0.8,2.2
	c-0.3,0.4-0.6,0.7-0.9,1.1c-0.3,0.4-0.5,0.8-0.2,1.3c0.2,0.5,0.6,0.6,1.1,0.6c0.9,0,1.8-0.1,2.6,0c0.7,0,1.5-0.1,1.8,0.6
	C108.3,24.5,107.7,25.1,107.3,25.6z"/>
<path class="st8" d="M56,140.3c0.5-1.4,1.8-2.6,3.5-2.3c1.1,0.2,0.2-4.4-0.3-6.4c-0.1-0.6-0.4-1.5,0.1-1.6c0.7-0.1,0.6,0.8,0.8,1.4
	c0.3,1.3,0.5,2.5,0.9,3.8c0.8-4.6-0.7-9.3-0.6-13.9c1,1.4,1,3.3,1.3,4.8c0.5,2.7,0.8,5.3,1.2,8c0.1,0.4,0.1,0.9,0.6,0.9
	c0.5,0,0.4-0.6,0.4-0.9c0.4-1.4,0-2.9-0.2-4.3c-0.5-4.3-1.2-8.6-1.8-12.8c-0.1-0.6-0.2-1.2-0.6-1.7c-0.4,2.4,1,5.2,0.8,7.7
	c-0.7-0.2-1-1.3-1.2-1.7c-0.6-2-0.5-4-0.8-6c-0.1-0.5-0.2-1.1-0.3-1.6c-0.1-0.3-0.1-0.2-0.5-0.1c-0.4,0.1,0,0.1,0,0.4
	c0.2,1.7,0.1,3.4,0.4,5.4c-1.1-1.1-1-2.5-1.8-3.4c1.1,3.5,2.2,7.3,1.4,10.9c-2.2-10.4-5.4-20.5-8.7-30.6c0.6,4.7,2.8,9,3.3,13.8
	c-0.9-1.5-1.3-3.2-1.8-4.9c-0.9-2.9-1.9-5.9-2.8-8.8c-0.2-0.6-0.5-1.2,0.3-1.8c0.6-0.5,0.3-1.6,1-2.2c0.4,0.2,0.3,0.7,0.3,1
	c0,0.5,0.3,1,0.8,1c0.9,0,1,0.5,0.9,1.2c-0.4,4.2,0.8,7.9,2.7,11.6c0.9,1.8,1.5,3.8,2.3,5.7c0.4-0.5,0.4-1.1,1-1.4
	c1.2-0.6,3.1,0.2,3.3,1.6c0.5,2.4,1,4.9,1.5,7.3c0.4-2-0.4-4-0.3-6c0.2-4.1,1.4-8.1,2.9-11.9c0.2-0.6,0.6-1.5,1.2-1.3
	c0.7,0.3,0.1,1.1-0.1,1.7c-0.5,1.3-1.1,2.6-1.7,3.8c-0.3,0.6-0.4,0.9-0.5,1.6c0.8-0.6,0.9-1.5,1.7-2c0,0.8-0.3,1.5-0.5,2.2
	c-1.1,2.9-1.8,5.7-1.6,8.9c0.1,0.8,0,1.6,0.7,2.2c0-1,0-1.9-0.2-2.9c-0.7-3.2,0.5-6.1,1.5-9c0.1-0.2,0.3-0.4,0.4-0.5
	c0.2-0.3,0.4-0.6,0.8-0.6c0.5,0,0.6,0.5,0.7,0.9c0.1,0.6,0.2,1.3-0.1,1.9c-0.5,1-1,2.1-1.4,3.2c-1.3,2.7-1,5.5-0.8,8.4
	c0.2,3.3,0.7,6.6,1.5,9.9c0.1,0.5,0,1.6,1,1.3c0.8-0.2,0.5-1,0.3-1.6c-1.1-3.8-2-7.6-1.8-11.6c0-0.3,0-0.6,0.1-1
	c0-0.1,0.1-0.1,0.2-0.2c0.6,0.8,0.6,1.7,0.6,2.6c0.4,4.5,1.3,8.9,2.1,13.3c0.1,0.7,0.5,1.8-0.3,2.1c-0.8,0.3-1.3-0.7-1.6-1.4
	c-1.2-2.3-1.3-4.8-2-7.2c-0.2-0.6,0-1.6-0.7-1.6c-0.6,0.1-0.3,1.1-0.3,1.7c0.2,3.5,0.5,6.9,0.7,10.3h0c-1.1-0.1-2.2,0-3,1
	c0.4,0.4,0.8-0.1,1.2,0c0.1,0.5-0.3,0.5-0.5,0.6c-0.6,0.3-1.3,0.5-1.9,0.8c-0.3,0.2-0.9,0.4-0.1,0.9c0.5,0.3,0,0.6-0.3,0.8
	c-0.6,0.3-0.9,0.8-1.3,1.3c-0.3-1.6-0.5-1.7-2-1.7c-0.7,0-1.4,0.1-2.1,0.1C56.3,141,56.1,140.6,56,140.3z"/>
<path class="st9" d="M105,87.4c1.3-0.1,2.5,0.2,3.6,0.8c2,1.1,3.4,0.1,4.8-1.1c1-0.8,1.9-1.9,3.2-2.2c0.8-0.2,1.5-0.7,2.2-1.1
	c0.3-0.2,0.6-0.4,0.7-0.6c0.2-0.4,0.9-0.8,0.3-1.2c-0.5-0.4-0.7,0.3-1,0.6c-1.1,0.9-2.5,1.3-3.7,1.8c-0.6,0.2-1.1,0.5-1.5,0.9
	c-1.3,1.6-3,1.2-4.7,1c-0.8-0.1-1.5-0.4-2.3-0.4c-0.7,0-0.8-0.4-0.4-0.8c1.1-1.2,2.3-2.4,3.5-3.6c0.5-0.5,1.2-0.5,1.8-0.6
	c0.9-0.1,1.6-0.4,2-1.5c-0.9,0.1-1.4,1-2.2,0.8l-0.1-0.1c0.6-0.8,1.1-1.6,1.7-2.4c0.1-0.2,0.4-0.5,0.1-0.7c-0.3-0.2-0.5,0.2-0.6,0.3
	c-2,2.1-4.1,4.2-6.4,6c-0.2,0.1-0.3,0.2-0.5,0.3c-0.2-1-1.3-2-2.3-2c-1.1-0.1-2.1-0.2-2.1-1.7c1.6-1.8,3.7-2.4,6.1-2.1
	c1.2,0.1,2.5,0.1,3.5-0.8c-0.3-0.4-0.6-0.1-0.9-0.1c0.7-0.8,1.6-1.1,2.6-1.1c0.8,0,1.5-0.1,1.5-1.2c0-0.7,0.4-1.1,1.1-1
	c0.6,0.1,1.3-0.4,1.9,0.1c-0.8,0.7-0.8,1.5-0.5,2.4c0.1,0.3,0.1,0.7,0.1,1.1c-0.1,1.4,0.5,2.5,1.9,3c0.4,0.1,0.7,0.4,1,0.7
	c0.6,0.8,1.3,1,2.1,0.2c0.4-0.4,0.7-0.2,1,0.1c0.7,0.7,1.6,1.2,2.5,1.5c0.7,0.3,1.3,0.6,1.4,1.5c0.1,0.5,0.6,0.7,1,0.9
	c0.7,0.3,1.5,0.4,1.9,1.2c0.2,0.4,0.6,0.2,1,0.1c0.9-0.3,1.8-0.6,2.8-0.5c-0.5,1.3-1.6,2.2-2.1,3.5c0,0.1-0.1,0.3-0.2,0.3
	c-2.3,0.2-4.3,1.6-6.7,1.4c-0.5,0-0.7,0-1-0.5c-0.7-1.3-1.9-1.3-2.6-0.1c-0.4,0.7-0.8,0.3-1.1,0c-0.3-0.3-0.5-0.8-0.8-1.2
	c-0.3-0.5-0.7-0.8-1.3-0.7c-0.5,0.1-0.9,0.5-0.9,1c0,0.6-0.3,0.7-0.8,0.7c-0.9,0-1.7,0.5-2.6-0.4c-0.5-0.5-1.1,0.1-1.5,0.7
	c-0.7-1.1-2.7-1.8-4-1.3C106.8,89.6,105.4,88.6,105,87.4z"/>
<path class="st6" d="M22.2,42.4c0.5,0,1,0,1.4-0.2c0.2-0.1,0.5-0.2,0.5-0.2c0.5,1.2,1.4-0.7,1.9-0.4c1,0.6,0.9-0.2,1.3-0.8
	c0.4-0.7,1.5-0.6,2-0.3c0.1,0.1,0.7,0.1,0.8,0.2c1.8,1.1,2,0.8,2.2-1.3c0.1-0.6,0.8-2.1,1.5-2.4c0.6-0.2,1.7-0.2,2.1,0.7
	c0.1,0.3,0.2,0.8,0.5,0.7c0.7-0.4,1-1.6,1.6-2.3c0.4-0.4,1.6-0.4,2.1-0.2c1,0.3,0.8,0.1,1.2-0.7c0.3-0.4,0.8-0.6,1.1-1
	c0.2-0.4,0.6,0.2,1,0.7c-0.4,0.2-0.6,0.5-0.7,0.9c-0.6,1.8-1,3.7-1.6,5.6c-0.6,1.8-1.2,3.6-1,5.6c-1,0.3-2.5-0.1-2.5,1.7
	c0,0.1-0.1,0.1-0.2,0.2c-1.3,0.3-2.6,1-4,0.3c-1.3-0.7-2.6-0.3-3.9,0c-0.3-0.2-0.6-0.5-0.9-0.7c-1-0.8-2.2-0.5-3.3-0.3
	c-0.3,0-0.6-0.1-0.8-0.1c-0.5-0.7-0.3-1.3,0.1-1.9c0.2-0.3,0.5-0.5,0.7-0.8c0.7-1.1,0.5-1.4-0.7-1.7C23.8,43.3,22.6,43.7,22.2,42.4z
	"/>
<path class="st8" d="M67.1,105.8c1.9-5.5,3.9-11.2,7-16.1c0.5,1.5-1.1,3-1.3,4.4c1-1.1,1.3-2.5,1.8-3.8c0.2-0.4,0.4-1.2,0.8-1.5
	c0.3,0.2,0.5,0.8,0.5,1.1c0,1,0.3,1.4,1.3,1c0.6-0.2,1-0.2,1.5,0c1.1,0.3,2.2-0.2,3.2-0.5c1.2-0.3,2.5-0.2,3.5-1.3
	c0.3-0.3,0.9-0.4,1.1-0.1c0.6,0.9,1.1,0.4,1.7,0.2c1.5-0.5,3-1,4.6-1c0.6,0,1.3,0.1,1.8,0.4c-2,0.8-4.2,1-6.2,1.6
	c-3.5,1-7,1.9-10.4,3.1c-1.3,0.4-1.5,1.7-2.2,2.5c-0.3,0.1-0.3,0.4-0.3,0.6l0,0.1c-0.7,0.4-0.7,1.2-1,1.9c-0.2,0.4-0.4,0.8-0.8,0.7
	c-0.5-0.2-0.4-0.7-0.1-1c0.3-0.6,0.2-0.9-0.3-1.3c-0.7-0.4-0.5,0.6-0.7,0.9c-1.7,2.4-3,5.1-4.3,7.8C68,105.8,67.5,105.8,67.1,105.8z
	"/>
<path class="st8" d="M37.8,94.4c0.9-0.3,1.9-0.5,2.9-0.4c0.9,0.1,1.8,0.5,2.7,0.8c0.1-0.6-0.3-0.7-0.6-0.9c-1.2-0.8-1.9-1.9-2.3-3.3
	c-0.3-1.2,0-1.7,1.1-2c1.7,1.1,3.5,2.1,5.3,3.1c0.9,0.5,1.9,0.3,2.9-0.1c0.3,1.4-0.3,1.9-2.3,2.2c0.8,1.8,1.9,3.5,2.3,5.5
	c-1-0.5-1.4-1.2-1.9-1.9c-0.5-0.7-1-1.4-1.9-1.9c-0.1,1.3,1.2,1.9,1.5,2.9v0.2c-1.6-1.1-3.3-2.3-4.9-3.4c-0.9-0.6-1.5-0.4-1.7,0.6
	C39.8,95.6,38.7,95.1,37.8,94.4z"/>
<path class="st10" d="M57.4,12.3c0.1,0.5,0.4,1-0.1,1.3c-0.8,0.5-1.1,1.9-2.3,1.7c-0.1,1.3-1,1.2-1.8,1.6c-0.6,0.3-1,0.8-0.5,1.2
	c0.7,0.5,0.2,1.7-0.6,1.8c-1.4,0.1-2.2,1.2-3.5,1.4c-0.6,0.1-1.4,0.6-1.9,1.4c-0.4,0.6-1.9,0.8-2.8,0.8c-0.9,0-1.4,0.5-1.8,1.2
	c-0.6,0.9-1.2-0.2-1.9-0.8c0-0.5,0.2-0.9,0.5-1.2c0.7-0.5,1.6-0.9,2-1.7c0.3-0.1,0.9,0.4,0.9-0.4c0.8-0.5,1.6-0.8,2-1.8
	c0.5-0.1,1.1,0.2,1.5,0.3c0.7,0.2,1.5,0.6,1.9-0.5c0-0.1,0.1-0.1,0.2-0.1c1.8,0.1,1.6-1.3,1.8-2.4c0.1-0.5,0.2-1,0.9-0.9
	c0.6,0.1,0.5-0.4,0.6-0.7c0.3-0.5,0.4-1.3,1.3-0.7c0.6,0.4,0.5-0.1,0.6-0.5c0.2-1.5,0.4-1.6,1.8-1.1C56.5,12.4,57,12.3,57.4,12.3z"
	/>
<path class="st8" d="M53.6,112.5c1.4,1.2,2.2,2.8,2.7,4.4c0.9,2.8,1.4,5.7,2,8.6c0.1,0.3,0,0.6-0.2,0.9c-0.6-1.3-0.7-2.8-1.7-4.3
	c-0.1,1.5,0.4,2.5,0.6,3.6c0.7,3,1.4,6,2.1,9c0.1,0.5,0.5,1.4-0.2,1.6c-0.7,0.2-0.8-0.7-0.9-1.3c-0.2-1-0.4-1.9-0.7-2.9
	c-0.1-0.5-0.2-1-0.9-1c-0.6-3.7-1.1-7.4-1.7-11.1c0.6-0.9,0.3-1.9,0.1-2.8C54.4,115.7,54,114.1,53.6,112.5L53.6,112.5z"/>
<path class="st10" d="M32.3,29.5c0.1,0.4,0.3,0.7-0.4,1.1c-0.7,0.4-1.1,1.3-1.5,2.1c-0.3,0.7-0.5,1.2-1.4,1.2c-0.6,0-1,0.4-1.1,1
	c-0.1,0.8-0.5,1.4-1.3,1.6c-0.2,0.1-0.5,0.2-0.5,0.3c-0.2,1.6-1.6,1-2.5,1.5c-0.2,0.1-0.4,0.1-0.5-0.2c-0.1-0.4-0.3-0.7-0.7-0.6
	c-0.5,0.1-0.5,0.6-0.5,1c0,0.1-0.1,0.3-0.2,0.4c-0.4-0.6-0.3-1.3-0.2-1.9c0.2,0,0.5,0,0.7-0.2c2.4-1.8,4.8-3.7,7.2-5.4
	C30.3,30.6,31,29.6,32.3,29.5z"/>
<path class="st11" d="M8.2,77.4c-1.1,0.3-2.3,1-3.3,0c-0.9-0.2-0.9-1-0.6-1.8c0.2-0.5,0.1-1.2,0.2-1.7c0.3-0.5,0.6-1.1,1.3-0.8
	c0.4,0.2,0.3,0.1,0.4-0.3c0.4-1.7,2.4-1.2,3.4-0.7c0,0.6-0.1,1.8-0.2,2.4c-0.1,1,0.2,2-0.6,2.9C8.8,77.5,8.3,77.4,8.2,77.4L8.2,77.4
	z"/>
<path class="st11" d="M32.3,29.6c-1.2,0.2-2.1,1.7-3,2.4c-2.4,1.8-4.7,3.1-7.1,4.9c-0.2,0.1-0.5,0-0.7,0c-0.2-1.5,0.2-4.5,1.2-5.1
	c1.8-0.9,3.1-2.7,4.8-3.8c1.1-0.8,2.9,1.2,4,0.3c0.4-0.3,1-0.6,1.5-0.6C32.7,28.2,32.3,29,32.3,29.6z"/>
<path class="st11" d="M42.8,21.3c-0.4,0.8-1.3,1.1-1.9,1.7c-0.3,0.3-0.7,0.5-0.7,1c-0.4,0-0.7,0.2-0.9,0.6c-0.4,1.1-1.2,1.2-2.1,1.5
	c-0.9,0.3-1.9,0.9-2.7,1.6c-0.4,0.3-0.7-0.2-1.1-0.4c0.5-1.1-0.5-3.1,0.4-3.8c1.8-1.4,4.9,0.6,5.1-1.6c0.2-1.8,3.1-2.3,3.4-2
	C42.6,20.1,42.5,21,42.8,21.3z"/>
<path class="st2" d="M50.2,148.5c-0.9,0.4-1.6,1-2.1,0.7c-1.1-0.6-2.4-0.7-3.4-1.4c-0.1-0.1-0.2-0.2-0.1-0.4c0.3-0.6,2-1.1,2.6-0.8
	c0.5,0.3,0.8,0.8,1.3,1.1C48.9,147.9,49.4,148.1,50.2,148.5z"/>
<path class="st8" d="M47,100.3c1.3,0.3,2.2,1.2,2.8,2.1c1.1,1.7,1.7,3.6,1.6,5.6c-0.7-1.5-1.4-3-2.2-4.5
	C48.7,102.4,47.8,101.4,47,100.3z"/>
<path class="st3" d="M74.3,147.9c-0.7,0-1.2-0.2-1.6-0.6c-0.2-0.3-0.5-0.6-0.4-0.9c0.2-0.5,0.6-0.1,0.9,0c0.5,0.1,1,0,1.5-0.2
	c0.4-0.2,0.8-0.6,1.2,0.1c0.3,0.6,0,1-0.4,1.4C75.2,147.8,74.7,147.9,74.3,147.9z"/>
<path class="st2" d="M90.1,144.1c-0.7-0.1-1.4-0.1-1.7-1c-0.1-0.4-0.5-0.9,0.2-1.2c0.5-0.2,1.1-0.5,1.6,0.2c0.2,0.2,0.4,0.4,0.5,0.6
	c0.2,0.4,1.1-0.1,0.9,0.6C91.5,144,90.7,144,90.1,144.1z"/>
<path class="st2" d="M95.2,144.7c0.7-0.2,1.4-0.5,1.9,0.2c0.3,0.3,0.8,0.6,0.4,1.2c-0.4,0.4-0.8,0.9-1.5,0.5
	c-0.2-0.1-0.5-0.2-0.7-0.4c-0.4-0.2-1,0.5-1.1-0.1C94,145.4,94.7,145.1,95.2,144.7z"/>
<path class="st3" d="M40.8,140.2c0.1,0.3,0.2,0.7,0.2,1c-0.4,1.1-1.1,1.7-2.3,1.6c-0.4,0-0.7-0.1-0.9-0.5c-0.2-0.5,0.2-0.7,0.5-0.9
	c0.8,0.1,1.5-0.1,1.9-1C40.4,140.4,40.6,140.1,40.8,140.2z"/>
<path class="st12" d="M88.4,150.4c-1.1,0.4-1.9,0.1-2.5-0.8c-0.2-0.3-0.5-0.7-0.2-1.1c0.3-0.4,0.7-0.5,1.2-0.5
	c0.4,0,0.8,0.2,0.8,0.7C87.7,149.3,88,149.9,88.4,150.4z"/>
<path class="st2" d="M63.5,154.5c-1.2,0.4-0.9-0.3-3.1,0.8c-0.5,0.1-0.9,0-1.2-0.4c-0.2-0.3,0-0.5,0.3-0.7c0.4-0.3,1-0.9,1.3-0.6
	C61.5,154.4,62.4,154.3,63.5,154.5z"/>
<path class="st1" d="M65.6,144.5c0.6,0,1,0.2,0.8,0.9c-0.2,0.6-0.4,1.1-1,1.4c-0.2,0.1-0.5,0.2-0.7,0c-0.2-0.2-0.1-0.4,0-0.5
	c0.1-0.2,0.2-0.5,0.1-0.7C64,144.4,65.2,144.8,65.6,144.5z"/>
<path class="st11" d="M45.7,19c-0.3,0.9-1.2,1.3-2,1.8c-0.4-0.2-0.7-0.6-0.6-1.1c0.1-0.6,0.7-0.3,1-0.4C44.6,19.2,45.1,18.8,45.7,19
	z"/>
<path class="st8" d="M56,140.3c-0.3,0.9-1.6,1.3-2.5,1.2c0.2-0.9,0.9-1.5,1.5-2.2C55,139.8,55.8,139.8,56,140.3z"/>
<path class="st8" d="M56.2,137.7c0.4-0.1,0.7-0.4,1.2,0c-0.7,0.5-1.3,1.1-2.1,1.4C55.6,138.6,55.9,138.1,56.2,137.7z"/>
<path class="st8" d="M55.3,139.1c-0.1,0.1-0.1,0.2-0.2,0.3C55.1,139.3,55.2,139.2,55.3,139.1z"/>
<path class="st8" d="M46.5,99.8c0.1,0.1,0.2,0.2,0.3,0.3C46.7,100,46.6,99.9,46.5,99.8z"/>
<path class="st8" d="M46.8,100c0.1,0.1,0.2,0.2,0.3,0.3C47,100.2,46.9,100.1,46.8,100z"/>
<path class="st4" d="M107.1,55.1c-0.4-1.1-0.9,0.6-1.7-0.2c-0.7-0.7-1.3-0.7-1.7-0.3c-0.4,0.3-1.1-0.2-1.6,0.3
	c0.1-1.5-1-1.1-1.9-0.8c-0.2,0.1-1-0.1-1.2,0c-0.5,0.2-0.9-0.9-1.2-1.3c-0.3-0.4,0-1.3,0.3-1.7c0.2-0.2,0.4-0.5,0.6-0.7
	c0.3-0.2-1-1.7-1.7-2c-0.4-0.2-0.8-0.2-1.1,0.1c-0.7-0.7-0.5-1.6-0.5-2.4c0-3.5,0-7.1,0-10.6c0-1.1-2-5.2-1.4-5.6
	c0.6-0.4,4,0,4.7,0.5c0.8,0.5,1.7,0.9,2.3,1.1c0.6,0.2,1.1,0.9,1.8,0.7c0.7-0.2,1.3,1.1,1.8,1.4c0.6,0.4-0.3,1.5-0.1,0.9
	c0.6,0,1.7-0.1,2.1,0.5c0.3,0.7-0.1,1-0.5,1.4c-0.5,0.5,2,0.3,2.1,0.8c0.1,0.7,0.6,1.2,0.2,2.1c-0.2,0.3,0,0.4,0.5,0.6
	c1,0.3,1.5,1,1.8,1.7c0.5,1.1,1,1.1,2,1.1c1.1,0,2.2,0.2,3.3,0.1c0.6,0,1.5,0.4,2,0.8c0.5,0.4,0.7,1.4,0.2,1.9
	c-0.6,0.5-0.9,1.1-1.6,1.4c-0.4,0.2-0.3,0.4,0,0.8c0.2,0.3-0.4,0.6-0.2,0.9c-0.1,0.6-0.2,1.1-0.2,1.7c-0.4,0.4-0.4,0.9-0.5,1.4
	c-0.2,1.8-1.2,2.7-3,2.9c-0.2,0-0.5,0-0.6,0.2c-0.5,0-1.1-0.1-1.4,0.4c-0.7,0.9-1.5,0.6-2.3,0.3C107.9,55.4,107.6,55.1,107.1,55.1z"
	/>
<path class="st6" d="M111.9,54.9c0.2-0.2,0.7-1.1,0.9-1.2c1.8-0.2,2-0.4,2.2-2.2c0.1-0.5,0.6-0.8,1-1.2c0.8,0.4,1.5,0.4,2.2-0.2
	c0.4,0.3,0.7-0.4,1.2-0.5c0.6,0,1.6,0.2,2.1,0.7c0.4,0.4,0.6,1,1.1,0.9c0.6-0.2,1.2-1,1.5-0.1c0,0.1,0.6,0.2,0.7,0.2
	c1.5-0.6,2.4,0.9,3.9,0.3c0.5-0.2,1.9-0.1,2.2,0.4c0.5,0.8,0.5,1.2,1.2,1.5c0,0.5-0.2,1-0.7,1.1c-0.8,0.2-1.5-0.2-1.9-0.8
	c-0.7-0.8-0.9-0.5-1.1,0.3c-0.3,1.5-0.3,3.1-0.1,4.6c0.4,2.4-0.1,4.9,0.5,7.4c0.2,0.8,0.4,1.4,0.9,1.9c0.4,0.3,0.8,0.6,1.3,0.9
	c0.4,0.3,1,0.4,1,0.9c-0.1,0.6-0.6,0.9-1.1,1.2c-0.5,0.2-1.1,0.3-1.2,1c-1-0.7-1.5-0.9-2.3-1.5c-0.8-0.7-2.2-1.9-2.3-2.8
	c-0.2-1.3-0.5-0.9-1-1.8c-0.2-0.5-0.6-0.5-0.8-0.4c-1.1,0.6-2.1,0.7-3-0.6c-0.5-0.7-1.5-0.1-2.1,0.2c-0.9,0.5-1.5-0.2-2.4-0.5
	c-0.5-2.2-0.9-3.1-1.3-5.3c-0.1-0.8-0.1-2-0.9-1.9C112.3,57.4,112.1,56.2,111.9,54.9z"/>
<path class="st4" d="M128.9,72.2c0.1-0.7,1.1-1.5,1.6-1.7c0.5-0.2,0.8-0.3,0.8-0.8c0.1-0.5-0.3-0.2-0.7-0.5
	c-0.4-0.3-1.2-0.6-1.6-0.9c-0.5-0.5-0.8-1.4-0.9-2.2c-0.6-2.5-0.3-5.1-0.6-7.6c-0.2-1.5,0.2-3.1,0.5-4.7c0.2-0.8,1-1.1,1.7-0.3
	c0.5,0.5,0.7,0.9,1.5,0.7c0.5-0.1,0.9-0.3,0.9-0.8c0.5,0.3,0.9,0.2,1.5,0c1.3-0.5,2.1,0.1,2.1,1.3c0,0.3,0.2,0.4,0.4,0.6
	c0.9,0.6,1.8,1.4,2,2.6c0,0.3,0.1,0.4,0.4,0.4c1.3,0.1,2.2,0.5,1.9,1.7c-0.2,0.6-0.2,1.2,0.2,1.8c0.8,1.4-0.1,3.3-1.2,4.4
	c-0.5,0.5-0.2,1.6-0.2,2.3c0,3.8-3.9,6.1-7.1,5.7C131.2,74.3,129.7,72.8,128.9,72.2z"/>
<path class="st2" d="M95.1,28c0,0.3,0.4,3.2,0.9,4.7c0.4,1-0.3,2.4,0,3.5c0.6,2.1,1,4.3,1.1,5c0.1,1.3-0.5,2.5-0.8,3.6
	c-0.3,1.3,0.7,2.6-0.2,4c-0.9,1.4-1.7-0.1-3.3,0.4c-1.2,0.4-2.5,1.1-4,1.2c-3.2,0-6.5-1.7-6.9-1.5c-0.7,0.3-1.3,0.2-1.7-0.3
	c-0.9-1.1-1.9-0.9-3-0.6c-0.7,0.2-1.8,0.7-2.6,0.6c0.1-0.3,0.1-0.8,0.2-1.1c0.1-0.5-0.1-0.7-0.6-0.6C73.4,47,73,46.6,72.6,46
	c-0.3-0.5-0.6-0.9-1.1-1.2c-0.6-0.4-0.7-1.4-0.8-2c-0.1-1.2,1-1.6,1.1-2.8c0.1-1,2.2-0.9,3.2-1.2c-0.1,0.2-0.1,0.4-0.2,0.5
	c-0.2,0.4-0.8,0.8-0.3,1.2c0.4,0.4,1.1,0.2,1.5-0.3c0.2-0.2,0.5-0.4,0.7-0.7c0.4-0.6,0.9-0.6,1.5-0.3c0,0.7,0.3,1,1,0.3
	c0.7-0.7,1.2-1.8,2.4-0.9c0,0,0.7-0.7,0.7-0.8c-0.1-1.1,1.3-0.4,0.7-2c0.2-0.3,0.5-0.6,0.4-1c0-1.7,1.4-2.5,2.1-3.7
	c0.2-0.3,1-0.2,1.2-0.1c0.5,0.6,0.4,0.1,0.8-0.3c1.4-1.3,2.8-1.9,4.6-1.8C92.5,29.2,94.7,27.9,95.1,28z"/>
<path class="st9" d="M84.8,78.7c1.5-2,3.6-3.4,5.6-4.8c2-1.3,3.8-2.6,4.5-5.1c0.2-0.6,0.8-0.8,1.3-1c2-0.8,4-1.5,6.1-2.2
	c0,1.3,0.4,2.4,1.2,3.7c0.1,0.1-0.1,0.8-0.2,1c-0.1,0.6-0.8,0.6-0.2,1.2c0.8,0.9,0.7,0.5,1.8-0.3c0.1-0.1,0.4,1,0.5,0.9
	c-0.4,1.5-1.1,2.8-2,4c-0.6,0.8-1.7,0.7-2.6,1c-0.4-0.5-1.1-1.5-1.3-1.4c-0.8,0.5-1.1-0.2-1.6-0.5C97.5,75,97,75,96.4,75.2
	c-1,0.4-1.7,1-2,2.1c-0.2,0.6-0.7,0.9-1.3,0.9c-0.5,0-0.8-0.3-0.9-0.8c-0.1-0.3-0.2-0.6-0.5-0.4c-0.6,0.3-1.4,0.6-1.4,1.5
	c0,1.3-1.2,1.2-1.6,0.9c-0.9-0.8-1.5-0.1-2.2,0.2C85.4,80,85.1,79.9,84.8,78.7z"/>
<path class="st9" d="M70.3,65.5c0.4-2.1,1.5-3.8,3.3-5.1c2.7-1.8,5.1-4,6.8-6.8c0.3,1.3,0.1,2.5-0.9,3.4c-0.6,0.5-0.5,0.9,0,1.3
	c-1.1,4.6-1.6,9.3-2.2,14c-0.2,1.4-0.4,2.8-0.5,4.1c-0.5-0.2-0.8-0.6-0.9-1.2c-0.2-0.9-1-1.1-1.7-0.5c-0.2,0.2-0.3,0.5-0.6,0.3
	c-0.8-0.5-1.6-0.9-2.1-1.8c-0.1-0.3-0.4-0.8,0-1c1.3-0.7,0.2-1.2-0.1-1.7c-0.3-0.5-0.8-1-0.4-1.6C72,67.7,71.4,66.6,70.3,65.5z"/>
<path class="st2" d="M111.9,54.9c0.2,1.3,0.9,1.9,2.3,1.7c0.8-0.1,1,0.4,1.1,1.2c0.4,2.2-0.1,4.5,0.4,6.7c0.1,0.7-0.4,1.1-1,1.1
	c-0.7,0-1.3,0.8-2-0.1c-0.8-1.1-2-1-3-0.4c-1,0.5-1.5,0.3-2.2-0.5c-0.6-0.7-1.9,0.3-2.7,0.5c-1.7,0.4-2-0.5-2-2.3
	c0-1.7-1.2-3.1-1.6-4.9c-0.2-0.9,3.1-2.8,3.4-2.6c1.3,0.2,1.8,1.6,2.4,0.2c0-0.1,0-0.2,0.1-0.4c0.4-0.1,0.8-0.9,1.1-0.7
	c0.8,0.3,1,1,1.6,0.2C110.2,54.1,111.4,54.9,111.9,54.9z"/>
<path class="st9" d="M94.3,62.9c0.4,4.2-1.9,6.8-5.2,8.9c-0.3,0.2-0.6,0.4-0.9,0.5c-0.7,0.3-1.6,0.8-2.2,0.1c-0.6-0.6-0.2-1.4,0.1-2
	c0.5-1.6,1-3.1,1.5-4.7c0.4-1.2,1.3-2,2.2-2.8c0.7-0.6,1.4-1.2,2-1.8c0.7,0.1,1.1,0.6,1.4,1.1C93.4,62.7,93.8,62.9,94.3,62.9z"/>
<path class="st9" d="M82.5,60.1c0.5,2.7,1.1,5.4,0.6,8.2c-0.4,2.3-1.5,4.2-3.1,5.8c-0.2,0.2-0.5,0.5-0.8,0.4
	C78.9,74.4,79,74,79,73.7c0-3.5,0.5-6.9,0.9-10.4c0.2-1.4,0.4-2.8,0.6-4.1c0.1,0.1,0.4,0.2,0.4,0.4C81.1,60.7,81.7,60.6,82.5,60.1z"
	/>
<path class="st9" d="M74.3,53.3c-0.1,0.4-0.2,0.9-0.2,1.3c-0.1,2.7-1.8,3.9-4,4.9c-1.1,0.5-1.6,0.3-2-0.8c-0.2-0.6-0.5-1.2-0.7-1.8
	c0.4-0.5,0.8-1,1-1.6c0.7-1.8,1.2-2.1,3.1-2c0.1,0,0.1,0,0.2,0c0.9,1,1-0.1,1.3-0.5C73.7,52.4,74.3,52.2,74.3,53.3z"/>
<path class="st9" d="M88.2,57.6c-0.4,2.2-1.4,4.2-2.5,6.2c-0.1,0.3-0.3,0.6-0.7,0.5c-0.4-0.1-0.4-0.5-0.5-0.8
	c-0.2-1.3-0.4-2.5-0.6-3.8c1.1,0,1.9-0.2,2.2-1.6C86.4,57.1,87.5,57.6,88.2,57.6z"/>
<path class="st9" d="M100.2,62.4c-0.1,0.2-0.2,0.4-0.2,0.7c-0.2,2.1-1.2,2.5-3.4,2.6c-0.5,0-0.6-0.2-0.5-0.7
	c0.1-0.6,0.2-1.2,0.3-1.7c0.6,0.3,1,0.4,1.3-0.5C98.3,61.2,98.9,61.1,100.2,62.4z"/>
<path class="st9" d="M78.8,53.1c-0.5,1.2-1.1,2-2.2,2.8c-0.8,0.5-1.2,0.3-1.3-0.7c-0.1-0.9,0.5-1.8,0.3-2.8
	C76.8,51.5,77.7,52.6,78.8,53.1z"/>
<path class="st9" d="M109,75.4c-0.7,0.6-2,0.5-2.8,0.6c-0.2,0-0.4-0.1-0.4-0.3c-0.3-1.3,1.1-2.9,2.5-3C107,73.9,108.1,74.7,109,75.4
	z"/>
<path class="st9" d="M91.6,59.1c-0.7,1-1.1,2.4-2.7,2.7c-0.1-1,0.5-1.7,0.5-2.6c0.5-0.1,1.1-0.2,1.6-0.3
	C91.2,58.8,91.5,58.8,91.6,59.1z"/>
<path class="st9" d="M108.3,72.2c-1.6,0.3-1.3-0.8-1.3-1.7c0.2-0.6,0.7-0.4,1.1-0.4c0.5,0.1,0.4,0.5,0.4,0.9
	C108.5,71.3,108.7,71.8,108.3,72.2z"/>
<path class="st2" d="M118.5,50.1c-0.7,0.6-2.4,1.2-3.2,0.8c0.1-0.6,0.6-2.4,0.7-3C116.8,48.1,117.8,49.7,118.5,50.1z"/>
<path class="st9" d="M102.1,64.6c-0.1,0-0.2,0.1-0.3,0.1c-1.3,0.4-1.4,0.4-1.1-1C100.9,64.3,101.8,64,102.1,64.6z"/>
<path class="st5" d="M106.7,28.1C106.7,28.1,106.7,28.2,106.7,28.1c-0.1,0-0.1,0-0.1-0.1C106.6,28.1,106.7,28,106.7,28.1
	C106.7,28.1,106.7,28.1,106.7,28.1z"/>
<path class="st9" d="M105.7,71.9c0,0.1-0.1,0.3-0.2,0.3C105.5,72.1,105.6,72,105.7,71.9z"/>
<path class="st12" d="M60.6,47.9c-0.6,0.5-1.1-0.3-1.7-0.5c0.3-0.7,1.1-1.3,0.1-2.3c-0.4-0.4-0.1-0.9,0.6-0.9c0,0,0.1,0,0.1,0.1
	c0,0-0.1,0-0.1-0.1c-0.3-1.1-1.2-1.6-2.2-1.8c-0.9-0.2-0.9-0.6-0.8-1.4c0.2-1.4,0.7-2.8,0.1-4.2c-0.2-0.5-0.3-1.1-1-1.1
	c-0.6,0-0.6,0.7-0.6,1.1c-0.2,1.1-0.2,2.2-1.7,2.1c0-0.5-0.3-0.9-0.2-1.4c1.7-5.9,3.3-11.8,4.9-17.8c0.2-0.6,0.4-0.8,1-0.8
	c0.5,0.5,1.1,0.3,1.6-0.3c0.8-0.9,1.1-2.1,2.8-2.3c1.3-0.1,2.9-0.3,4.1-1.5c0.3-0.3,1.4,0.1,2.1-0.4c-0.1,1.9-0.9,3.7-1.4,5.5
	c-1.5,5.6-6.8,18.2-4.8,16.8C65.5,35.6,61.2,47.5,60.6,47.9z"/>
<path class="st4" d="M59.1,19.1c-0.6,0-0.3,0.4-0.4,1c-1.6,5.9-3.3,11.6-4.9,17.5c-0.1,0.5-0.4,1-0.4,1.4c-0.7,1-1.4,2.1-2.2,3.1
	c-0.2,0.3-0.4,0.7-0.8,0.6c-1.5-0.3-2.2,0.1-2.6,1.4c-0.1,0.2-0.2,0.3-0.4,0.5c-0.8,1-2,1.3-3.2,1.4c-0.8,0-1.6,0-2.2,0.5
	C41.4,47,40.8,47,40.2,47c-0.1-1.9-1.3-4-0.7-5.8c0.6-1.8,2.5-4,3.1-5.8c0.1-0.4,0.6-0.2,1-0.4c0.6,0.2,0.6,0.1,0.9-0.9
	c0.1-0.4,0.9-0.4,1.3-0.4c1.4-0.1,1.8-0.3,1.2-1.6c-0.2-0.5,0-0.9,0.3-1.1c0.7-0.7,0.5-0.6-0.3-0.6c-1.1,0-1.4-0.9-1.3-1.9
	c0.1-1,0.8-1.8,1.8-1.6c1,0.1,1.7-1.1,1.3-2c-0.3-0.6,0.1-1.6,0.6-1.9c1.1-0.5,2.3-1.7,3.6-1.1c0.3,0.1,0.5,0.1,0.5-0.1
	c-0.1-1.1,0.9-0.9,1.5-1.3c0.8-0.5,1.8-0.7,2.2-1.7C57.5,17.7,58.2,18,59.1,19.1z"/>
<path class="st12" d="M48.1,53.7c0-0.7,0.6-1.2,1.2-0.9c0.5,0.3,1.1,0.4,1.6,0.7c0.5,0.3,0.5,1.4,0.9,0.1c0.1-0.4,0.8-0.5,1.1-0.3
	c0.4,0.3,0.3,1,1,1.2c-0.3-1-0.5-1.3-0.7-2.2c-0.1-0.3,0-0.9,0.4-1.1c0.3-0.1,0.8,0.2,1,0.4c0.3,0.3,0.7,0.7,1,1
	c0.7,0.7,0.9,0.7,1.6-0.2c0.7-0.9,2.5-0.5,3.1,0.2c-0.3,0-0.8,0.2-0.9,0.5c-1.2,4.2-2.3,8.4-3.5,12.5c-0.2,0.8-0.3,1.5,0.4,2
	c-0.2,0.2-0.5,0.4-0.7,0.6c-0.4,0.2-0.7,0.5-1.2,0.2c-0.5-0.3-0.3-0.7-0.3-1.1c0.1-0.4,0.1-0.9,0.1-1.3c-0.4-0.4-0.8-0.8-1.2-1.3
	c0-0.1,0-0.4,0.1-0.4c0.5-0.4,0.9-0.8,0.6-1.4c-0.3-0.6-1.1-0.4-1.6-0.2c-0.5,0.2-0.9,0.2-1.3-0.1c0.1-0.4,0.2-0.8,0.2-1.2
	c0-0.8-0.3-0.9-0.9-0.4c-0.9,0.1-1.9,0.1-2.8,0.2c-1.2-1.3-0.7-2.7-0.5-4C46.8,55.9,47.5,54.7,48.1,53.7z"/>
<path class="st9" d="M54.1,66c0,0.4,0.4,0.7,0.3,1.2c-0.1,0.4-0.2,0.5,0.3,0.8c0.5,0.3,0.3-0.1,0.7-0.3c0.3-0.2,0.5-0.2,0.8-0.4
	c0.4-0.1,1.1-0.6,1.3-0.1c0.1,0.2,0,0.7,0.3,0.5c0.4-0.2,0.2-1,0.2-1.4c-0.1-1.2,0.6-1,1.8-1.5c0.4,1.4,0.3,2.8,0.2,4.2
	c-0.4,0.2-0.9-0.4-1.2,0.2c-0.4,1-1.1,0.9-1.9,0.6c-1-0.4-1.7-0.2-2.3,0.7c-0.3,0.5-0.7,1-1.2,1.5c-0.8,0.8-1.5,0.5-1.7-0.7
	c-0.3-1.7-0.7-2-2.4-1.8c-0.4-1.5,0-2.3,1.4-2.8C51.9,66.1,53,66.1,54.1,66z"/>
<path class="st9" d="M66.1,57c1.3,3,1.6,6.1,0.7,9.2c-0.5-0.5-1-1.1-1.6-1.6c-1-0.9-1.9-0.6-2.3,0.7c-0.1,0.5-0.3,1-0.9,1.1
	c-0.1-0.8-0.3-1.5-0.4-2.3c0.9-0.6,1.4-1.5,1.2-2.6c-0.1-0.7,0.4-1,0.8-1.3c0.7-0.4,1-1,1-1.8C64.7,57.5,65.2,57.1,66.1,57z"/>
<path class="st0" d="M54.1,66c-1.1,0.1-2.2,0.2-3.3,0.5c-1.4,0.5-1.8,1.4-1.4,2.8c1.4,2.9,3.5,5.2,6.1,7c1,0.7,2,0.4,2.9-0.4
	c0,0.9,2.8,2.9,1.6,3c-0.6,0-3.3,3.5-3.8,3.3c-0.3-0.1-1.2-1.8-1.4-2c-0.5-0.3-1-1-1.3-0.6c-1.5-1.7-3-3.5-4.6-5.2
	c-0.8-1.3-1.7-2.5-2.1-4.1c-0.5-2-1.8-3.5-3.4-4.7c-0.1-0.6,0-1.1,0.6-1.3c0.8,0.9,1.6,1.8,2.3,2.8c0.6,0.9,0.9,0.6,1.2-0.2
	c0.8-2.1,1.5-4.2,2.6-6.1c0.6-0.4,0.9-0.3,0.9,0.4c0,0.4-0.1,0.8-0.2,1.2c-0.4,0.6-0.9,1.4-0.4,2.1c0.5,0.6,1.3,0.3,2,0.2
	c0.2,0,0.4-0.1,0.6-0.1C53.3,65.1,53.7,65.5,54.1,66z"/>
<path class="st9" d="M43.3,65.6c1.6,1.3,2.9,2.7,3.4,4.7c0.4,1.5,1.4,2.7,2.1,4.1c-1.2,1.7-1,2.1,0.8,3.1c0.9,0.5,1.3,1.2,0.8,2.1
	c-0.5,0.9-0.3,1.5,0.4,2.1c0.8,0.6,0.6,1.2-0.1,1.8c-0.8,0.7-1.7,1.1-2.6,1.3c-0.4,0.1-0.7,0.2-0.6,0.7c0.1,0.4,0.6,0.8-0.2,1
	c-0.5,0.2-1,0.8-1.6,0c-0.3-0.4-0.7-0.3-1-0.1c-1,0.3-1.7,0-2.2-0.8c0.7-0.9,2-1.4,2.5-2.6c0.5,0.2,1.7,0.2,1.7,1.2
	c0,0.4-0.2-0.3,0.2-0.4c0.9-0.3,1-0.7,0.9-1.7c-0.4-2.3-1.2-3.8-2.8-5.4c-0.2-0.2-0.3-0.9-0.2-1.2c0.1-0.3,0.8-0.2,1.1-0.3
	c0.2-0.1-0.2,0.2,0.1-0.2c-0.6-0.4-0.8-0.5-1.4-0.8c-0.9-0.5-1.4-1.3-0.9-2.3c0.2-0.6,0.2-0.8-0.6-1.2l0.7-0.4
	c-0.1-0.7-1.4-0.4-1.8-0.7c-0.8-0.6-1.2-2.6-0.5-3.4C41.8,65.6,43,66.1,43.3,65.6z"/>
<path class="st12" d="M44.1,71.7c-0.4,1-0.1,1.7,0.9,2.1c0.7,0.3,1.3,0.7,1.9,1.1c-0.3,0.4-0.6,0-0.8,0.1c-0.3,0.1-0.6,0.2-0.8,0.5
	c-0.1,0.3,0.2,0.5,0.3,0.7c1.6,1.6,2.5,3.6,2.9,5.9c0.2,1-0.5,2.2-1.4,2.5c-0.3,0.1-0.7,0.1-0.7-0.3c0.1-1-0.7-0.8-1.2-0.9
	c-0.5-0.1-1-0.2-1.4-0.3c-0.1-1.6-0.6-1.9-2-1.1c-0.6,0.3-0.8-0.2-1.1-0.3c-1.1-1.1-1.3-2.7-1-3.7c0.6-2.3,1.6-4.9,2.1-7.2
	c0.2-0.8,1.4-0.4,2.2-0.4c0,0,0,0,0,0C43.8,70.7,43.5,71.3,44.1,71.7z"/>
<path class="st9" d="M50,60.9c-1,2-1.7,4.1-2.6,6.1c-0.3,0.8-0.6,1.1-1.2,0.2c-0.7-1-1.5-1.9-2.3-2.8c0.1-0.4,0.2-1.1,0.5-1.2
	c0.5,0,0.6,0,0.7-0.5c0.1-1.1,1.2-1.7,2.1-2.1C48.2,60.6,49.1,60.9,50,60.9z"/>
<path class="st9" d="M40.6,81.5c0.4,0.1,0.7-0.1,1.3-0.4c1.5-0.8,1.8,0.2,1.9,1.8c-0.6,0.7-1.4,1.2-2.1,1.7c-1.1,0.8-1.3,0.7-2-0.5
	c-0.1-0.3-0.3-0.5-0.5-0.8C39.6,82.7,39.6,81.7,40.6,81.5z"/>
<path class="st8" d="M64.2,104.1c1-2.1,2.3-3.9,3.4-5.9c2.2-3.6,4.3-7.3,6.3-11.1c1.4-2.6,2.3-5.3,2.8-8.3c1.3-0.6,1.9,0.1,2,1.5
	c1.3-1.3,1.3-3,2.3-4.5c0.1,2.1-0.2,3.8-0.9,5.4c-0.7,1.7-1.2,3.8-2.1,5.4c-0.4,0.8-1.4,1.3-2.5,1.5c0.2-1.6,0.9-4.4,0.7-4.1
	c-2.8,5.9-6.5,11.5-9.8,17c-1.7,2.9-2.6,6.1-3,9.5c0,0.2-0.1,0.4-0.1,0.6c0,0.1-0.1,0.1-0.3,0.2c-0.2-1.4-0.9-2.6-1-4
	c1-0.2,1.7-1.2,1.8-2.9l0,0C64.1,104.5,64.1,104.3,64.2,104.1z"/>
<path class="st9" d="M111.5,80.1c-0.1,0-0.1,0.1-0.2,0.1C111.4,80.2,111.4,80.1,111.5,80.1L111.5,80.1z"/>
<path class="st5" d="M40.3,46.2c0.7,0,1.2-0.6,1.8-1c0.6-0.5,1.5-0.1,2.3-0.2c1.2,0,1.6,0,2.5-1c0.1-0.2,0.8-1.1,0.8-1.3
	c0.4-1.3,1.2-2.3,2.6-2.1c0.5,0.1,0.8,0,1-0.3c0.7-1,1.3-0.7,2-1.7c1.5,0.1,1.3-0.6,1.5-1.7c0.1-0.4,0.3-1.5,0.9-1.5
	c0.6,0,1.3,0.5,1.5,1c0.6,1.4,0.7,3.4,0.5,4.8c-0.1,0.8-0.8,0.8,0.1,1c1,0.2,1.5,1.1,1.8,2.2l0,0c-0.7,0-0.7,0.4-0.2,0.8
	c1,0.9-0.2,1.6-0.5,2.3c-0.8-0.3-1.5,0-2.3,0.1c-1.7,0.3-3.3,1.1-5.1,0.6c-0.8-0.2-1.5,0.2-2.1,0.6c-0.4,0.2-0.7,0.4-1.2-0.1
	c-0.6-0.6-1.4-0.2-2.1,0.3c-1.3,1-2.7,1.3-3.9,2.3c-0.1,0.1-0.9,0.3-1,0.2c-0.7-0.9-1-0.3-1.6,0c-0.9,0.4-1.9,1.2-2.9,1.4
	c-0.5,0.1-1.3-0.4-1.8-0.7c-0.2-0.6-0.3-1.1-0.5-1.7c-0.2-0.5-0.1-0.3-0.6,0c-1.7,1-3.5,0.2-4.8-1.4c1.2-0.6,3-2,4.3-1.4
	c1.4,0.7,2.9,1.4,4.2,1.1c0.1,0-1-1.1-1-1.1C36.5,45.9,39.3,46.4,40.3,46.2z"/>
<path class="st10" d="M29.6,49.1c1.3,1.6,2.4,1.8,4.1,0.8c0.5-0.3,0.7-0.2,0.8,0.3c0.2,0.6,1,1.4,0.7,1.8c-0.3,0.4-3.3,1.4-4.9,2.2
	c-3,1.4-5.9,2.8-8.8,4.2c-0.7,0.3-1.7,0-2.1,0.6c-0.3,0.5,0,1.5,0,2.2c-0.1,1.5-1.7,2.8-3.3,2.6c-0.9-0.1-1.8,0-2.7,0.5
	c-0.3,0.2-3.5,0.4-3.9,0c0.2-1.6-0.1-5,0.6-5.3c1.1-1,0.4-4,2.3-4c1.5,0,2.3-3.7,3.2-4.6c1.9-2,1.9,0.1,3.9-1.9
	c1.1-1.1,4.1-0.1,5.3-1.1c0.2,0.1,1.9,0.1,3.2,0.4C28.9,48,29.5,49,29.6,49.1z"/>
<path class="st10" d="M82.9,35.9c0.6,1.6,0.3,2.6-1.2,3.2c-0.1,0-0.2,0.1-0.2,0.1c-1.2-0.9-1.6,0-2.4,0.8c-0.7,0.7-1,0.1-1-0.7
	c0-0.3-3.7,2.5-4.1,1.8c-0.2-0.3,0.2-1,0.3-1.4c0.1-0.4,0.7-0.7,0.7-0.8c0-0.3,0.1-2.5,1-3.2c0.5-0.4,1.9,0.2,1.9,0
	c0.4-0.2,0.8-0.1,1-0.6c0.2-1.1,0.9-1.3,1.8-0.6c0.4,0.3,0.8,0.7,1.1,1.1C82.1,35.7,82.4,36,82.9,35.9z"/>
<path class="st2" d="M75.2,38.6c-0.1,0.1-0.2,0.2-0.3,0.2C75.1,38.7,75.1,38.7,75.2,38.6z"/>
<path class="st2" d="M14.7,72.1c0.6,0.4,0.6,0.5,1.1-0.4c0.4-0.7,2-0.2,2.1,0.3c0.1,1.3,0.2,1.7,1.2,1.6c0.5,0,1.1-0.6,1.6-0.6
	c0.2,0,1.4,0.6,1.5,0.8c1.5,1.7,1.6,3.7,1.9,5.9c0.1,0.6-0.5,1.1-0.5,1.8c-0.1,0-0.6-0.2-0.7-0.2c-0.3-0.4-0.8-0.3-1.1-0.6
	c-0.3-0.3-0.6,0.1-1,0.3C19.8,81.4,19,80.2,19,79c0-1.7,0.5-1-1-0.2c-0.6,0.3-0.9-0.3-0.8-1.1c0-0.8-0.3-1-1.1-1
	c-0.8,0.1-0.9,0.4-0.8,1.1c0.2,1-0.7,0.4-1,0.6c0.5-1.5-0.6-3.1-0.5-4.6C13.8,73.2,14.2,72.6,14.7,72.1z"/>
<path class="st10" d="M14.8,72.1c-0.5,0.5-0.2,1.2-0.3,1.7c-0.1,1.5,0.3,3.3-0.2,4.8c-1-0.4-1.5-0.4-1.1,0.8
	c0.2,0.7-0.3,0.8-0.7,0.7c-0.7-0.2-1.3-0.5-1.7-1.1c-0.4-0.6-0.9-1.2-1.7-0.3c-0.4,0.4-0.7,0.1-0.8-1.2l0,0c0.1-0.1,0.2-0.2,0.2-0.2
	c0.7-0.8,0.4-1.9,0.5-2.8c0-0.6,0-1.2,0-1.8c0.3-0.2,0.7-0.6,1-0.8c0.6-0.5,1.2-1,1.6,0.2c0.2,0.7,0.7,0.7,1.2,0
	C13.6,70.9,14.2,71.2,14.8,72.1z"/>
<path class="st8" d="M66.3,137.4c0,0,0.1,0,0.1,0.1C66.4,137.5,66.4,137.5,66.3,137.4L66.3,137.4z"/>
<path class="st8" d="M53.4,79.6c0.3-0.3,0.6-0.6,1.1-0.3c0.3,0.2,0.6,0.3,0.8,0.4c0.5,0.2,1,0.9,1.6,0.4c0.5-0.4,0-1-0.1-1.5
	c-0.1-0.4-0.2-0.9,0.4-0.9c1.2-0.1,1.2-0.9,1.2-1.8c1.3-2,1.5-4.3,1.8-6.6c0.5,0,0.6,0.2,0.6,0.7c0,1.6,0.3,3.1,0.3,4.7
	c-0.1,1.2,0.3,1.4,1.3,0.7c0.3-0.2,0.6-0.4,0.8-0.7c0.2-0.2,0.5-0.4,0.9-0.8c0,2.4,0.4,5-1,7.1c-0.3-0.7-0.3-1.5-0.2-2
	c0.2-0.7,0.4-1.4,0.4-2.2c0-0.3-0.3-0.4-0.6-0.5c-0.5-0.1-0.4,0.2-0.4,0.4c-0.3,3.7-2.4,6.7-4.3,9.7c-0.7,1-1.1,2.2-1.1,3.6
	c0.7-0.3,0.9-0.9,1.2-1.4c0.5-1.1,1.1-2.1,1.8-3.1c0.1-0.2,0.3-0.5,0.7-0.4c0.3,0.2,0.2,0.5,0.1,0.7c-0.3,1.3-0.7,2.4-1.8,3.3
	c-1.2,1-1.5,2.6-1.9,4c-0.1,0.2-0.1,0.4,0.1,0.5c0.2,0.1,0.4-0.1,0.5-0.2c0.5-0.4,0.8-0.9,1.4-1.2c0.5-0.3,0.8-0.2,0.9,0.5
	c0.1,2.2-0.1,4.3-0.3,6.4c-0.1,0.6-0.2,1.2-0.4,1.7c0-0.8-0.1-1.6,0-2.4c0.1-1.3-0.3-2.6-0.3-3.9c0-0.4,0.1-0.8-0.4-0.9
	c-0.5-0.1-0.7,0.3-0.9,0.7c-0.8,1.7-0.8,3.5-0.6,5.3c0.2,2,1,3.9,1.4,5.9c0.1,0.6-0.3,1.7,0.4,1.8c0.8,0.1,0.1-1.2,0.4-1.8
	c0.2-0.5-0.3-1.2,0.4-1.5c0.5-0.2,1-0.4,0.9-0.7c-0.2-0.8-0.1-2.1,0.2-3.3c1.4,1.9,1.4,4.5,1.6,6.4c-0.9-0.2-0.7,0.6-0.8,1
	c-0.4,0.9,0.1,1.7-0.8,1.5c-0.4-0.1-0.5,0.6-0.6,0.8c-0.3,0.5-0.5,0.6-1.2,0.6c-0.8,0-0.8-1-1-1.6c-1.1-2.9-1.6-6-1.8-9.1
	c-0.1-1.4-0.2-2.8-0.2-4.2c0-0.3,0-0.6-0.4-0.8c-0.7,2.9,0.3,5.9-0.3,8.7c-1-5.5-1.3-10.9,0.2-16.7c-1.2,0.8-1.3,1.8-1.8,2.8
	c-0.5,1-0.9,1.9-1.5,2.8c-0.2-0.7,0-1.4,0.3-2c0.9-1.7,1.8-3.5,2.7-5.2c0.3-0.6,0.6-1.2,0-1.9C55.2,82,54.2,80.8,53.4,79.6z"/>
<path class="st8" d="M47.4,98.6c0,0,0.1,0.1,0.1,0.1C47.4,98.6,47.4,98.6,47.4,98.6L47.4,98.6z"/>
<path class="st8" d="M53.6,112.5"/>
<path class="st6" d="M8.5,77.2c-0.1,0.1-0.2,0.2-0.2,0.2C8.3,77.4,8.4,77.3,8.5,77.2z"/>
<path class="st5" d="M59.6,44.3c0,0,0.1,0,0.1,0.1C59.7,44.4,59.6,44.3,59.6,44.3L59.6,44.3z"/>
<path class="st9" d="M52.9,64.7c-0.2,0-0.4,0.1-0.6,0.1c-0.7,0.1-1.5,0.4-2-0.2c-0.5-0.7,0-1.4,0.4-2.1c0.4,0.3,0.8-0.4,1.3-0.5
	c0.5-0.2,2.1-0.1,2.4,0.4c0.3,0.5-0.3,1.4-0.7,1.8C53.6,64.4,52.9,64.5,52.9,64.7z"/>
<path class="st4" d="M44.1,71.7c-0.5-0.4-0.2-1-0.3-1.5C44.6,70.6,44.3,71.2,44.1,71.7z"/>
</svg>
