<?xml version="1.0" encoding="utf-8"?>
<!-- Generator: Adobe Illustrator 19.0.0, SVG Export Plug-In . SVG Version: 6.00 Build 0)  -->
<svg version="1.1" id="Capa_1" xmlns="http://www.w3.org/2000/svg" xmlns:xlink="http://www.w3.org/1999/xlink" x="0px" y="0px"
	 viewBox="-168 398.5 257.7 48.4" style="enable-background:new -168 398.5 257.7 48.4;" xml:space="preserve">
<style type="text/css">
	.st0{fill:#C0D61B;}
	.st1{fill:#9FC015;}
	.st2{fill:#B3C716;}
	.st3{fill:#FEFEFE;}
	.st4{fill:#6D8802;}
	.st5{fill:#678004;}
	.st6{fill:#8FAE12;}
	.st7{fill:#97AF02;}
	.st8{fill:#A9AAA7;}
	.st9{fill:#B4D237;}
	.st10{fill:#8FA901;}
	.st11{fill:#546702;}
	.st12{fill:#9AB202;}
	.st13{fill:#7A9803;}
</style>
<polygon class="st0" points="-148,444.6 78,446 80.3,438.3 82.1,431.8 76.5,425 75.4,418.7 67.3,411.3 13,414.5 -3.5,413 
	-34.3,411.2 -33.5,420.2 -49.3,424.1 -69.3,422.6 -76.1,415.9 -94.1,415.9 -103.8,412.9 -114.2,408.2 -130.5,415.5 -145.4,417.4 
	-155.2,423.4 -161.5,427.6 -155.2,436.7 "/>
<g>
	<path class="st1" d="M-147.9,412.3c0.2-1.1,5.1,1.1,6,0.4c0.9-0.8,2.8,0.1,3.7,0.8c0.7,0.5,5.3-1.6,7.2-1.2
		c-0.1,0.8,4.7-0.8,3.7-1.2c-0.2-0.1-0.8,0.1-0.7-0.4c0-0.3,0.2-0.7,0.5-1c0.7-0.7,1.5-0.7,2.3-0.4c1,0.4,2.2,0.8,2.9,1.8
		c0.6,0.8,0.9,0.3,1.3-0.1c1.7-2.7,3.6-2.7,5.6,0c0.3,0.4,1.7,0.3,2.1-0.4c1.6-2.9,4.7-2.5,6.6-0.3c0.5,0.4,0.6,1.1,0.1,1.6
		c-0.6,0.7-0.7-0.3-0.9-0.5c-0.6-0.5,6.4,4.1,6.4,5.9c-0.3,0.1,46-1.1,45.9-0.5c-1,2.2-1.5,19.3-3.4,20c-0.2,0.1-73.8,4.2-74.8,4.3
		c-0.6-0.3-10.1-6-10.3-6.5c-0.1-0.4-8-0.4-8.9,1.2c-0.7,0.7-8.8-4.3-9.2-4.7c-0.8-0.7,1.5-6.2,0.5-6.2c-0.7,0.1,8.3-4.9,7.8-5.9
		c-1.3-2.2,5-3.2,3-3c-0.1,0,1.1-0.7,1.1-0.7C-149.6,414.6-147.8,412.3-147.9,412.3z"/>
	<path class="st1" d="M-162.9,425.6c1.6-1.3,3.3-1.5,5.2-0.9c1,0.3,0.9-0.6,0.9-1.1c0.3-2,2.8-3.5,4.5-3c0.5,0.2,0.8,0.3,0.6,1
		c-0.2,0.6-0.6,1.2,0,2c0.8-2.2,2.1-4,4.4-4.8c-1-0.4-1.9-0.1-2.8,0.3c-0.2,0.1-0.5,0.3-0.8,0.1s-0.2-0.6-0.1-0.9
		c0.3-1.3,1.3-2.2,2.6-2.3c0.5,0,0.8-0.1,1-0.7c0.6-2.2,2.8-3,4.7-1.7c0.1,0,0.1,0.1,0.2,0.1c0.3,0.2,0.8,0.4,0.8,0.8
		c0,0.5-0.6,0.4-0.9,0.6c-0.2,0.1-0.3,0.2-0.6,0.4c0.8,0.3,1.4,0.5,2.1,0.5c0.6,0,1.2,0.1,1.5,0.7c-0.2,0.3-0.3,0.6-0.2,0.9
		c-0.3,0.5-0.6,1-1,1.4c-0.5,0-0.5,0.4-0.5,0.7c-1.5,0-2.6,0.6-3.3,2c-0.3,0.6-0.5,1-1.4,0.6s-1.8,0.1-2.5,0.8
		c-0.8,0.8-0.5,2.3-1.4,2.7s-2.2,0.2-3.2,0.6c-1.4,0.5-2.6,1.3-4.2,1.3c-1.7-0.1-2,0.2-2.5,1.8c-0.2,0.8-1.1,1.2-1.8,0.7
		c-0.3-0.2-1.6-0.5-0.5-1.4c0.3-0.3-0.1-0.5-0.4-0.6C-163.2,427.5-163.1,426.5-162.9,425.6z"/>
	<path class="st0" d="M-5.7,411.2L-5.7,411.2L-5.7,411.2z"/>
	<path class="st1" d="M-63.1,417.9c-1.4-0.2-2.5,0.6-3.8,0.9c-0.1,0-0.4,0.1-0.4,0.3c-0.3,1.5-1.4,0.9-2.4,1
		c-1.3,0.2-2.6,0.6-3.6,1.6c-1.8-1.5-1.4-3.5,0.9-4.5c1.3-0.6,2.8-0.9,4.2-0.3c0.6,0.3,0.6-0.1,0.7-0.5c0.7-2,3-2.9,4.6-1.9
		c0.3,0.2,0.5,0.4,0.7,0.6c0.3,0.5,0.4,1.2,0.1,1.7s-0.8-0.1-1.2-0.1c-0.3-0.1-0.7-0.1-1.3-0.2C-63.9,417.2-63.3,417.4-63.1,417.9z"
		/>
	<g>
		<path class="st1" d="M-75.8,418.6c-0.6-1.7-2.4-2.7-4-2.8c-1-0.1-1.9,1.1-2.6,0.8c-0.8-0.3-1.3-1.4-2.2-1.9
			c-1.1-0.6-2.5-0.4-3.2,0.4c-0.2,0.2-0.5,0.5-0.4,0.8s0.5,0.2,0.8,0.2c0.6,0,1.1,0,1.7,0.1c0.4,0.1,1.2-0.1,1.1,0.6
			c-0.1,0.5-0.8,0.2-1.1,0.3c-0.2,0-0.4,0.1-0.6,0.1c-1.3,0-2.2,1-3.4,1.1c0,0.4,0,0.7-0.5,0.7c-0.1,0.6,0.4,1.1,0,1.7
			c-0.1,0.2-0.3,0.4,0,0.6c0.2,0.1,0.5,0.1,0.7-0.1c0.3-1.4,1.6-2.4,3.2-2.4c0.7,0,1.6-0.3,2,0.7c0.2,0,0.3,0,0.5,0
			c0.7,0,1.6,0.4,2.1,0.1c1.2-0.7,2.4-0.5,3.7-0.5c0.6,0.2,1.2,0.3,1.9,0.2C-75.7,419.1-75.6,419-75.8,418.6z"/>
		<path class="st1" d="M-89.7,418.2L-89.7,418.2L-89.7,418.2z"/>
		<path class="st1" d="M-89.9,417.4c0.2-1.2-0.6-1.8-1.8-1.3c-0.3,0.1-0.6,0.4-1,0.4c-1.1-0.2-1.8,0.5-2.5,1.3
			c0.9-0.1,1.3,0.7,2.1,0.8c0.9,0,1.8-0.1,2.6,0.2c0.2-0.3,0.2-0.7,0.7-0.7C-89.8,417.9-90,417.7-89.9,417.4z"/>
	</g>
	<path class="st1" d="M-55.4,422c-1.5,0.5-1.9-1.2-3-1.5c-0.1,0-0.2-0.2-0.3-0.2c-1.1,0.1-1.5-0.8-2-1.4c0.3-1.3,1.2-0.6,1.9-0.6
		c0.5,0,0.9,0.4,1.1,0.8C-57,420.2-56.2,421.1-55.4,422z"/>
	<path class="st1" d="M-98.1,417.7c0.1-1.2-0.7-1.6-1.7-1.7s-2.1,0.2-3.1,0.2c1.5-2,4.9-1.6,5.8,0.8
		C-96.7,418.1-97.7,417.5-98.1,417.7z"/>
	<path class="st1" d="M36.4,416.1c-0.4,0-1.3,0.4-1.2-0.1c0.1-1.1-0.6-1.9-1.4-2c-0.9-0.1-1.8,0.5-2.7,0.8c-0.3,0.1-0.7,0.4-0.8-0.2
		c-0.6-0.1-1.3,0.2-1.9-0.2c-1.5-0.5-2.4-0.3-3.1,0.7c-0.4,0.5-0.2,0.9,0.2,1.4s1.1,0.9,1.1,1.6c0,0.3,0.2,0.6-0.1,0.7
		c-0.3,0.1-0.4-0.1-0.6-0.3c-1.2-1.4-2.8-2.2-4.5-2.6c0-0.2,0-0.3,0-0.4c-0.2,0-0.2-0.1,0-0.2c0.7,0,1.4-0.1,2.1-0.2
		c0.3,0,0.6-0.1,0.3-0.5c-0.7-0.8-1.6-1.4-2.7-1.6c-1.2-0.2-2.8-0.1-3.2,1c-0.4,1-0.4,1.1-1.1,0.8c-1.4-0.6-2.6-0.2-3.7,0.7
		c-0.9,0.7-1.6,1.3-0.6,1.8c0.7,0.3,2,0.5,2.1,1.6c0.7,0.2,1.7-0.2,2.2-0.4c1.2,0.1,1.6,1.8,3,0.5c0.1,0,0.3,0,0.4-0.1
		c0-0.1,0-0.3,0-0.4c1.2-0.4,2.2-0.3,3.4,0.6c0.9,0.6,1.7,1.7,1.4,2.8c-0.3,0.9-0.7,1.1-1.9,0.5c-0.3-0.1-0.6-0.5-0.8-0.2
		c-0.2,0.4,0.3,0.5,0.5,0.7c0.6,0.9,1.2,1.8,2.3,1.6c1.5-0.3,3.3,0.1,4.8,0.7c0.4,0.2,1.8-0.2,2.1-0.6c0.2-0.4-0.8-1-1.1-1.4
		l-0.1-0.1c-0.2-0.6-0.6-0.6,0-1.6c0.8-1.3,0.7-2.1,2.5-1.9c0.7,0.1,2.4-0.5,2.8-1.1c0.5-0.7,0.1-0.8,0.7-1.1
		C36.5,417.1,36.8,416.2,36.4,416.1z"/>
	<path class="st1" d="M-94.1,419.1c-0.5,0-1.2,1.2-1.5-0.3C-94.9,418.5-94.5,418.9-94.1,419.1z"/>
	<path class="st2" d="M-139.2,416.8c-0.1,0.4-0.2,0.9-0.7,0.9c0-0.3,0.1-0.7,0.2-0.9C-139.5,416.8-139.4,416.8-139.2,416.8z"/>
	<path class="st1" d="M-41.7,420.8c-0.1,0.1-0.2,0.2-0.3,0.2C-41.9,421-41.8,420.9-41.7,420.8z"/>
	<path class="st0" d="M20.7,415.3c-0.2-0.1-0.2-0.2,0-0.2C20.7,415.1,20.7,415.2,20.7,415.3z"/>
	<path class="st3" d="M-69.3,412.9L-69.3,412.9C-69.3,413-69.3,413-69.3,412.9C-69.4,412.9-69.3,412.9-69.3,412.9z"/>
	<path class="st3" d="M75.6,414.3L75.6,414.3C75.4,414.3,75.5,414.4,75.6,414.3L75.6,414.3z"/>
	<path class="st4" d="M-124.8,433.1L-124.8,433.1L-124.8,433.1z"/>
	<path class="st5" d="M-157.4,435.2c-0.3-0.5-0.5-1.1,0.2-1.5C-157.2,434.2-157,434.8-157.4,435.2z"/>
	<path class="st5" d="M-157.2,433.3c0-0.3,0.2-0.5,0.5-0.5C-156.7,433.1-156.9,433.3-157.2,433.3z"/>
	<path class="st4" d="M-118.1,444.1c0.1-0.1,0.2-0.1,0.3-0.2C-117.9,444-118,444-118.1,444.1z"/>
	<path class="st4" d="M-118.6,444.3c0.1-0.1,0.2-0.1,0.3-0.2C-118.4,444.2-118.5,444.3-118.6,444.3z"/>
	<path class="st2" d="M-136.8,432.3L-136.8,432.3L-136.8,432.3z"/>
	<path class="st0" d="M77.6,414.2c-0.7,0.1-1.3,0.3-2,0.1c0.1-0.3,0.1-0.6,0.2-0.9c0.4-1.8-0.5-2.8-2.3-2.9c-1,0-1.8,0.5-2.6,1.1
		c-0.5,0.4-0.9,0.7-1.1-0.3c-0.1-0.6-0.5-1.3-1.1-1.4c-1.2-0.2-2.4-0.3-2-2c0-0.1-0.2-0.3-0.3-0.4c-1-1.4-2.3-1.3-3.6-0.8
		c-0.8,0.3-1.2,0.2-1-0.9c0.3-1.7-0.8-3.1-2.5-3.5c-1.4-0.3-2.6,0-3.9,0.5c-1.6,0.6-3.3,3.4-2.8,5.3c0.2,0.7,0,1-0.8,0.8
		c-0.6-0.2-1.1,0-1.6,0.2c-0.8,0.3-1.5,0.4-2-0.6c-0.2-0.3-0.5-0.6-0.9-0.8c-0.8-0.3-1-0.8-1-1.7c0.1-0.7-0.1-1.5-0.9-1.6
		c-1.3,0-2.7-0.4-4,0.3c-0.5,0.3-1,0.4-1.2-0.4c-0.3-0.9-0.8-1.8-1.8-1.8s-1.9,0.7-2.3,1.7c-0.3,0.6-0.7,0.7-1.2,0.5
		c-0.8-0.3-1.6-0.4-2.5-0.1c-2.3,0.9-3.9,2.4-3.6,5.3c0,0.3,0.2,0.7-0.2,0.9s-0.6-0.2-0.8-0.5c-1.2-1.6-2.1-1.8-3.8-0.6
		c-0.6,0.4-0.7,0.2-1-0.3c-0.6-1.2-1.9-1.8-3.3-1.6c-1.9,0.3-3.1,1.2-3.2,3.2c-0.1,0.9-0.4,1.2-1.4,0.9c-1.1-0.3-2.2-0.3-3.2,0.3
		c-0.3,0.2-0.6,0.3-1,0.1c0-0.1,0-0.3,0-0.4c0-2.3-0.7-2.9-2.9-2.6c-0.2,0-0.4,0.1-0.5-0.2c-1.3-1.9-3-1.4-4.7-0.8
		c-0.7,0.2-1,0.1-1.3-0.6C1,406.5,0.1,406-1.2,406c-1.2,0-2.3,0.3-3.2,1.1c-0.3,0.3-0.7,0.6-1.1,0c-0.8-1.3-2-1.3-3.3-1.1
		c-0.6,0.1-1.2,0.3-1.8,0.5c-0.6,0.3-0.8,0.1-0.9-0.5c-0.5-2.5-3.9-4.1-6.1-2.9c-0.9,0.5-1.7,1.2-2.5,1.7c-0.5,0.3-0.8,0.8-0.7,1.4
		c0,0.8-0.3,1.2-1.2,1.2s-1.8,0.4-2,1.1c-0.3,1.2-1.1,1.1-2,1c-0.7,0-1.4,0-2.2,0c-0.3,0-0.5,0-0.5-0.4c0-1.1-0.8-1.3-1.7-1.3
		c-0.8,0-1.7,0-2.5,0.1c-2.4,0.2-4,1.9-3.8,4.3c0,0.6-0.1,0.9-0.8,0.8c-0.6-0.1-1.2,0-1.7,0.3c-1,0.5-1,2-1.9,2.3
		c-1,0.3-2.1,0.2-2.9,0.9c0,0-0.1,0-0.1,0.1c-0.5,0.4-1,0.6-1.7,0.1c-1-0.7-1.9-0.4-2.6,0.5c-0.7,0.8-0.9,1.8-1,2.9
		c0,0.7-0.1,1.5-0.5,2s-0.9-0.2-1.5-0.1c-0.4,0.1-0.7,0-1.1,0.1c-0.8,0.2-1.2-0.1-1.2-1c0-0.2-0.1-0.5-0.2-0.7
		c-0.3-0.6-0.3-1.1,0.4-1.3c0.5-0.1,0.6-0.6,0.7-1c0.3-1.7-1.1-3-3-2.7c-0.8,0.1-1.8,0.5-1.8-0.9c0-0.3-0.4-0.5-0.6-0.7
		c-0.7-0.6-1.6-0.5-2.4-0.6c-0.5,0-0.8-0.2-0.4-0.7c0.5-0.7,0.1-1.1-0.3-1.6c-1.8-1.8-5.1-1.9-7.1-0.1c-0.6,0.5-1,1.1-0.9,1.9
		l0.1,0.1c-0.1,0-0.1-0.1-0.2-0.1c-2.1-0.3-3.9,0.3-5.5,1.6c-0.6,0.5-1,0.4-1.6-0.2c-0.7-0.7-1.6-1.3-2.7-0.8
		c-0.9,0.4-1.2,0.1-1.5-0.8c-0.5-1.7-2.6-2.4-3.9-1.2c-0.5,0.5-1,0.5-1.5,0.3c-2.4-0.8-3.2-0.4-4.2,2c-0.2,0.4-0.3,0.6-0.8,0.5
		c-1.3-0.2-2.7-0.3-4.1,0.2c1.1-2.1,0.7-3.5-1-4c-1.2-0.4-2.3,0.1-3.2,0.9c-0.7,0.6-1.1,0.7-1.4-0.3c-0.3-1.1-1.1-1.5-2.1-1.6
		c-0.6,0-0.9-0.2-0.8-0.8c0.1-0.8-0.3-1.2-0.8-1.7c-1-1-2.1-0.8-3.3-0.3c-1.2,0.5-1.4,0.3-1.3-0.9c0.1-0.9-0.1-1.3-1.1-1.3
		c-1.6,0.1-3.2,0-4.8,0c-1.9,0-3.1,0.9-3,2.8c0,1.3-0.5,1.7-1.6,1.9c-0.4,0.1-0.7,0.2-1,0.3c-0.8,0.4-1.2,0.1-1.5-0.7
		c-0.4-1.1-1.7-1.6-2.7-1.1c-0.6,0.3-1.1,0.7-1.6,1.2c-0.4,0.4-0.7,0.5-1.3,0.3c-2.3-1-4.2-0.2-5.1,2.2c-0.3,0.9-0.4,1.2-1.1,0.2
		c-1-1.4-3.3-1.6-3.9-0.3c-0.7,1.5-1,0.7-1.7,0c-1.1-1.2-2.3-1.6-3.2-0.9c-0.8,0.6-1,0.2-1.4-0.5c-1.9-3.5-5-3.1-7.2-0.5
		c-1,1.1-1.6,2.6-0.4,4.2c0.4,0.5,0.1,0.8-0.4,1c-1.8,0.6-1.9,0.8-1.7,2.7c0.1,0.5,0,0.7-0.6,0.7c-2.4,0.1-3.8,1.6-3.7,4
		c0,0.7-0.2,0.8-0.8,0.7c-2.1-0.2-3.5,0.8-3.9,2.9c1.6-1.3,3.3-1.5,5.2-0.9c1,0.3,0.9-0.6,0.9-1.1c0.3-2,2.8-3.5,4.5-3
		c0.5,0.2,0.8,0.3,0.6,1c-0.2,0.6-0.6,1.2,0,2c0.8-2.2,2.1-4,4.4-4.8c-1-0.4-1.9-0.1-2.8,0.3c-0.2,0.1-0.5,0.3-0.8,0.1
		s-0.2-0.6-0.1-0.9c0.3-1.3,1.3-2.2,2.6-2.3c0.5,0,0.8-0.1,1-0.7c0.6-2.2,2.8-3,4.7-1.7c0.1,0,0.1,0.1,0.2,0.1
		c0.3,0.2,0.8,0.4,0.8,0.8c0,0.5-0.6,0.4-0.9,0.6c-0.2,0.1-0.3,0.2-0.6,0.4c0.8,0.3,1.4,0.5,2.1,0.5c0.6,0,1.2,0.1,1.5,0.7
		c0.2,0,0.3,0,0.5,0c0.1,0,0.2,0,0.3,0c-0.3-0.8-0.2-1.6,0.5-2.1c0.8-0.6,1.6-0.5,2.4,0c0.6,0.4,1.4,0.6,1.9,1.2
		c0.4,0.5,0.6,0.1,0.9-0.3c0.8-1.1,1.8-2.1,3.4-1.8c-0.1,0.6-0.6,0.7-0.8,1.2c-0.1,0.3-0.3,0.5-0.1,0.8c0.3,0.3,0.5,0,0.7-0.1
		c1.8-1.1,3.7-1.8,5.9-1.2c0.2,0,0.4,0.1,0.5-0.1c0.1-0.3-0.1-0.4-0.3-0.6c-0.8-0.7-1.8-0.6-2.7-0.9c-0.2-0.1-0.7,0.1-0.6-0.3
		c0-0.2,0.2-0.5,0.4-0.7c0.6-0.5,1.3-0.5,2-0.3c0.9,0.3,1.9,0.6,2.5,1.3c0.5,0.6,0.8,0.2,1.1-0.1c1.5-2,3.1-2,4.8,0
		c0.3,0.3,0.5,0.7,0.9,1.1c0.3-0.5,0.6-0.9,0.9-1.4c1.4-2.1,4.1-1.8,5.7-0.2c0.4,0.3,0.5,0.8,0.1,1.2c-0.5,0.5-0.6-0.2-0.8-0.4
		c-0.5-0.4-1.1-0.6-1.8-0.7c0.3,1.2,1.4,2,1.4,3.3c-0.3,0.1-0.6,0.2-0.7,0.6c-0.9,1.6-0.9,1.6-2.5,2.1c-0.2,0.1-0.4,0.2-0.5,0.2
		c0,0,0,0,0,0.1c-0.1,0-0.3-0.1-0.3-0.2c-0.8,0-1.6-0.7-2.5-0.2c-0.5,0.2-0.8,0.5-0.8,1s0.2,0.8,0.7,1c0.8,0.3,1.2,0.8,1.7,1.4
		c0.1,0.2,0.3,0.3,0.1,0.5c-0.2,0.2-0.4,0.1-0.5,0c-1.5-1.4-3.3-1.5-5.5-1c1.1-1,2.2-1.5,2.6-2.7c-0.7,0.1-1.2-0.4-1.8-0.5
		c-1.1-0.1-2.1,0.2-3,0.7c0,0.7-0.9,0.9-0.9,1.6c0,0.3-0.4,0.4-0.6,0c-0.1-0.3-0.2-0.5-0.5-0.6c0,0.3-0.2,0.4-0.6,0.5
		c-1.2,0.3-1.6,1.4-0.8,2.3c0.5,0.7,1.1,1.3,1.6,1.9c0.2,0.2,0.3,0.4,0.1,0.6c-0.2,0.2-0.5,0-0.6-0.2c-1.2-1.6-2.7-2.5-4.8-2.6
		c0.3-0.6,0.8-0.3,1.1-0.5c0.4-0.2,1,0,1.2-0.5s-0.3-0.8-0.6-1.2c-0.6,0.5-1.1-0.1-1.4-0.4c-0.7-0.5-1.3-0.8-2.2-0.8
		c-0.6,0.1-1.2,0.6-1.6-0.1c-1.1-1.6-2.7-1.7-4.4-1.6c-0.1,0.1-0.2,0.1-0.2,0c-0.2,0-0.3,0-0.5,0c-0.1,0-0.2,0-0.3,0
		c-0.1,0.4-0.2,0.9-0.7,0.9c-0.3,0.5-0.6,1-1,1.4c-0.5,0-0.5,0.4-0.5,0.7c-0.2,0.6,0.5,0.9,0.6,1.4c-1.1,0.2-2.4,0.3-2.4,1.7
		c0,0.8-0.2,0.8-0.8,0.7c-1.3-0.1-2.3,0.5-2.8,1.7c-0.4,1-1.1,1.2-2,1.4c-1.9,0.4-2.1,0.8-1,2.4c1.4-0.2,2.8,0.4,4.1-0.2
		c0.3-0.1,0.7-0.1,0.9-0.5c0.9-1.4,3.1-1.7,4.4-0.6c1.3,1,1.3,1.1-0.2,1.7c-0.2,0.1-0.6,0.1-0.6,0.6c1.5,0.3,2.8,0.9,3.8,2
		c0.1,0.1,0.4,0.1,0.6,0.1c0-0.5-0.4-0.7-0.6-1c-0.3-0.5-0.9-1-0.4-1.7s1.1-0.8,1.8-0.6c1.2,0.4,1.4-0.1,1.4-1.1
		c0-1.5,1.1-2.4,2.5-2.3c0.9,0.1,1.5,0.8,1.7,1.5c0.3,0.8-0.6,0.9-1.1,1.2c-0.3,0.2-0.7,0.2-0.7,0.8c1.8-0.5,3.5-0.1,5,1
		c0.2,0.1,0.3,0.3,0.5,0.1s0.1-0.5-0.1-0.6c-0.5-0.5-0.9-1.1-1.6-1.5c-0.6-0.3-0.8-0.7-0.1-1.3c0.9-0.7,1.9-1.1,2.9-0.8
		c1,0.4,1.5,0.1,2.1-0.6c0.2-0.3,0.6-0.5,0.9-0.6c1.3-0.8,2.3-0.6,3.1,0.7c0.3,0.5,0.5,0.4,0.9,0.1c1.1-0.9,2.4-0.6,3.5-0.1
		c1.2,0.6,1.4,1.9,0.4,2.8c-0.5,0.4-0.9,0.9-1.3,1.4c-0.1,0.1-0.1,0.3-0.1,0.4c0.1,0,0.3,0.1,0.4,0.1c1.4-0.7,2.9-1.5,4.6-1
		c-0.3-0.4-0.6-0.8-1-0.8c-1.2-0.1-0.8-0.7-0.5-1.3c0.5-0.8,1.2-1,2.1-0.9c0.4,0.1,0.7,0.1,1.1-0.2c1-1.1,2.3-1.2,3.7-0.8
		c1.1,0.3,1.7,1.3,1.4,2.3c-0.1,0.5-0.4,1-0.6,1.6c-0.1,0.3-0.2,0.8,0.1,1c0.4,0.3,0.6-0.2,0.8-0.5c0.9-1,1.9-2,3.4-2
		c0.2,0,0.5,0.1,0.6-0.3c-1-0.6-1-0.9,0.1-1.5c1.8-0.9,3.9-0.5,5.3,1.1c0.2,0.3,0.4,0.5,0.2,0.9c-0.1,0.3-0.5,0.2-0.7,0.3
		c-0.2,0-0.4,0-0.6,0s-0.5-0.1-0.6,0.2s0.2,0.4,0.4,0.5c1.4,0.8,2.5,1.9,3.3,3.3c0.2,0.1,0.2,0.4,0.5,0.4c0.3-0.1,0.2-0.4,0.2-0.6
		c-0.4-1-0.3-2.1-1.1-3c-0.2-0.2-0.1-0.6,0.3-0.6c1.2-0.2,2.4,0,3.4,0.7c0.5,0.4-0.1,0.6-0.3,0.8c-0.2,0.3-0.5,0.5-0.3,0.8
		c0.2,0.4,0.6,0.3,0.9,0.2c1.4-0.2,2.7-0.9,4.2-0.3c-0.4-0.7-0.9-1.1-1.5-1.4c-0.5-0.3-0.7-0.7,0-1c1.3-0.6,2.5-1.5,4-0.4
		c0.3,0.2,0.6,0.4,0.6,0.7c0.1,1.5,0.7,0.8,1.3,0.4c1.1-0.7,3.3,0.4,3.5,1.6c0.1,0.4,0,0.7-0.5,1c-0.4,0.2-0.9,0.5-0.5,1.1
		c0.6,0.3,0.9,0.9,1.7,1c0-1.9,0-1.8,1.7-2.2c0.7-0.2,1.3-0.4,1.6-1.3c0.3-1,2-1.6,3.1-1.3c0.3,0.1,0.5,0.3,0.5,0.7
		c1,0.6,2.1,1.2,2.6,2.4c0.3,0.7,1,0.3,1.5,0.1c1-0.3,2.1-0.7,3.1,0c0.1,0.1,0.4,0.2,0.4,0.3c0.3,1.7,1.5,1.4,2.6,1.2
		c0.9-0.1,1.7,0.2,2.1,1.1c0.4,0.9-0.3,1.4-0.8,1.9c-0.3,0.4-0.8,0.6-0.9,1.4c2.1-1.4,4-0.5,6.1-0.1c-0.3-1.2-1.2-1.3-2.1-1.6
		c-0.3-0.1-0.7,0.1-0.7-0.4c0-0.4,0.3-0.6,0.6-0.7c1.2-0.7,2.4-0.5,3.5,0.2c0.6,0.3,0.8,0.4,1.2-0.2c0.8-1.1,2-1.4,3.3-1.3
		c0.7,0,0.8,0.3,0.6,0.9c-0.2,0.6-0.4,1.1-0.3,1.8c0.2-0.1,0.4-0.1,0.5-0.2c1.2-1.9,3.1-2.7,5.2-2.9c-0.7-0.5-1.4-0.6-2.1-0.4
		c-0.3,0.1-0.7,0.3-0.9-0.1c-0.2-0.5,0.3-0.5,0.6-0.7c0.8-0.6,1.7-0.8,2.7-0.7c0.5,0,1.1,0.2,0.6-0.8s0.1-1.9,1.3-2.4
		c1.1-0.4,2.1-0.7,3.2-0.2c0.7,0.3,0.9,0.8,0.3,1.4c-0.2,0.3-0.6,0.5-0.6,0.9c0,0.2,0,0.4,0.2,0.5c0.1,0.1,0.4,0,0.4,0
		c1.7-1.9,5.5-1.9,8.1-1.8c-1.2-1.1-4-0.6-5-0.9c-0.4-0.2-1,0-1.1-0.7c-0.1-0.6,0.1-1,0.6-1.3c1.6-1.1,3.3-1.1,5-0.7
		c0.7,0.2,1,0.3,1.5-0.6c1.4-2.4,3.8-3.2,6-1.5c0.7,0.5,0.7,0.9-0.2,1.2s-3.2,2.1-3.6,3c0.6,0.3,2.5-1.4,2.9-1.6
		c2-1.1,3.6-0.2,5.2,0.8c0.3,0.2,0.5,0.9,0.9,0.4c0.3-0.3,0.2-0.8-0.1-1.2c-0.5-0.7-1-1.3-1.9-1.5s-0.7-0.6-0.2-1.1
		c1-0.9,2.4-1,3.6,0c0.7,0.6,0.8,0.3,0.9-0.3c0.6-1.9,2.8-2.5,4.3-1.2c0.9,0.7,1.3,1.5,1.4,2.6c0.1,1.3-0.4,1.9-1.6,2.2
		c-0.9,0.2-4.3,1.4-4.9,2.5c2.9-0.7,9.4-0.5,11.8,0.9c-0.7-0.7-3.1-2-3.8-2.7c-0.5-0.5-1-1.1-0.4-1.9s1.4-0.7,2.1-0.3
		c0.9,0.4,1.4,1.6,2.2,1.7s1.5-1,2.5-1.2c1.1-0.2,2.2-0.1,3,0.7c0.6,0.6,1.2,0.6,1.8,0.2c0.7-0.5,1.6-0.8,2.4-0.9
		c0.9-0.1,1.7,0.1,2.2,0.9c0.5,0.7-0.1,1.3-0.5,1.8c-0.3,0.4-0.6,0.8-1,1.2c-0.5,0.5-0.6,1-0.3,1.6c0.7,0.1,1.6-0.4,2.2,0.5
		c0.4,0,0.8,0,1.2,0c0.1-0.2,0.3-0.2,0.5-0.2c0.1,0,0.2,0,0.2,0c0.1-0.7,0.8-0.6,1.3-0.6c1.5-0.2,2.9-0.3,4.4-0.3
		c1.4,0,2.4,0.8,3.2,1.9c0.4,0.3,0.9,0.5,1.4,0.5s0.7,0.3,0.7,0.7c0.4,0,0.8,0,1.2,0c0.2-0.1,0.3-0.2,0.5-0.2c0.2-0.3,0.3-0.6,0.2-1
		c-0.2-0.2-0.3-0.3-0.5-0.5c-0.2,0-0.7,0.1-0.6-0.3c0.1-0.4,1.7,0.8,2.1,0.8c0.2,0-1-1.4-0.8-1.5c0.2-0.6,1.2,0.9,1.8,1.1
		c0.6,0,0.5-1.6,1.1-1.6c0.4-0.4,0.6-0.3,0.7,0.2c0.7,0.3,0.5,1.5,1.4,1.5c0.4,0,0.8-0.1,1-0.5c0.2-1.1,0.9-1.5,1.9-1.2
		c0.8,0.3,0.4,0.8,0.1,1.2c0,0.2,0,0.5,0,0.7c0.1,0,0.2,0,0.2,0c0.2,0,0.3,0,0.5,0c0-0.3,0-0.6,0.3-0.7c1.2-0.2,2.2-1.2,3.5-1
		c0.7,0.1,1.2-0.8,1.7-0.3c-0.6-0.7-1.3-1.4-1.8-2.2c-0.5-0.7,0-1.8,0.8-2c0.6-0.2,0.7-0.5,0.8-1c0.3-1.5,1.9-3,3.2-3.1
		c1.1-0.1,2.1,0.3,2.6,1.3c0.4,0.7,0.6,0.7,1.2,0.1c0.8-1,2-0.9,3.1-0.8c0.9,0.1,1.5,0.6,1.7,1.6c0.2,0.7,0.2,1.3-0.4,1.8
		s-1.1,0.2-1.6-0.3c-0.1-0.1-0.3-0.2-0.5,0c1.4,1.3,2,2.9,1.9,4.8c0,0.2,0,0.3,0,0.5c0.9-0.4,0.5-1.2,0.7-1.8c0.2-0.9,0-2.1,1.1-2.4
		c1.2-0.4,2.3,0,3,1.2c0.3,0.5,0.4,0.5,0.8-0.1c0.9-1.4,3.3-2.2,4.9-1.5c0.8,0.3,0.4,0.7,0.1,1c-0.2,0.2-0.5,0.4-0.3,0.7
		s0.5,0,0.7-0.2c0.7-0.6,1.6-0.6,2.5-0.6c0-0.2,0-0.5,0-0.7c-0.4-0.4-0.2-0.6,0.2-0.8c0.5-0.3,1-0.6,1.5-0.9
		c-0.1-0.9,0.1-1.6-0.3-2.3c-0.6-0.5-0.9-2.5-1.8-2.6c-1-0.1-2.1,1.4-3.2,1.4c-0.9,0-0.5-0.4-0.3-0.7c0-0.3,0-0.7,0-1
		c-0.4-0.8-1.2-1.7-2.1-1.7c-0.8,0-1.4,1.1-2.3,1.2c-0.3,0-0.5,0.4-0.7,0.5c-0.3-0.9-0.9-1.4-1.8-1.5c-1.2-0.1-1.5-0.8-1.5-1.9
		c-0.5-0.2-1-0.3-1.4-0.5c-0.8,0.4-1.6,0.4-2.4,0.4c-1.3,0.1-0.4-1.1-0.7-1.6c-0.1,0-0.2,0-0.2,0c-1.2-1-2.6-1.6-4-1.3
		c-1.8,0.4-4.5,0.5-4.6,3c0,0.1,0.5,1.1,0.4,1.2c-0.6,0-1.1-1.1-1.7-0.7c-0.5,0.3-1,1.2-1.4,0.7c-0.7,0.3-1.5,0.3-2,0.9
		c-0.4,0.6-0.9,0.6-1.6,0.6c-1.8-0.2-2.5,1.2-3.3,2.5c-0.7,1,0.5,1.1,0.8,1.7c0,0,0,0.1,0.1,0.1c0.3,0.4,0.7,0.9,0.4,1.3
		s-0.9,0.1-1.3-0.1c-1.5-0.6-3-0.9-4.6-0.6c-1.1,0.2-1.9,0.1-2.5-0.9c-0.2-0.2-0.7-0.3-0.5-0.7s0.5,0,0.8,0.2
		c1.1,0.5,1.6,0.4,1.9-0.5c0.3-1-0.3-2.4-1.2-3.1c-1.4-1-2.9-0.6-4.3-0.1c-0.2,0-0.3,0-0.5,0v0.1c-0.8-0.4-1.6-1.1-2.7-0.7
		c-0.5,0.2-0.8,0.8-1.5,0.6c-0.1-1.1-1.1-1.3-1.8-1.6c-1-0.5-1.2-0.9-0.3-1.6c1.1-0.9,2.3-1.3,3.7-0.7c0.7,0.3,1.2,0.5,1.6-0.5
		c0.4-1.1,1.5-1.5,2.7-1.3c1.1,0.2,2,0.8,2.7,1.6c0.3,0.4,0,0.5-0.3,0.5c-0.7,0.1-1.4,0.2-2.1,0.2c0,0.1,0,0.2,0,0.2
		c0,0.2,0,0.3,0,0.5c2,0.3,3.8,1.1,5.2,2.7c0.1,0.2,0.3,0.4,0.6,0.3c0.3-0.2,0.1-0.5,0.1-0.7c-0.1-0.8-0.7-1.1-1.1-1.6
		c-0.4-0.4-0.6-0.8-0.2-1.4c0.7-1.1,1.6-1.3,3.1-0.7c0.6,0.5,1.3,0.1,1.9,0.2c0.8-2,2.5-3.3,6.1-1.1c0.3-0.6,0.1-1.6,0.7-1.9
		c0.9-0.5,1.8-1,2.9-0.9s1.7,0.4,1.8,1.5c0.1,0.7,0.5,0.9,1,0.5c1.1-1.1,2.4-0.9,3.7-0.9c0.2,0,0.3,0,0.6-0.1
		c-0.3-0.5-0.8-0.5-1.2-0.6c-0.3-0.1-0.7,0.2-0.8-0.3c0-0.3,0.2-0.7,0.6-0.9c1.1-0.5,2.1-0.2,3.1,0.3c0.9,0.4,1.4,1.2,1.9,2
		c0.3,0.6,0.6,0.8,1.2,0.2c0.7-0.7,1.5-1.1,2.4-0.4c0.4,0.3,0.7,0.1,0.8-0.4c0.6-2,3-3,4.8-2c0.7,0.4,1,1.2,0.9,2.1
		c0,0.4-0.3,0.3-0.6,0.3c-0.5-0.1-1-0.5-1.7-0.2c1.5,1.6,2.5,3.5,2.6,6.1c0.8-1.1,0.9-2.1,0.7-3c-0.1-0.9,0.2-1.2,1-1.3
		c0.7-0.1,1.4-0.1,2,0c0.7,0.1,1.5,0.3,1.8,0.9c0.2,0.5-0.5,0.9-0.8,1.3c-0.4,0.5-0.8,1-0.8,1.7c0.1,0,0.2,0.1,0.2,0.1
		c2.5-2.3,3.5-1.2,6.1-0.1c0.2,0.1,0.3,0.2,0.5,0.3c0.3,0.2,0.6,0.6,0.9,0.2c0.2-0.3-0.2-0.5-0.5-0.7c-0.8-0.7-1.5-1.4-2.4-1.9
		c-0.3-0.2-1.1-0.3-0.7-0.9c0.3-0.4,0.9-0.8,1.5-0.6c1.3,0.4,2.4,1,3.1,2.2c0.3,0.6,0.6,0.7,1.1,0.4c2.8-1.6,4.2-1.5,6.8,0.6
		c0.1,0.1,0.2,0.1,0.3,0.1C81.7,415.2,79.6,414.1,77.6,414.2z M-110.5,420.2c-0.7,0.3-1.3,0.4-1.7,0.1c0.4,0.2,0.9,0.1,1.5-0.2
		c1-0.5,1.9-0.5,2.9-0.1C-108.7,419.7-109.6,419.7-110.5,420.2z M-94.1,419.1c-0.5,0-1.2,1.2-1.5-0.3
		C-94.9,418.5-94.5,418.9-94.1,419.1z M-107.1,422.9c-0.2,0.1-0.3,0-0.3,0s0.1,0,0.1-0.1c1.5-0.5,2.5,0.2,3.5,1
		C-104.7,423.1-105.7,422.5-107.1,422.9z M-101.8,425.2c0-1.6-0.6-2.6-1.9-3.2c1.4,0.6,2.1,1.6,2.1,3.4
		C-101.7,425.3-101.7,425.3-101.8,425.2z M-104.4,420.9c-0.2,0.1-0.5,0.3-0.5,0.6c0,0.1,0,0.1,0,0.1c-0.1,0-0.2-0.1-0.2-0.2
		c0-0.3,0.2-0.5,0.5-0.6c1.1-0.7,2.7-0.5,4.1,0.3C-101.8,420.4-103.4,420.2-104.4,420.9z M-99.8,416c-1.1-0.1-2.1,0.2-3.1,0.2
		c1.5-2,4.9-1.6,5.8,0.8c0.4,1-0.6,0.5-1,0.7C-98,416.5-98.8,416.1-99.8,416z M-97.1,418.6c-0.5,0-1,0-1.6,0.1
		C-98.2,418.6-97.7,418.6-97.1,418.6z M-94.9,421.6c-1.4-0.4-2.8-0.3-3.6,1.4c0-0.1-0.1-0.1-0.1-0.2c0.8-1.6,2.2-1.6,3.5-1.3
		c0.4,0.1,0.8,0.3,1.1,0.5C-94.3,421.8-94.6,421.7-94.9,421.6z M-90.6,423.5c-0.8,0.2-1.4,0.8-2.2,1.4c0-0.1,0-0.2,0-0.3
		c0.7-0.5,1.3-1.1,2-1.2c0.6-0.2,1-0.1,1.3,0.1C-89.8,423.4-90.1,423.4-90.6,423.5z M-86.1,422.2c-0.5,0.4-0.9,1-1.2,1.6
		c-0.3,0.5-0.4,1.1-0.6,1.6c-0.2,0.5-0.1,1.4-0.8,1.3c-0.1,0-0.2-0.1-0.2-0.1l0,0c0.7,0.1,0.6-0.8,0.8-1.3c0.2-0.5,0.3-1.1,0.6-1.6
		c0.3-0.6,0.7-1.1,1.2-1.6c0.5-0.3,0.5-0.5,0.3-0.6C-85.7,421.6-85.6,421.8-86.1,422.2z M-83,423.3c0,0-0.1,0.1-0.2,0.1
		c-0.1,0-0.1,0-0.2-0.1c0.1-0.4,0.4-0.3,0.5-0.4c0.6-0.1,1-0.3,1.1-0.6C-81.7,422.8-82.1,423.1-83,423.3z M-78.3,427.7L-78.3,427.7
		c0.1-0.8-0.1-1.7-0.8-2.4c-0.4-0.4-0.5-0.6-0.2-0.8c0.1,0.1,0.2,0.2,0.3,0.4C-78.2,425.7-78,426.8-78.3,427.7z M-76.1,419.1
		c-0.6,0.1-1.3-0.1-1.9-0.2c-1.2,0.1-2.5-0.2-3.6,1.1c-0.4,0.2-1.1,0-1.7-0.1c-0.1-0.1-0.2-0.2-0.3-0.4c-0.2,0-0.3,0-0.5,0
		c-1.5-0.2-1.8,0.9-2.4,1.8c-0.1,0-0.2,0-0.2,0c-1,0-1.9-0.4-2.9-0.2c-0.2,0.3-0.5,0.3-0.7,0.1c-0.3-0.2-0.1-0.4,0-0.6
		c0.4-0.6-0.1-1.1,0-1.7c-0.1,0-0.2,0-0.2,0c-0.8-0.3-1.7-0.2-2.6-0.2c-0.7-0.1-1.2-0.9-2.1-0.8c0.7-0.8,1.4-1.5,2.5-1.3
		c0.4,0.1,0.6-0.2,1-0.4c1.1-0.5,1.9,0.1,1.8,1.3c0,0.3,0.1,0.5,0.2,0.8c1.2-0.1,2.1-1.1,3.4-1.1c0.2,0,0.4-0.1,0.6-0.1
		c0.4-0.1,1.1,0.2,1.1-0.3c0.1-0.7-0.7-0.5-1.1-0.6c-0.5-0.2-1.1-0.1-1.7-0.1c-0.3,0-0.6,0.1-0.8-0.2c-0.1-0.3,0.2-0.6,0.4-0.8
		c0.8-0.8,2.1-0.9,3.2-0.4c0.9,0.5,1.4,1.6,2.2,1.9c0.7,0.3,1.6-0.8,2.6-0.8c1.6,0.1,3.4,1.1,4,2.8C-75.7,419-75.8,419.1-76.1,419.1
		z M-73.8,426.7c-0.2,0.2-0.4,0.4-0.6,0.7l0,0c0-0.1,0.1-0.3,0.1-0.4c0.2-0.3,0.4-0.5,0.6-0.7c0.1-0.1,0.1-0.1,0.1-0.2
		C-73.6,426.3-73.6,426.5-73.8,426.7z M-69.1,425.5c-0.1-0.3-0.4-0.3-0.7-0.3c-0.2,0-0.4,0-0.6,0c-0.5-0.1-1.5,0.3-1.5-0.2
		c0-0.1,0-0.3,0.1-0.4l0,0c0,0.5,1,0.1,1.5,0.2c0.2,0,0.4,0,0.6,0c0.3,0,0.7-0.1,0.7,0.4C-69,425.3-69.1,425.4-69.1,425.5z
		 M-63.2,416.8c-0.3-0.1-0.7-0.1-1.3-0.2c0.6,0.5,1.1,0.7,1.4,1.3c0,0,0,0.1,0.1,0.1c-1.4-0.2-2.5,0.6-3.8,0.9
		c-0.2,0.1-0.4,0.2-0.4,0.3c-0.4,1.5-1.5,0.9-2.4,1c-1.4,0.1-2.6,0.6-3.6,1.6c0,0.4-0.1,0.7-0.3,0.7c0.3,0,0.3-0.3,0.3-0.7
		c-1.8-1.5-1.4-3.5,0.9-4.5c1.3-0.6,2.8-0.9,4.2-0.3c0.6,0.3,0.6-0.1,0.7-0.5c0.7-2,3-2.9,4.6-1.9c0.3,0.2,0.5,0.4,0.7,0.6
		c0.3,0.5,0.4,1.2,0.1,1.7S-62.8,416.8-63.2,416.8z M-55.4,422c-1.5,0.4-1.9-1.2-3-1.5c-0.1,0-0.2-0.2-0.3-0.2
		c-1.1,0.2-1.5-0.7-2-1.4c-0.5,0.1-0.6,0.6-0.7,1c0,0.3,0.1,0.7-0.3,0.7c-0.2,0-0.2-0.1-0.3-0.2c0.1,0,0.1,0.1,0.2,0.1
		c0.4,0,0.3-0.4,0.3-0.7c0.1-0.4,0.2-0.9,0.7-1c0.3-1.3,1.2-0.6,1.9-0.6c0.5,0,0.9,0.4,1.1,0.8c0.7,1,1.5,2,2.3,2.9
		C-55.1,422.1-55,422.2-55.4,422z M-43.2,424.8L-43.2,424.8C-43.2,425-43.3,425.1-43.2,424.8z M-45.3,421.2c0.2-0.1,0.5-0.1,0.7,0.1
		c0.2,0.3-0.1,0.4-0.2,0.6C-45,422.2-46.1,421.5-45.3,421.2z M8.8,416.1c-0.6,0.3-0.7,1-1.1,1.7c0.7,0.2,1.3-0.4,1.9-0.3
		c-0.7,2.2-0.7,2.2-2.9,2.2c-0.2,0-0.7-0.8-0.9-0.7c-1.3,0.8-1.7,0.9-2.2-0.3c-0.6-0.3-2.5-0.1-2.3-0.8c-0.4,0-0.8,0-1.1-0.3
		c-1.2-1.1-2.6-0.8-4-0.4c-0.3,0.1-0.6,0.2-0.7-0.1c-0.5-1.2-1.5-1.2-2.6-1.1c-0.2,0-0.5,0-0.6-0.2c-0.2,0-0.5,0-0.7,0
		c-0.5,0.3-1.1,0.5-1.6,0.8c-0.2,0.1-0.4,0.2-0.6,0c-1.1-1-2.5-0.9-3.8-0.6c-0.7,0.1-1.5-0.8-1.9-1.2c0,0.6-0.5,1.2-1.3,1.5
		c-1.7,0.6-1.3,1.6-0.6,3.2c0.4,1.1,0.7,1.1,0.5,2c-0.5-2.4-2-4-4.3-4.9c0.8-0.5,1.5-0.2,2.3-0.2c0-1.1-0.9-1.2-1.6-1.3
		c-0.9-0.1-1.7,0.1-2.6,0.2c-0.4,1-0.9,1.7-2.2,1.5c-0.3,0-0.8,0.3-0.9,0.5c-0.3,0.8-1,0.9-1.7,0.8c0,0.1,0,0.3-0.1,0.4
		c-0.7,0.1-1.4-0.2-2,0.1c0-0.1,0-0.1,0-0.2c-0.6-0.8-1.6-1.3-2-2.3c-0.5-1.1-0.1-2.2,1.1-2.4c1-0.2,2,0,2.9,0.5
		c0.8,0.5-0.2,1.2,0.4,1.8c1.1-1.4,2.6-1.9,4.5-1.8c-0.7-0.9-1.6-0.6-2.4-0.7c-0.3,0-0.7,0.1-0.8-0.3c-0.1-0.4,0.2-0.6,0.4-0.8
		c0.9-0.9,2-1.2,3.2-1.1c0.7,0,1.1-0.1,1.4-0.8c0.8-1.8,3.1-2.3,4.4-1c0.5,0.5,0.8,0.4,1.4,0.2c1-0.4,1.9-0.9,3.1-0.9
		c1,0,1.6,0.6,2.3,1.1c0.5,0.4,0.1,0.8-0.2,1c-0.4,0.3-0.8,0.4-1.1,1.1c0.8-0.3,1.4-0.4,1.9-0.6c1.5-0.7,2.9-0.9,4.5-0.1
		c0.2,0.1,0.4,0,0.6,0c-0.2-0.8-1-0.7-1.5-0.9c-0.2-0.1-0.6,0-0.6-0.4c0-0.3,0.3-0.3,0.6-0.3c1.1,0.1,2.2-0.3,3.2,0.4
		c0.5-0.6,0.1-1.7,1.1-1.8c1.2-0.1,0.7,0.6,1.7,1.6c0.1,0.1,1.7,1.3,1.8,1.4c0.2,1.8,1.2-0.9,2.1-1.4c1.4-0.8,0.6-0.1,1.3,1.4
		c0.2,0.4,0.9,0.9,0.9,1.2c0,0.6,1.5,0.3,2.1,0.4c0.9,0,1.6,0.5,2.2,1C11,414.9,10.2,415.5,8.8,416.1z M75.5,414.5
		C75.3,414.4,75.5,414.4,75.5,414.5C75.6,414.4,75.6,414.4,75.5,414.5z"/>
	<path class="st6" d="M80.4,421c1.6-1,2-2.1,1.5-4c-0.1,0-0.2-0.1-0.3-0.1c-2.6-2.1-4-2.2-6.8-0.6c-0.5,0.3-0.8,0.2-1.1-0.4
		c-0.6-1.2-1.8-1.8-3.1-2.2c-0.6-0.2-1.2,0.1-1.5,0.6c-0.4,0.6,0.4,0.7,0.7,0.9c0.9,0.6,1.6,1.3,2.4,1.9c0.2,0.2,0.7,0.4,0.5,0.7
		c-0.3,0.4-0.6-0.1-0.9-0.2c-0.2-0.1-0.3-0.2-0.5-0.3c-2.6-1.1-3.5-2.2-6.1,0.1c0,0-0.1,0-0.2-0.1c0-0.7,1.9-0.7,2.4-1.2
		c0.3-0.4,0.3-1.3,0-1.8c-0.3-0.6-1.9-0.8-2.6-0.9c-0.7-0.1-1.4-0.1-2,0c-0.7,0.1-1.1,0.4-1,1.3c0.1,0.9,0.2,0.2-0.6,1.3
		c-0.1-2.6-1.2-2.8-2.7-4.4c0.7-0.2,1.3,0.8,1.8,0.9c0.3,0,1.6-0.4,1.6-0.8c0.1-0.8-1.3-2-2-2.4c-1.8-1.1-4.3,0-4.8,2
		c-0.2,0.6-0.5,0.7-0.8,0.4c-1-0.7-1.7-0.4-2.4,0.4c-0.5,0.6-0.8,0.4-1.2-0.2c-0.5-0.8-1-1.5-1.9-2c-1-0.5-2-0.8-3.1-0.3
		c-0.4,0.2-0.6,0.5-0.6,0.9c0,0.5,0.5,0.3,0.8,0.3c0.4,0.1-1.5-0.2-1.2,0.3c-0.3,0,2,0.4,1.8,0.4c-1.3,0-2.6-0.2-3.7,0.9
		c-0.5,0.5,0-0.5-0.1-1.2c-0.1-1.1-1.6-0.7-2.7-0.8c-1.1-0.1-2,0.4-2.9,0.9c-0.7,0.3-0.5,1.3-0.7,1.9c-3.5-2.2-5.3-0.9-6.1,1.1
		c0.1,0.6,0.5,0.4,0.8,0.2c0.9-0.4,1.8-0.3,2.7-0.2c0.8,0.1,1.6,0.4,1.4,1.5c-0.1,0.5,0.2,0.6,0.6,0.7c0.5,0,0.8,0.3,1,0.7
		c0.4,0.5,0.8,0.6,1.3,0.3c0.6-0.4,1.2-0.3,1.8-0.3c0.1-0.1,0.4-0.1,0.4-0.2c0.1-2.5,2-2.9,3.8-3.3c1.3-0.3,2.8-0.4,4,0.6
		c0.1,0,0.2,0,0.2,0l0,0c0.2,0.5-0.6,1.7,0.7,1.6c0.8,0,1.7,0,2.4-0.4c0.5,0.2,1,0.3,1.4,0.5c0,1,0.3,1.8,1.5,1.9
		c0.9,0.1,1.5,0.6,1.8,1.5c0.2-0.1,0.4-0.5,0.7-0.5c0.8-0.1,1.5-0.5,2.3-0.5c0.9,0,1.6,0.2,2,1l0,0c0,0.3,0,0.6,0,0.9
		c-0.2,0.4-0.6,0.8,0.3,0.7c1,0,2-0.4,3.1-0.2c0.9,0.1,1.3,0.9,1.9,1.4l0,0c0.4,0.7-1.1,2.6-1.1,3.4c1.1,0.1,2.5,1.3,3.5,1.9
		c0.5,0.3,3,3,3.5,2.6c1-0.9,2.3,0.3,3.3,1.2c0.6,0.5,1.6-1.6,1.8-0.8c0.1,0.3,2.6,0.4,3.1,0c0.8-0.9,0.8-1.4,1.6-1.1
		c0.5,0.1-1.5-1.3-0.9-1.5c-0.3-1.4-1.6-1.7-2.5-2.6c0.7-0.5,1.4-1,1.3-2c0.2-0.5-0.1-1-0.2-1.5C79.8,421.7,79.9,421.3,80.4,421z
		 M67.1,422c0.2-0.1,0.3-0.1,0.5-0.1C67.4,421.9,67.2,422,67.1,422z"/>
	<path class="st7" d="M66,430.4c-1,0.4-1.8,0.3-2.4-0.6c-0.4-0.6-0.4-1.1,0.5-1.3c0,0.7,0.8,0.6,1.1,1C65.4,429.8,66,429.9,66,430.4
		z"/>
	<path class="st6" d="M65.1,427.1c0-0.2,0-0.5,0-0.7c1.4,0,2.8-0.1,3.7,1.2C67.6,427.3,66.3,427,65.1,427.1z"/>
	<path class="st8" d="M-137,447.5c0.4,0,0.8,0,1.2,0C-136.2,447.8-136.6,447.8-137,447.5z"/>
	<path class="st6" d="M9,416.7c1.4-0.6,2.8-2,1.6-3c-0.6-0.5-2.5-0.8-3.4-0.8c-0.6-0.1-0.8-0.3-0.8-0.9c0-0.3-0.1-0.7-0.3-1.1
		c-0.7-1.5-1.8-1.8-3.2-1c-0.9,0.5-1.9,1.2-2.1-0.6c-0.1-0.1-0.1-0.1-0.2-0.2c-1-1-2.2-0.9-3.4-0.8c-1,0.1-0.7,0.6-1.2,1.2
		c-1-0.7-2,0.3-3.1,0.2c-0.3,0-0.6,0-0.6,0.3c0,0.4,0.4,0.3,0.6,0.4c0.5,0.2,1.3,0.1,1.5,0.9c-0.2,0-0.4-0.2-0.6-0.3
		c-1.6-0.8-3-0.3-4.5,0.5c-0.5,0.2-0.2,0-1,0.3c0.3-0.7,0.6,0,1-0.3c0.3-0.2,0.7-1.6,0.2-2c-0.7-0.5-2.1-0.6-3.1-0.6
		c-1.2,0-2.1,0.5-3.1,0.9c-0.6,0.2-0.3-0.4-0.8-0.9c-1.3-1.3-4.2-0.1-5,1.7c-0.3,0.7-0.7,0.8-1.4,0.8c-1.2-0.1-2.3,0.2-3.2,1.1
		c-0.2,0.2-0.5,0.4-0.4,0.8c0.1,0.4,0.5,0.3,0.8,0.3c0.8,0.1,1.7-0.2,2.4,0.7c-1.9-0.1-3.1-0.6-4.2,0.8c-0.6-0.6,0.8-0.7,0-1.2
		c-0.9-0.5-2.6-0.3-3.6-0.1c-1.2,0.2-1.6,1.3-1.1,2.4c0.4,1,1.4,1.5,2,2.3c0.7-0.4,1.2,0.2,1.9,0.1c0.7,0.1,1.7-0.3,1.8-0.8
		c0.1-0.2,0.6-0.5,0.9-0.5c1.3,0.2,2.7,0.1,3.1-0.9c1.1-1,1.7-1.6,3-1.8c0.6-0.1,1.3,0,1.9,0c0.1-0.3,0.3-0.6,0.7-0.9
		c-0.2,0.2-0.3,0.4-0.4,0.6c0,0.1,0,0.3,0,0.4c0.7,0.2,1.6-0.2,1.9,0.8c0,0,0.1,0.1,0.2,0.2c0.4,0.4,0.9,0.5,1.6,0.4
		c1.3-0.3,2.7-0.4,3.8,0.6c0.2,0.2,0.4,0.1,0.6,0c0.5-0.3,1.5-0.6,1.5-0.5c0.2,0,0.5,0,0.7,0c0.8,0.2,2.9-0.2,3.4,1
		c0.1,0.3,0.4,0.2,0.7,0.1c1.4-0.4,2.8-0.7,4,0.4c0.3,0.3,0.7,0.3,1.1,0.3c0.7,0.1,0,0.9,0.9,1.1c0.3,0,1.7-0.6,1.9-0.7
		c-0.1,0.3-0.3,0.5-0.8,0.4c0.5,1.2,1.1,1.8,2.4,1c0.2-0.1,0.5,0,0.7,0c2.2,0,3.3,0.1,4-2.1c-0.6-0.1-1,0-1.7-0.2
		C9,416.7,8.4,417,9,416.7z"/>
	<path class="st9" d="M-5.7,411.2c0,0,0.1,0,0.1,0.1C-5.7,411.3-5.7,411.2-5.7,411.2L-5.7,411.2z"/>
	<path class="st0" d="M-114.2,417.9c-0.8,0-1.6-0.7-2.5-0.2c-0.5,0.2-0.8,0.5-0.8,1s0.2,0.8,0.7,1c0.8,0.3,1.2,0.8,1.7,1.4
		c0.1,0.2,0.3,0.3,0.1,0.5c-0.2,0.2-0.4,0.1-0.5,0c-1.5-1.4-3.3-1.5-5.5-1c1.1-1,2.2-1.5,2.6-2.7c0-0.2,0-0.3,0-0.5
		c0.9-0.2,1.6-0.9,2.7-0.7C-115.1,416.9-114.4,417-114.2,417.9z"/>
	<path class="st0" d="M-125.3,419.1c0,0.3-0.2,0.4-0.6,0.5c-1.2,0.3-1.6,1.4-0.8,2.3c0.5,0.7,1.1,1.3,1.6,1.9
		c0.2,0.2,0.3,0.4,0.1,0.6c-0.2,0.2-0.5,0-0.6-0.2c-1.2-1.6-2.7-2.5-4.8-2.6c0.3-0.6,0.8-0.3,1.1-0.5c0.4-0.2,1,0,1.2-0.5
		s-0.3-0.8-0.6-1.2C-127.9,418.4-126.9,418.3-125.3,419.1z"/>
	<path class="st7" d="M-118.5,417.5c0,0.2,0,0.3,0,0.5c-0.7,0.1-1.2-0.4-1.8-0.5c-1.1-0.1-2.1,0.2-3,0.7c0.6-1.3,1.8-1.8,3.3-1.3
		C-119.5,417-119.1,417.3-118.5,417.5z"/>
	<path class="st9" d="M-138.2,416.7c-0.1,0.1-0.2,0.1-0.2,0C-138.4,416.7-138.3,416.7-138.2,416.7z"/>
	<path class="st6" d="M-84.2,419.4c-1.5-0.2-1.8,1-2.4,1.9c-1,0-1.9-0.4-2.9-0.2c0.3-1.4,1.6-2.4,3.2-2.4
		C-85.5,418.7-84.6,418.3-84.2,419.4z"/>
	<path class="st9" d="M-90.5,418.9c0.2-0.3,0.2-0.7,0.7-0.7c0,0.4,0,0.7-0.5,0.7C-90.3,418.9-90.4,418.9-90.5,418.9z"/>
	<path class="st7" d="M-76.1,433.8L-76.1,433.8L-76.1,433.8z"/>
	<path class="st10" d="M-124.3,432.6c0.3,0.8,0.4,1.5-0.7,1.7c0.1-0.4,0.2-0.8,0.2-1.2c0,0,0-0.1,0.1-0.1c0,0,0,0.1-0.1,0.1
		c-0.2,0.1-0.3,0.2-0.5,0.3C-125.4,432.5-125,432.3-124.3,432.6z"/>
	<path class="st6" d="M-152.1,432.3c-0.1,0.1-0.2,0.1-0.2,0.2C-152.3,432.5-152.2,432.4-152.1,432.3z"/>
	<path class="st2" d="M-136.8,432.3c0,0,0.1,0,0.1,0.1C-136.7,432.4-136.7,432.4-136.8,432.3L-136.8,432.3z"/>
	<path class="st4" d="M-78.3,441.7c-0.5-0.1-0.9,0-1.4,0.2c-0.8,0.4-1.7,0.5-2.5-0.1c-0.6-0.4-1-0.2-1.5,0.1
		c-1.6,0.9-3.1,0.6-4.5-0.4c-0.7-0.5,0-0.5,0.9-0.9c0.6-0.3,1.8-1.5,2.1-2.4c-2.1,1-5.5,0.9-7.6,0.7c0.3,0.8,1,1,1.6,1.3
		c0.8,0.4,0.9,0.8,0.1,1.3c-0.7,0.5-1.6,0.7-2.5,0.6c-0.4,0-0.6,0-0.8,0.2c-2.1,1.9-4,1.7-5.6-0.7c0-0.1-0.1-0.1-0.1-0.2
		c0-0.3,1.4-0.6,1.4-0.8c0-0.6-0.8-0.3,0-0.6c0.6-0.2,0.3-1,0.8-0.6c0.2,0.2,1.9,1.1,2.3,0.8c-0.7-1-3.2-2.3-3.3-3.6
		c-0.5-0.6-0.6-1.2-0.6-2c0.1-0.6-0.2-0.6-0.6-0.4c0,0.6,0,1.3,0,1.9c0,0.2,0,0.3,0,0.5c0.3,0.1,0.5,0.3,0.4,0.7s-0.4,0.3-0.7,0.3
		c-0.2,0.3-0.5,0.2-0.7,0.2c-1-0.1-2-0.3-2.9-0.7c-0.4,0-0.7-0.2-1-0.5c-0.5,0-0.9-0.1-1.2-0.5c-0.6,0.1-0.5,0.4-0.3,0.8
		c0.2,0.3,0.3,0.6,0.3,0.9c1.5,1.1,1.5,1.2,0.6,2.7c-0.1,0.2-0.1,0.4-0.2,0.7c-0.8,0.2-1.3,1.3-2.1,1c-1.3-0.5-2.2,0.1-3.2,0.7
		c-0.9,0.5-2.1,0.4-3.2,0.3c-1.1-0.1-0.9-1-0.5-2c0.1-0.2-0.2-0.1-0.3-0.4c-0.1,0-0.2-0.1-0.2-0.1c-1.8,1.5-3.8,1.1-5.8,0.5
		c-0.4-0.1-0.9-0.1-1.3-0.1c-0.1,0.1-0.2,0.2-0.3,0.3c0.8,0.9,2,1.1,3.1,1.2c0.8,0.1,1.6,0,2.2,0.7c0.1,0,0.1,0,0.1,0
		c-0.2,0.3-0.3,0.6-0.6,0.6c-0.1,0.1-0.2,0.1-0.3,0.2c-0.1,0-0.2,0-0.2,0c-0.1,0.1-0.2,0.1-0.3,0.2c-0.5,0-1.1,0-1.6,0
		c-0.4-1.2-1.8-1.4-2.3-2.5c-0.1-0.2-0.3,0-0.5,0.2c-0.9,0.7-2,0.6-2.9,0.1c-1.3-0.8-2.3-1.8-2.2-3.5c0-0.6,0.4-1,0.8-1.4
		c0.4-0.3,0.8-0.4,1.1,0.2c0.2,0.6,0.8,0.9,1.5,0.9c-0.1-0.8-0.2-1.5-0.3-2.1c0-0.6,0-1.3,0-1.9c0.1-0.4,0.2-0.8,0.2-1.2
		c-0.2,0.1-0.3,0.2-0.5,0.2c-1.1,2.3-2.3,2.9-4.7,2c-0.5-0.2-1.1-0.7-1.5-0.6c-0.7,0.2,0.2,1-0.1,1.5c-0.1,0.2-0.1,0.4-0.1,0.6
		c-0.1,0.2-0.2,0.3-0.3,0.5c-2.4,0.7-3.9-0.1-4.8-2.5c2.2-0.4,2.8-1.1,2.2-2.6c-2.2,2.2-2.4,2.2-6.6-0.9c-0.2,0.7,0,1.2,0.4,1.6
		c0.6,0.6,1.2,1.3,2,1.7c0.9,0.4,0.7,0.9,0.2,1.5c-0.4,0.5-0.9,0.5-1.5,0.4c-0.8-0.2-1.5-0.7-2.1-1.3c-0.6-0.5-1.1-0.7-1.7,0.1
		c-0.5,0.6-1.2,1-2.1,1c-0.5-0.1-0.9-0.6-1.4-0.5c-0.6,0.4-0.9-0.1-1.2-0.5c-0.2-0.1-0.3-0.2-0.5-0.3c-0.2,0-0.5,0-0.7,0
		c-0.6-0.8,0.2-1.6,0-2.4c-0.3,0-0.5-0.2-0.5-0.5c-0.1,0-0.2,0-0.2,0c-0.3,0-0.7,0.1-1,0.2c-0.5,0.9-1,1-1.7,0.3c-0.2,0-0.5,0-0.7,0
		c-0.7,0.5-1.5,0.2-2.2,0.2c-0.1,0-0.3,0-0.4,0c0,0.3-0.1,0.5-0.5,0.5c0,0.1,0,0.3-0.1,0.4c0,0.5,0.2,1-0.2,1.5
		c0,0.7,0.8,1.1,0.7,1.8c0.5,0.3,1,0.6,1.4,0.8s0.7,0.5,0.2,0.9c-0.8,0.6-0.8,1.3-0.4,2.2c0.2,0.4,0.4,0.9-0.4,1.2
		c-1.7,0.5-2.6,1.8-2.6,3.6c0.5,1.2,1.3,2.1,2.8,1.7c0.4-0.3,0.9-0.2,1.4-0.2c11.7,0,23.4,0,35.1,0c0.4,0,0.8,0,1.1,0
		c0,0.1,0,0.1,0,0.2c5,0,9.9,0,14.9,0c0.4-0.4-0.1-0.9,0.1-1.4c0.7,0.3,1.1,0.9,1.6,1.4c1.2,0,2.4,0,3.6,0c0.3-0.7,1.1-0.7,1.7-0.9
		c1-0.3,2-0.4,2.8-1.2c0.3-0.3,0.8-0.7,0.7,0.3c-0.1,0.6,0.5,0.6,0.9,0.8c1.6,0.7,3.2,0.9,4.9,0.8c0.4,0,0.8-0.1,1.1,0.2
		c1.2,0,2.4,0,3.6,0.1c0.4,0,0.8-0.2,1,0.4c0.3,0,0.6,0,0.9,0c0.6-0.6,2.6-0.4,3.2-0.4c-1.7-1.2-2.4-1.4-1.1-2.8
		c0.2-0.2-0.5-1.1-0.2-1c0.3,0,1.7,0.5,1.7-0.1C-76.5,442.7-77.4,441.9-78.3,441.7z M-145.4,437.9c1,0.3,1.9,0.5,2.8,0.8
		C-143.5,438.4-144.5,438.2-145.4,437.9z M-129.2,441.9L-129.2,441.9C-129.1,441.8-129.1,441.8-129.2,441.9L-129.2,441.9z"/>
	<path class="st11" d="M-101.1,447.4c-0.6,0-2.5,0-2.5,0c0.4-0.4,0.2-1.1,0.4-1.6C-102.4,446.1-101.5,446.9-101.1,447.4z"/>
	<path class="st4" d="M-122.4,441.2c-0.4,0-0.6-0.3-0.8-0.6c0.5-0.1,0.9-0.3,1.1,0.4C-122.2,441-122.3,441.1-122.4,441.2z"/>
	<path class="st11" d="M-129,441.8C-129,441.8-129.1,441.9-129,441.8c-0.1,0.1-0.1,0.1-0.1,0.1L-129,441.8
		C-129.1,441.8-129.1,441.8-129,441.8z"/>
	<path class="st11" d="M-85.7,447.2c-0.3-0.4-0.7-0.2-0.9-0.3c-1.7,0.1-3.3-0.1-4.9-0.8c-0.4-0.2-1-0.2-0.9-0.8
		c0.1-1-0.4-0.6-0.7-0.3c-0.8,0.8-1.8,0.9-2.8,1.2c-0.6,0.2-1.8,0.4-2.1,1.1c1.2,0,2.8-0.2,3.9-0.2v0.1c0.5,0,1,0,1.4,0.1
		c0-0.5,0.1-0.6,0.1-0.1C-90.3,447.2-88,447.2-85.7,447.2z"/>
	<path class="st12" d="M-156.3,432.8c0.7,0,1.5,0.3,2.2-0.2C-154.8,432.3-155.6,432-156.3,432.8z"/>
	<g>
		<path class="st12" d="M-47,444.8L-47,444.8L-47,444.8z"/>
		<path class="st12" d="M-76.1,433.8L-76.1,433.8L-76.1,433.8z"/>
	</g>
	<path class="st7" d="M25.7,431.9c0-0.2,0-0.4,0.2-0.5c0.4,0.3,0.2,0.6,0.2,1C26,432.2,25.9,432,25.7,431.9z"/>
	<path class="st12" d="M24.3,433.5c-0.5,0-0.7-0.2-0.7-0.7C24,432.8,24.2,433.1,24.3,433.5z"/>
	<path class="st12" d="M34.6,432.3c0,0.2,0.1,0.5-0.2,0.6c0,0-0.2,0-0.2-0.1c-0.1-0.2,0-0.4,0.2-0.5
		C34.4,432.3,34.5,432.3,34.6,432.3z"/>
	<path class="st12" d="M25.9,434.3c-0.3-0.1-0.5-0.4-0.5-0.7c0.2-0.1,0.3-0.2,0.5-0.2C25.9,433.6,25.9,433.9,25.9,434.3z"/>
	<path class="st12" d="M13,431.4c0,0.3-0.1,0.6-0.5,0.2C12.6,431.4,12.8,431.4,13,431.4z"/>
	<path class="st4" d="M1.8,438.5c0.1,0.1,0.2,0.1,0.3,0.2c0.1,0.2-0.2,0.4-0.3,0.4s-0.4-0.2-0.4-0.3C1.5,438.8,1.8,438.6,1.8,438.5z
		"/>
	<path class="st4" d="M-10.3,441.9c-0.3,0-0.5-0.2-0.5-0.5c0.2,0,0.3,0,0.5,0C-10.3,441.6-10.3,441.8-10.3,441.9z"/>
	<path class="st4" d="M45.4,445.8c-0.1,0.1-0.2,0.1-0.2,0.2C45.2,445.9,45.3,445.9,45.4,445.8z"/>
	<path class="st4" d="M33.4,444.8L33.4,444.8L33.4,444.8L33.4,444.8z"/>
	<path class="st4" d="M62.4,444.3c0.2,0.2,0.4,0.7,0.1,0.7c-0.3,0.1-0.5-0.4-0.6-0.7C62.1,444.4,62.3,444.3,62.4,444.3z"/>
	<path class="st2" d="M-16.3,415.5c-0.1-0.1-0.2-0.2-0.2-0.2c-0.3-1-1.2-0.6-1.9-0.8c0-0.1,0-0.3,0-0.4c-0.6,0-1.3-0.1-1.9,0
		c-1.3,0.2-2.8,0.2-3.9,1.2c0.9-0.2,1.7-0.4,2.6-0.2c0.7,0.1,1.6,0.2,1.6,1.3c-0.8,0-1.5-0.4-2.3,0.2c2.3,1,3.8,2.5,4.3,4.9
		c0.3-0.9,0.3-0.9-0.2-2c-0.7-1.6-0.6-2,1.1-2.6C-16.3,416.6-16.3,416.1-16.3,415.5z"/>
	<path class="st10" d="M-100.1,434.3c0,0.6,0,1.3,0,1.9c-0.4,0-0.7,0-0.7-0.5C-100.8,435.1-100.8,434.4-100.1,434.3z"/>
	<path class="st2" d="M-76.1,433.8c0.6,0,0.5,0.7,1,1c-0.1,0.2,0.2,0.8-0.5,0.5C-75.8,434.8-76.1,434.3-76.1,433.8z"/>
	<path class="st10" d="M-100,436.6c0.3,0.1,0.5,0.3,0.4,0.7s-0.4,0.3-0.7,0.3C-100.3,437.3-100.2,437-100,436.6z"/>
	<path class="st10" d="M-104.9,436.7c-0.5,0-0.9-0.1-1.2-0.5C-105.6,436.3-105,435.9-104.9,436.7z"/>
	<path class="st4" d="M-124.8,433.1C-124.8,433-124.7,433-124.8,433.1C-124.7,433-124.8,433-124.8,433.1L-124.8,433.1z"/>
	<path class="st4" d="M33.4,444.8L33.4,444.8L33.4,444.8z"/>
	<path class="st4" d="M-34.3,442.4c-0.1,0.1-0.1,0.3-0.2,0.3c-0.2,0.1-0.3-0.2-0.3-0.3C-34.6,442.4-34.5,442.4-34.3,442.4z"/>
	<path class="st13" d="M-55.9,443.9c-0.1,0.1-0.3,0.2-0.6,0.3c0,0,0.2-0.2,0.2-0.3c-0.1-0.7-0.4-1.1-0.5-1.8c-0.2,0.8-0.7,1.5,0,2.2
		l-0.1,0.1c0.5,1.2-0.1,1.8-1.1,2.1c-0.3,0.1-0.5,0.2-0.8,0.3c-0.2-0.1-0.4-0.1-0.7,0c0,0.1,0.1,0.1,0.2,0.2c-0.1,0,0.3-0.4,0.2-0.5
		c0-0.2,0.1-0.3,0.1-0.5c0.4-0.6-0.3-0.9-0.7-1.2c-0.5-0.4-1.2-0.7-1.6-1.2c-0.6-0.9-1.2-0.3-1.9,0.3c-1.1,1-2.1,1-3.4,0.1
		c-0.6-0.4-1.4,0-2,0.3c-2,0.8-3.5,0.8-4.8-1.3c-0.2-0.2-0.5-0.6-0.7-0.4c-0.4,0.3-0.1,0.8,0,1.1c0.2,0.3,0.4,0.5,0.6,0.7
		c0.4,0.4,0.4,0.7,0,1.1c-0.6,0.6-0.8,1.4-1.5,1.9c2.3,0,4.6,0,7,0c5,0,10.5-0.3,15.5-0.3C-53.9,446-55.2,445.4-55.9,443.9z"/>
	<g>
		<path class="st5" d="M88,436.7c-0.1,0-0.1,0-0.2,0v0.1c-0.5,0.7-0.5,0.6,0-0.2c0.1,0,0.1,0,0.2,0c-0.1-0.9-0.6-1.6-1.4-2
			c-0.8-0.3-0.6-0.6-0.3-1.1c0.9-1.5,0.9-2.5,0-3.7c-0.8-1-2.6-1.5-3.9-0.8c-0.9,0.4-1-0.1-1.1-0.7c-0.6,0.1-1-0.4-1.5-0.3
			c-0.8-0.3-1.6-0.8-2.4,0.1c-0.5,0.4-0.6-0.2-0.7-0.5c-0.2-0.8-0.7-1.6-1.3-2.1c-1-0.9-3.2-0.8-4.2,0.1c-0.5,0.4-0.8,0.4-1.3,0.1
			c-1-0.6-2.1-0.7-3.2-0.8c-0.5,0.3-1,0.6-1.5,0.9c-0.4,0.2-0.6,0.4-0.2,0.8c0.4,0,0.6-0.1,0.6-0.2c0,0.1,0.1,0.3,0.4,0.6
			c-1.2-0.3,0.3,0.3-1,0.3c-0.1,0.6-0.4,1.1-1,1.4c0.1,0.7,0.8,0.6,1.1,1c0.2,0.3,0.8,0.4,0.8,0.9c0,0.2,0,0.5,0,0.7
			c1.3-0.5,2.6-0.7,3.9-0.1c1.1,0.5,1.6,1.6,0.9,2.6c-0.4,0.7-0.3,0.8,0.3,1.1c0.8,0.4,1,1.3,1.2,2.2c0,0.1,0,0.1,0,0.2
			c-0.5,0-5.4,1.7-5.9,2.3c-0.3,0.3-0.5,0.6-0.8,0.7c-1.1,0-2.1,0-3.1-0.8c-0.2-0.2-0.5-0.1-0.8,0c-0.4,0.3-0.8,0.6-1.2,0.7
			c-1.7,0.6-2.4,0.8-3-1.2c0-0.1,0-0.3-0.2-0.4c-0.3,0-0.4,0.2-0.5,0.4c-0.8,1.1-1.5,2.3-3.1,2.4c-1.1,0.1-2-0.3-2.1-1.4
			c-0.1-0.9-0.3-0.9-1-0.5c-1.5,0.8-2.9,0.5-4.1-0.7c-0.1-0.1-0.3-0.2-0.4-0.2c-0.2,0-0.6-0.3-0.7-0.1c0,0.6-0.4,1.7-0.4,2.3
			c0,0.4-0.6,1.8-0.1,2.1c0.6,0.3,0.9,0.1,1.3-0.1c0.3-0.2,0.4-0.9,0.8-0.7c0.3,0.2,0.5-0.1,0.6,0.4c0.1,0.7,0.1,0.7-0.7,1
			c0,1.1,0.6,1.8-0.5,2.1c-0.1,0.1-0.2,0.1-0.2,0.2c-0.7,0.4-1.4,0.2-2.2,0.2c-0.1-0.3-0.2-0.5-0.5-0.4c-1.2,0.1-1.1-0.7-1-1.4
			c0.1-0.3,0.2-0.7,0.4-1c0.1-0.3,0.5-0.5,0.2-0.8c-0.3-0.2-0.5,0.2-0.7,0.3c-0.8,0.5-1.6,0.8-2.6,0.8c-1.1-0.1-3-1-4.1-1.2
			c0.8,1.3,2.6,2.5,3.7,2.8c0.5,0.4,0.6-0.1,0.3,0.7c-1.4,0.8-1.9,1-3.3,0.2c-0.5-0.3-3.8-0.4-4.3-0.1c-0.6,0.4,0.7,1,0,1
			c2.5,0,6.5,0.1,8.4,0.1c3.9,0,7.6,0,11.6,0c0.1,0.1,0.3,0,0.3,0c0.4,0,0.8,0.1,1.4,0c2.1,0,4.3,0,6.4,0c-0.5,0,7.6,0,8,0
			c1.6,0,3.2,0,4.9,0c2.3,0,4.7,0,7,0c0.3-0.3,0.4-0.6,0.6-1c0-1-0.5-1.8-1.1-2.6c1.5-0.2,1.8-1.5,2-2.7c0.1,0,0.1-0.1,0.2-0.1h0.1
			c0.6,0.3,1.1,0.5,1.6,0.8c0.7,0.3,1.3,0.8,2.2,0.6C87.7,441.6,88.9,439.1,88,436.7z M76.5,441.5L76.5,441.5L76.5,441.5L76.5,441.5
			z"/>
		<path class="st5" d="M33,446.6h-0.1C33,446.6,33,446.6,33,446.6z"/>
		<path class="st5" d="M33.9,445.9c0.4-0.7,0.6-0.4,0.7-1.5c-0.7,0.8-2.3,1.2-3.5,0.5c-0.1-0.8,0.1-0.3,0.6-0.5
			c0.3-0.1,1.7-0.9,1.6-1.3c0-0.4-1.8-0.7-2.1-0.8c-1.1-0.4-2.3,0.4-3.4,0.8c-0.6,0.2-1.3,0.1-1.1,1c0.3,1-0.3,0.4-0.9,0.3
			c-0.4,0-0.6-0.4-0.9-0.4c-0.9,0-1.6-0.2-2.6,0.2c-0.6,0-1.1,0-1.7,0.1c-0.1,0.2,0.1-0.3-0.2-0.3c-0.2,0-0.3-0.1-0.3-0.3
			c-0.7-0.5-1.4-0.6-2.2-1c-0.2,0-0.8,0.6-0.9,0.3c-0.2,0,0-0.8-0.2-0.8c-1,0.2-1.2,0-1.2-0.9c-0.2-0.3-0.6-0.3-1.1-0.4
			c-0.1-0.5-0.7-0.4-1.1-0.6c-1.2-0.2-2.3,0.6-3.4,0.8c0,0.1-4-0.9-3.7-2c0.2-0.6-1-0.5-1.4-0.4s-0.5,0-0.9-0.2
			c-0.6-0.4-1.4,0.2-1.8,0.5c0.1,0.5,1.1,0.9,0.3,1.5c-1.1,0.3-2.7-0.8-2.7-2.2c-0.4,0.3-1.6,0.6-1.8,1c0,0.3-0.1,0.4-0.1,0.4
			s0,0.1-0.1,0.1c-0.6,0.1-1,0.3-1.4,0.6c-0.1,0-0.2,0-0.2-0.1c-0.6,0-0.7-0.3-1.3-0.3c-0.5-0.5-1.1-0.9-1.5-1.4
			c-0.2-0.2-0.8-0.1-0.9,0.1c-0.6,1.3-1.8,1.9-3.1,2.5c0,0.2,0,0.3,0,0.5c-0.3,0-0.5-0.2-0.5-0.5c-0.5,0-0.3-1.2-0.8-1.2
			c-0.6-0.8-1.2-0.6-1.5-1.7c-0.4-1.6-1.6-1-3.2-1.3c-0.1,0-0.2-0.1-0.3-0.2c-1.1,0.1-0.6-0.8-1.3-1.5c-0.3-0.3-0.9-0.1-0.7-0.6
			s-0.2-0.4,0.2-0.4c0.9,0,2.6-0.2,3.4-1c-0.7,0-2.3,0.1-2.8,0.1c-2.2,0.3-3.7-1-5.7-1.9c-0.1,1.1,0.4,1.7,1,2.2
			c0.2,0.2,0.7,0.1,0.6,0.6c-0.1,0.3-0.5,0.4-0.8,0.5c-1.1,0.2-1-0.5-1.9-1.1c-0.8-0.6-2.3,0-2.6,1c-0.4,1.5-1.6,2.2-3,2.6
			c-0.6,0.2,0.8-0.6,0.9-1.2c0.2-0.9-0.7-1.6-0.9-2.6c-1.1,1-1.8,3-2.8,3.8c-0.7,1.5-1.9,2.4-3.4,3.1c1.6,0.2,3,0.1,4.3-0.3
			c0.2-0.1,0.3-0.8,0.5-0.5c0.2,0.2,0,0-0.1,0.3c-0.2,0.5-0.4,1-0.7,1.5c-0.8,0.2-1.4,1-2.4,0.8c-0.1,0.1,0,0-0.2,0.3
			c-0.2,0.1-0.3-0.2-0.3-0.3c-0.6-0.1-1-0.6-1.6-0.8c-0.4-0.4-0.8-0.6-1.3-0.7c-0.1,0-0.5-0.5-0.5-0.5c-0.2-0.7-0.9-0.5-1.5-0.6
			c-0.6,0-0.5,1-0.8,1.5c0,0.1,0,0.2,0,0.2c-0.6,0.4-0.8,1.3-1.7,1.4c-0.5,0.1,0.5-0.3,0.1-0.8s0.3-0.2,0.4-0.7c0.2-0.6-0.5-1.3-1-2
			c-1.2,2-3.3,3.4-5.5,4.2c0.3,0.3,0.6,0.4,0.8,0.4c0,0.1,0,0.1,0,0.2c0.1,0.2,0.3,0.3,0.5,0.3c0.1,0.3,0.1,0.6,0.5,0.2
			c0.2,0-0.2,0.5,0,0.5c0,0.2,0.5,0,0.5,0.2c-1,0.6-2,1.5-3.3,1.2c-0.2,0-0.4,0.6-0.6,0.7c1.9,0,4.1,0,6,0c0.2,0,0.6,0,0.8,0
			c1.8,0,5.2,0,5.1,0c1.5,0,1.8,0,2.7,0c1.2,0,2.3,0,3.5,0c0.3,0,0.8,0,1.1,0c6.2,0,12.5,0,18.7,0c3.5,0,7,0.1,10.5,0
			c4-0.1,7.8,0.1,11.8,0c1,0,2-0.2,3.1-0.1c0.1,0,0.3,0,0.4,0c0.3-0.5,1.1,0.1,1.6,0.1c1.8,0.1,3.5-0.1,5.3,0c1.8,0.2,3.7,0.1,5.6,0
			c1.3,0,2.5-0.1,3.8-0.1c0.6,0.2,1.2,0.3,1.8,0c0.7,0,1.1,0,1.9,0c-0.2,0-0.3-0.5-0.5-0.5C31.8,446.4,34.2,445.9,33.9,445.9z
			 M-11.4,445.9C-11.4,445.9-11.3,445.8-11.4,445.9L-11.4,445.9z M-11.4,445.9C-11.3,445.8-11.3,445.9-11.4,445.9L-11.4,445.9z"/>
	</g>
	<path class="st7" d="M71.1,434.7c-0.6-0.3-0.7-0.4-0.3-1.1c0.7-1,0.2-2.1-0.9-2.6c-1.3-0.6-2.6-0.4-3.9,0.1c0-0.2,0-0.5,0-0.7
		c-1,0.4-1.8,0.3-2.4-0.6c-0.4-0.6-0.4-1.1,0.5-1.3c0.6-0.3,0.9-0.8,1-1.4c-0.9,0.1-1.7,0.1-2.5,0.6c-0.2,0.2-0.5,0.4-0.7,0.2
		c-0.3-0.3,0.1-0.5,0.3-0.7c0.3-0.4,0.7-0.7-0.1-1c-1.5-0.6-4,0.1-4.9,1.5c-0.3,0.6-0.5,0.5-0.8,0.1c-0.7-1.1-1.8-1.5-3-1.2
		c-1.1,0.3-0.9,1.5-1.1,2.4c-0.1,0.6,0.2,1.5-0.7,1.8c0-0.2,0-0.3,0-0.5c0.1-1.9-0.5-3.5-1.9-4.8c0.3-0.2,0.4-0.1,0.5,0
		c0.5,0.5,1,0.8,1.6,0.3c0.5-0.4,0.6-1.1,0.4-1.8c-0.3-0.9-0.9-1.4-1.7-1.6c-1.1-0.2-2.3-0.2-3.1,0.8c-0.5,0.7-0.8,0.7-1.2-0.1
		c-0.6-1-1.5-1.4-2.6-1.3c-1.4,0.1-3,1.6-3.2,3.1c-0.1,0.5-0.2,0.9-0.8,1c-0.8,0.2-1.3,1.3-0.8,2c0.5,0.8,1.2,1.4,1.8,2.2
		c-0.5-0.4-1,0.4-1.7,0.3c-1.3-0.2-2.3,0.8-3.5,1c-0.4,0.1-0.3,0.4-0.3,0.7c-0.2,0-0.3,0-0.5,0c0,0.2,0.1,0.5-0.2,0.6
		c0,0-0.2,0-0.2-0.1c-0.1-0.2,0-0.4,0.2-0.5c0-0.2,0-0.4,0-0.6c0.4-0.4,0.6-0.7-0.1-1.1c-1-0.3-1.6,0.1-1.9,1.1
		c-0.2,0.3-0.6,0.4-0.9,0.4c-1,0-0.8-1.2-1.4-1.5c-0.3,0-0.5,0-0.7-0.2c-0.6,0-1.1,0-1.7,0c-0.3,0.3-0.8,0.4-1.2,0.5
		c-0.2,0-0.3,0-0.5,0c0,0.2,0,0.3,0,0.5c0.4,0.3,0.2,0.6,0.2,1c0,0.3-0.1,0.7-0.2,1c0,0.3,0,0.6,0,1c-0.3-0.1-0.5-0.4-0.5-0.7
		c-0.4,0-0.8,0-1.2,0c-0.5,0-0.7-0.2-0.7-0.7c-0.5,0-1-0.1-1.4-0.5c-0.8-1.1-1.9-1.9-3.2-1.9c-1.5,0-2.9,0.1-4.4,0.3
		c-0.4,0.1-1.1-0.1-1.3,0.6c-0.1,0-0.2,0-0.2,0c0,0.3-0.1,0.6-0.5,0.2c-0.4,0-0.8,0-1.2,0c-0.1,0-0.1,0-0.2,0
		c-0.5-0.5-1.2-0.3-1.9-0.3l-0.1-0.1c-0.4-0.6-0.3-1.1,0.3-1.6c0.4-0.3,0.7-0.8,1-1.2c0.4-0.5,1-1.1,0.5-1.8c-0.5-0.8-1.3-1-2.2-0.9
		s-1.7,0.4-2.4,0.9s-1.2,0.4-1.8-0.2c-0.8-0.8-1.9-0.9-3-0.7c-1,0.2-1.7,1.3-2.5,1.2s-1.3-1.3-2.2-1.7c-0.8-0.4-1.5-0.4-2.1,0.3
		c-0.6,0.8-0.1,1.3,0.4,1.9c0.7,0.8,1.3,1.5,2,2.2c-2.4-1.4-4.8-2.1-7.7-1.4c0.7-1.1,1.6-1.2,2.5-1.5c1.2-0.3,1.7-1,1.6-2.2
		c-0.1-1.1-0.5-1.9-1.4-2.6c-1.5-1.3-3.8-0.7-4.3,1.2c-0.2,0.6-0.2,1-0.9,0.3c-1.2-1-2.6-0.9-3.6,0c-0.5,0.5-0.7,0.9,0.2,1.1
		c0.9,0.2,1.4,0.8,1.9,1.5c0.3,0.4,0.4,0.9,0.1,1.2c-0.4,0.5-0.6-0.2-0.9-0.4c-1.6-1-3.3-1.9-5.2-0.8c-0.4,0.2-0.8,0.6-1.4,0.3
		c0.5-0.9,1.2-1.5,2.1-1.7c0.9-0.3,0.9-0.6,0.2-1.2c-2.2-1.6-4.6-0.9-6,1.5c-0.5,0.9-0.8,0.8-1.5,0.6c-1.8-0.5-3.4-0.4-5,0.7
		c-0.5,0.3-0.7,0.7-0.6,1.3c0.1,0.7,0.7,0.5,1.1,0.7c1,0.4,2.2-0.1,3.4,0.9c-2.6-0.1-4.8-0.1-6.5,1.8c-0.1,0.1-0.3,0.1-0.4,0
		c-0.2-0.1-0.2-0.3-0.2-0.5c0-0.4,0.4-0.6,0.6-0.9c0.6-0.6,0.4-1.1-0.3-1.4c-1.1-0.5-2.1-0.3-3.2,0.2c-1.1,0.4-1.8,1.4-1.3,2.4
		s-0.1,0.8-0.6,0.8c-1-0.1-1.9,0.1-2.7,0.7c-0.3,0.2-0.8,0.2-0.6,0.7c0.2,0.4,0.6,0.2,0.9,0.1c0.8-0.2,1.5-0.1,2.1,0.4
		c-2.2,0.2-4,1-5.2,2.9c-0.1,0.1-0.3,0.2-0.5,0.2c-0.1-0.6,0.1-1.2,0.3-1.8c0.3-0.6,0.1-0.9-0.6-0.9c-1.3-0.1-2.5,0.2-3.3,1.3
		c-0.4,0.6-0.7,0.5-1.2,0.2c-1.1-0.7-2.3-0.9-3.5-0.2c-0.3,0.2-0.6,0.4-0.6,0.7c0,0.5,0.4,0.3,0.7,0.4c0.8,0.3,1.8,0.4,2.1,1.6
		c-2.1-0.4-4.1-1.3-6.1,0.1c0.1-0.8,0.6-1,0.9-1.4c0.5-0.6,1.2-1,0.8-1.9s-1.2-1.2-2.1-1.1c-1.1,0.1-2.3,0.4-2.6-1.2
		c0-0.1-0.3-0.2-0.4-0.3c-1-0.8-2-0.4-3.1,0c-0.5,0.2-1.1,0.6-1.5-0.1c-0.5-1.2-1.6-1.8-2.6-2.4c0-0.4-0.2-0.6-0.5-0.7
		c-1.1-0.3-2.7,0.3-3.1,1.3c-0.3,0.9-0.9,1.1-1.6,1.3c-1.7,0.4-1.7,0.4-1.7,2.2c0.6,0,0.5,0.7,0.9,1c-0.1,0.2,0.2,0.8-0.5,0.5
		c-0.2-0.5-0.5-0.9-0.5-1.4c-0.7,0-1.1-0.6-1.7-1c-0.4-0.6,0.1-0.9,0.5-1.1c0.5-0.2,0.5-0.6,0.5-1c-0.2-1.3-2.4-2.3-3.5-1.6
		c-0.6,0.4-1.2,1.1-1.3-0.4c0-0.3-0.4-0.5-0.6-0.7c-1.5-1.1-2.7-0.1-4,0.4c-0.7,0.3-0.5,0.6,0,1s1.1,0.7,1.5,1.4
		c-1.5-0.6-2.8,0.1-4.2,0.3c-0.3,0-0.7,0.1-0.9-0.2c-0.2-0.4,0.2-0.6,0.3-0.8c0.2-0.2,0.8-0.4,0.3-0.8c-1-0.8-2.2-0.9-3.4-0.7
		c-0.4,0.1-0.5,0.4-0.3,0.6c0.8,0.9,0.7,2,1.1,3c0,0.2,0.1,0.5-0.2,0.6c-0.3,0.1-0.3-0.3-0.5-0.4c-0.8-1.4-1.9-2.5-3.3-3.3
		c-0.2-0.1-0.5-0.2-0.4-0.5s0.4-0.2,0.6-0.2s0.4,0,0.6,0c0.3,0,0.6,0.1,0.7-0.3c0.2-0.3,0-0.6-0.2-0.9c-1.3-1.6-3.5-2-5.3-1.1
		c-1.1,0.5-1.1,0.8-0.1,1.5c-0.1,0.3-0.3,0.3-0.6,0.3c-1.5,0-2.5,1-3.4,2c-0.2,0.2-0.4,0.7-0.8,0.5c-0.3-0.2-0.2-0.7-0.1-1
		c0.2-0.5,0.4-1,0.6-1.6c0.3-1.1-0.3-2-1.4-2.3c-1.4-0.4-2.7-0.3-3.7,0.8c-0.3,0.4-0.6,0.3-1.1,0.2c-0.8-0.2-1.6,0.1-2.1,0.9
		c-0.3,0.6-0.7,1.2,0.5,1.3c0.5,0,0.7,0.4,1,0.8c-1.8-0.5-3.2,0.3-4.6,1c-0.1,0.1-0.3,0-0.4-0.1c0-0.1,0-0.3,0.1-0.4
		c0.4-0.5,0.8-1,1.3-1.4c1-0.9,0.8-2.3-0.4-2.8c-1.1-0.5-2.4-0.8-3.5,0.1c-0.4,0.3-0.6,0.4-0.9-0.1c-0.8-1.3-1.8-1.5-3.1-0.7
		c-0.3,0.2-0.6,0.4-0.9,0.6c-0.6,0.7-1.1,1-2.1,0.6c-0.9-0.4-2,0-2.9,0.8c-0.6,0.5-0.5,1,0.1,1.3c0.7,0.3,1,1,1.6,1.5
		c0.2,0.2,0.3,0.4,0.1,0.6s-0.4,0-0.5-0.1c-1.5-1.1-3.2-1.4-5-1c-0.1-0.6,0.4-0.6,0.7-0.8c0.4-0.3,1.3-0.5,1.1-1.2
		c-0.3-0.7-0.8-1.4-1.7-1.5c-1.5-0.2-2.5,0.7-2.5,2.3c0,1-0.2,1.5-1.4,1.1c-0.7-0.2-1.3,0-1.8,0.6c-0.5,0.7,0.1,1.2,0.4,1.7
		c0.2,0.3,0.6,0.5,0.6,1c-0.2,0-0.5,0-0.6-0.1c-1.1-1.1-2.4-1.7-3.8-2c0.1-0.5,0.4-0.5,0.6-0.6c1.4-0.6,1.5-0.7,0.2-1.7
		c-1.3-1.1-3.5-0.8-4.4,0.6c-0.2,0.4-0.6,0.3-0.9,0.5c-1.4,0.6-2.8,0-4.1,0.2c-1-1.6-0.9-2.1,1-2.4c0.9-0.2,1.6-0.5,2-1.4
		c0.5-1.1,1.4-1.8,2.8-1.7c0.5,0.1,0.8,0,0.8-0.7c0-1.4,1.2-1.5,2.4-1.7c-0.1-0.5-0.7-0.8-0.6-1.4c-1.5,0-2.6,0.6-3.3,2
		c-0.3,0.6-0.5,1-1.4,0.6s-1.8,0.1-2.5,0.8c-0.8,0.8-0.5,2.3-1.4,2.7s-2.2,0.2-3.2,0.6c-1.4,0.5-2.6,1.3-4.2,1.3
		c-1.7-0.1-2,0.2-2.5,1.8c-0.2,0.8-1.1,1.2-1.8,0.7c-0.3-0.2-1.6-0.5-0.5-1.4c0.3-0.3-0.1-0.5-0.4-0.6c0,0.6-0.4,0.7-0.9,0.8
		c-0.6,0.1-1.1,0.4-1.5,0.9c-0.9,1.2-0.6,3.2,0.6,4.6c0.8,1,2.6,1.3,3.8,0.6c0.5-0.3,0.9-0.2,1.4,0c1,0.4,1.5,1.4,2.4,1.9
		c0.1-0.7-0.7-1.1-0.7-1.8c-0.3-0.5-0.5-1.1,0.2-1.5c0-0.1,0-0.3,0.1-0.4c0-0.3,0.2-0.5,0.5-0.5c0.1,0,0.3,0,0.4,0
		c0.7-0.7,1.4-0.5,2.2-0.2c0.2,0,0.5,0,0.7,0c0.7,0.7,1.2,0.6,1.7-0.3c0.3-0.2,0.6-0.3,1-0.2c0.1,0,0.2,0,0.2,0
		c0,0.3,0.2,0.5,0.5,0.5c0.2,0.8-0.6,1.6,0,2.4c0.2,0,0.5,0,0.7,0c0.2,0.1,0.3,0.2,0.5,0.3c0.2,0,0.3,0,0.5,0.1
		c-0.2,0-0.3-0.1-0.5-0.1c0.3,0.4,0.6,0.9,1.2,0.5c0.6-0.1,0.9,0.4,1.4,0.5c0.8-0.1,1.6-0.4,2.1-1c0.6-0.7,1.1-0.6,1.7-0.1
		c0.6,0.6,1.3,1.1,2.1,1.3c0.6,0.1,1.1,0.1,1.5-0.4c0.5-0.6,0.7-1.1-0.2-1.5c-0.8-0.4-1.4-1.1-2-1.7c-0.4-0.4-0.7-1-0.4-1.6
		c4.2,3.1,4.4,3.1,6.6,0.9c0.6,1.5,0,2.2-2.2,2.6c0.9,2.4,2.4,3.2,4.8,2.5c0.1-0.2,0.2-0.3,0.3-0.5c0-0.2,0-0.4,0.1-0.6
		c0.3-0.5-0.6-1.2,0.1-1.5c0.4-0.1,1,0.4,1.5,0.6c2.4,0.9,3.7,0.4,4.7-2c-0.1-0.8,0.2-1,0.9-0.7c0.3,0.8,0.4,1.5-0.7,1.7
		c0,0.6,0,1.3,0,1.9c0.1,0.7,0.2,1.4,0.3,2.1c-0.7-0.1-1.2-0.3-1.5-0.9c-0.3-0.7-0.7-0.6-1.1-0.2c-0.5,0.3-0.8,0.8-0.8,1.4
		c-0.1,1.7,0.9,2.7,2.2,3.5c0.9,0.6,1.9,0.7,2.9-0.1c0.2-0.1,0.4-0.3,0.5-0.2c0.6,1,1.9,1.3,2.3,2.5c0.5,0,1.1,0,1.6,0
		c0.1-0.1,0.2-0.1,0.3-0.2c0.1,0,0.2,0,0.2,0c0.1-0.1,0.2-0.1,0.3-0.2c0.4,0,0.5-0.4,0.7-0.7c-0.6-0.7-1.4-0.6-2.2-0.7
		c-1.2-0.1-2.3-0.2-3.1-1.2c-0.4,0-0.6-0.3-0.8-0.6c0.5-0.1,0.9-0.3,1.1,0.4c0.4,0,0.9,0,1.3,0.1c2,0.6,4,1,5.8-0.5
		c0,0,0.1,0,0.2,0.1c0.1,0.3-0.1,0.4-0.2,0.6c-0.5,1-0.2,1.7,1,1.8c1.1,0.1,2.2,0.2,3.2-0.3c1.1-0.6,1.9-1.1,3.2-0.7
		c0.8,0.3,1.3-0.8,2.1-1c0.1-0.2,0.1-0.5,0.2-0.7c0.9-1.5,0.9-1.6-0.6-2.7c0-0.3-0.1-0.6-0.3-0.9c-0.3-0.4-0.3-0.7,0.3-0.8
		c0.4,0.1,1.1-0.3,1.2,0.5c0.3,0.3,0.6,0.4,1,0.5v-0.1c0.8,0.3,1.8,0.5,2.7,0.6c-0.2-0.3-0.4-0.8-0.5-1.1c0.3,0,0.5,0.8,0.8,1.3
		c0.3,0,0.5,0.1,0.7-0.2c0-0.4,0.1-0.7,0.2-1c0-0.2,0-0.3,0-0.5c-0.4,0-0.7,0-0.7-0.5c0-0.6,0-1.2,0.7-1.4c0.4-0.2,0.7-0.1,0.6,0.4
		c-0.1,0.7,0.1,1.4,0.6,2c0.2,1.2,1.3,1.9,1.9,2.9c-0.5,0.3-0.7,0.1-0.9-0.1c-0.5-0.4-1-0.7-1.6-0.5c-0.7,0.3-0.6,1.1-0.6,1.7
		c0,0.3,0,0.6,0,0.8c0,0.1,0.1,0.1,0.1,0.2c1.6,2.4,3.5,2.6,5.6,0.7c0.3-0.2,0.5-0.3,0.8-0.2c0.9,0.1,1.7-0.1,2.5-0.6
		c0.8-0.6,0.7-0.9-0.1-1.3c-0.6-0.3-1.3-0.5-1.6-1.3c2.1,0.2,4.2,0.7,6.3-0.3c-0.3,1-1,1.2-1.6,1.5c-0.9,0.4-0.8,0.9-0.1,1.4
		c1.4,1,2.9,1.3,4.5,0.4c0.5-0.3,1-0.6,1.5-0.1c0.8,0.6,1.6,0.5,2.5,0.1c0.5-0.2,0.9-0.3,1.4-0.2c0.8,0.2,0.9,1,0.9,1.5
		c0,0.6-0.5,0.2-0.8,0.1c-0.3,0-0.4,0.2-0.6,0.3c-1.3,1.4-1.1,2.2,0.6,3.5c1,0.3,2.1,0.4,3.1,0c0.7-0.5,1-1.3,1.5-1.9
		c0.4-0.4,0.3-0.7,0-1.1c-0.2-0.2-0.4-0.5-0.6-0.7c-0.1-0.2-0.6-0.5-0.2-0.8c0.3-0.2,0.6,0.1,0.7,0.3c1.4,2,3.2,1.9,5.1,1
		c0.6-0.2,1.1-0.3,1.7,0c1.3,0.9,2.6,0.6,3.7-0.4c0.7-0.6,1.1-0.8,1.7,0.1c0.3,0.5,1,0.8,1.5,1.2c0.4,0.3,0.9,0.6,0.5,1.2
		c0,0.2,0,0.3,0,0.5c0.2,0,0.5,0,0.7,0c0.3-0.1,0.5-0.2,0.8-0.3c1.1-0.3,1.6-1,1.1-2.1c-0.9-0.7-0.3-1.5-0.1-2.3
		c0.1,0.7,0.3,1.3,0.4,2c0.7,1.5,2.1,2.2,3.4,3.1c1.1,0,2.2,0,3.3,0c0.2-0.1,0.4-0.2,0.5-0.2c1.3,0.2,2.3-0.6,3.3-1.2
		c0-0.2,0-0.5,0-0.7c-0.2,0-0.3,0-0.5,0c-0.4,0.4-0.5,0.1-0.5-0.2c-0.2,0-0.4-0.1-0.5-0.3c0-0.1,0-0.1,0-0.2c-0.3,0-0.5-0.1-0.8-0.4
		c2.2-0.8,3.7-2.3,4.9-4.3c0.5,0.7,0.2,1.4-0.1,2c-0.1,0.4-0.5,0.7-0.1,1.2s0.9,0.4,1.4,0.3c0.9-0.1,1.1-1,1.7-1.4
		c0-0.1,0-0.2,0-0.2c0.3-0.5,0.2-1.5,0.8-1.5s1.2,0.7,1.4,1.5c0.1,0,0.2,0,0.2,0c0.5,0.1,1,0.3,1.4,0.7c0.6,0.1,1.3,0.2,1.9,0.3
		c0.2,0,0.3,0,0.5,0c1,0.3,1.6-0.6,2.4-0.8c0.2-0.5,0.4-1,0.7-1.5c0.1-0.2,0.2-0.5,0-0.7s-1.1-1.5-1-0.7c-1.3,0.4-0.1,0.3-1.7,0.1
		c1.5-0.7,0.9,0.2,1.5-1.3c1-0.8,1-2.3,2-3.3c0.2,1-0.8,2.3-1,3.1c-0.1,0.6,1.1,0.4,1.7,0.2c1.4-0.4,2.6-1.1,3-2.6
		c0.3-1,0.7-1.2,1.5-0.6c0.9,0.6,1.9,0.9,3,0.7c0.3,0,0.7-0.1,0.8-0.5c0.1-0.5-0.4-0.4-0.6-0.6c-0.6-0.5-1.6-0.8-1.5-1.8
		c2,0.9,3.9,1.8,6.2,1.5c0.5-0.1,0.1-0.3,0.8-0.3c-0.8,0.8-1.3,0.5-2.1,0.6c-0.4,0-0.5,0.3-0.7,0.8s0.2,0.9,0.5,1.1
		c0.7,0.7,1.5,1.4,2.6,1.2c0.1-0.3,0.3-0.4,0.6-0.5c-0.2,0.1-0.4,0.2-0.6,0.5c0.1,0.1,0.2,0.2,0.3,0.2c1.6,0.2,1.7,0.2,2.1,1.8
		c0.3,1.2,1.3,1.5,1.9,2.3c0.5,0,0.9,0,1.4,0c0.2,0,0.3,0,0.5,0c1.2-0.6,2.4-1.2,3.1-2.5c0.1-0.2,0.4,0,0.6,0.2
		c0.5,0.5,0.9,0.9,1.4,1.4c0.6,0,1.1,0,1.7,0c0.5-0.4,1-0.7,1.7-0.7c0.1-0.1,0.2-0.2,0.2-0.2c0.2-0.5,0.6-0.6,1.1-0.9
		c0,1.4,2.4,2.8,3.4,2.1c0.8-0.5-0.1-1-0.3-1.5c0.5-0.3,0.8-0.6,1.4-0.2c0.3,0.2,0.8,0,1.3-0.1c0.4-0.1,0.8-0.1,0.6,0.5
		c-0.3,1,0.3,1.2,1.1,1.4c1-0.2,1.9,0.4,2.9,0.5c1.1-0.2,2.2-1,3.4-0.8c0.4,0.1,0.8-0.1,1,0.5c0.6,0.1,0.7,0.6,1,1
		c0.5,0.4,1,0.8,1.4,1.2c0.2,0,0.5,0,0.7,0c0.4-0.3,0.4,0,0.5,0.3c0.8,0.4,1.7,0.5,2.4,1c0.3,0,0.5,0,0.8,0c0.6,0,1.1,0,1.7-0.1
		c0.9-0.4,1.6,0.5,2.5,0.4c0.3,0,0.7,0.2,1,0.3c0.6,0.1,1.2,0.2,0.9-0.8c-0.3-0.9,0.5-0.8,1.1-1c1.1-0.4,2-0.7,3.1-0.3
		c0.3,0.1,0.7-0.1,0.8,0.3c0,0.5-0.4,0.5-0.7,0.6c-0.5,0.2-1.2,0.4-1.1,1.2c1.2,0.7,2.3,0.4,3.4-0.2c-0.2,1.1-1.7,0.7-2.1,1.5
		c1,0.1,2.1,0.4,2.9-0.3c0.5-0.4,0.8,0,1.3,0.3c2.1-0.1,2.9-0.1,4.3-0.2c0.3-0.8,0-1.1-1-1.4c-1.2-0.3-2.4-0.7-3.1-2
		c1.2,0.2,2.1,0.8,3.1,0.9c1,0.1,1.8-0.3,2.6-0.8c0.2-0.1-0.1-0.2,0.2,0c0.3,0.3-0.3,0.3-0.4,0.5c-0.1,0.3-0.3,0.7-0.4,1
		c-0.1,0.7,0.5,1.5,1.7,1.4c0.3,0,0.4,0.2,0.5,0.4c0.7,0,1.5,0.2,2.2-0.2c0.1-0.1,0.2-0.1,0.2-0.2c1.2-0.3,1.5-1.1,1.4-2.2
		c0.8-0.3,0.8-0.9,0.7-1.6c-0.1-0.5-0.5-0.7-0.9-0.9s-0.6,0.3-0.9,0.5s-0.4,1-1,0.7c-0.5-0.3,0-0.8,0-1.2c0-0.6,0-1.3,0-1.9
		c0-0.2,0-0.4,0.3-0.5c0.1,0,0.3,0.1,0.4,0.2c1.2,1.2,2.6,1.5,4.1,0.7c0.7-0.4,0.9-0.3,1,0.5c0.1,1.1,0.9,1.5,2.1,1.4
		c1.6-0.1,2.3-1.3,3.1-2.4c0.1-0.2,0.2-0.5,0.5-0.4c0.2,0,0.2,0.2,0.2,0.4c0.7,2,1.3,1.8,3,1.2c0.4-0.2,0.8-0.5,1.2-0.7
		c0.3-0.2,0.5-0.3,0.8,0c1,0.9,2.2,0.8,3.4,0.8c0.6,0,0.9-0.4,1.3-0.8c0.6-0.6,1.2-0.8,1.8-0.2c2.3,0.7,4.1-0.3,4.1-2.4
		C72.2,436,71.9,435.1,71.1,434.7z M-152.4,432.5c0.1-0.1,0.2-0.1,0.2-0.2C-152.2,432.4-152.3,432.5-152.4,432.5z M-25.6,432.3
		c0.1,0,0.3,0,0.3,0.3C-25.3,432.4-25.5,432.4-25.6,432.3z M1.8,439c-0.1,0-0.2-0.1-0.2-0.2c0.1,0,0.1-0.1,0.2-0.2
		c0.1,0.1,0.2,0.1,0.3,0.2C2.1,439,1.9,439.1,1.8,439z"/>
	<path class="st1" d="M-35,417c-0.8,0.2-1.6,0.3-2.3,0.5c-0.8,0.3-1.5,0.9-1.5,1.8c0,1-0.5,1.1-1.3,1c-1.1,0.1-2.2-0.5-3.3-0.1
		c-0.6,0.2-0.6-0.4-0.4-0.8c0.3-1.1,1.6-1.9,2.9-1.4c1,0.3,1.2,0.1,1.7-0.8c0.5-1.1,1.4-2.1,2.9-2.2c0.6,0,1.4-0.1,1.5,0.6
		c0.1,0.7-0.8,0.1-1.1,0.5C-36,416.8-35.3,416.6-35,417z"/>
	<path class="st1" d="M-42,421.1c-0.1,1.3-1.2,0.9-1.9,1C-43.3,421.6-42.8,420.9-42,421.1z"/>
	<path class="st1" d="M-45.3,422.7c-0.7,0.3-1.3,0.3-1.9-0.2c0.4-0.9,1.3-1.1,2.1-1.4c0.2-0.1,0.5-0.1,0.7,0.1
		c0.2,0.3-0.1,0.4-0.2,0.6C-44.9,422.1-45.1,422.4-45.3,422.7z"/>
	<path class="st1" d="M-50.4,424.7c0,0.1,0,0.2,0,0.2c-0.1,1.6-0.2,1.7-1.9,1.4c-0.6,0-1-0.2-0.4-0.7
		C-52,425.1-51.3,424.6-50.4,424.7z"/>
</g>
</svg>
