<?xml version="1.0" encoding="utf-8"?>
<!-- Generator: Adobe Illustrator 19.0.0, SVG Export Plug-In . SVG Version: 6.00 Build 0)  -->
<svg version="1.1" id="Capa_1" xmlns="http://www.w3.org/2000/svg" xmlns:xlink="http://www.w3.org/1999/xlink" x="0px" y="0px"
	 viewBox="120 215.8 836 377" style="enable-background:new 120 215.8 836 377;" xml:space="preserve">
<style type="text/css">
	.st0{fill:#FFFFFF;}
	.st1{fill:#CBE4F3;}
	.st2{fill:#8EC3DA;}
</style>
<path id="nube" class="st0" d="M240.6,417.3c0,0-26.7-31.4-61.8-24c-23.2,4.9-35.6,23.7-38.6,32.2s-8.1,36.5,17.3,55.4
	c36.1,26.9,65.4,8.4,72.3,5.2c14.8-6.9,29.8-13.9,29.8-13.9s8.2,48.4,40.5,69c64.1,41,107.1,7.8,114.3,1.7s28.3-39,64.4-39
	c33.2,0,69.9,32.3,69.9,32.3s65,51.3,125.6,48c73.6-4,99.3-62.6,99.3-62.6s103.4,62.9,149.8-29.7C984,371,874.5,311.3,836,304.3
	c-44.4-8.1-104.8,21.3-104.8,21.3s-16.8-72.1-110.7-90.8c-82.4-16.4-132.7,58.4-132.7,58.4s-46.7-68.1-116.5-28.2
	C321.3,293.5,350,377.6,350,377.6s-35.3-35.1-76-18.8C236.8,373.8,240.6,417.3,240.6,417.3z"/>
<path class="st1" d="M255,421.6c0,0-15.9,6.5-30,4c-14.4-2.5-27-14-27-14s-45.2-17.9-42,33c1.6,25.7,50,24,50,24l74-34
	c0,0,5.7,88.5,63,96c63.9,8.4,103-46,103-46s32.2-17.5,63-9c32.6,9,64,44,64,44s52.6,33.2,100,28c44-4.8,90-55,90-55
	s73.6,28.1,111-1c57.2-44.5,20-107,20-107s-46.7-41-91-40c-40.5,1-79,44-79,44s-15-79.2-81-115c-56-30.4-100.7-4.9-112,2
	c-11.3,6.9-52.3,47.1-10,96c33.7,38.9,77.7,13,89,0s20.3-56.9-23-71c-48.4-15.8-41,41-41,41s-39.6-28,1-52c34.7-20.5,71,10,71,10
	s29.5,19.4,20,55c-7.3,27.3-18.5,41.3-35,50c-16.5,8.7-32.7,13.9-57,10c-30.5-4.9-62-28-62-28s-32.2-28.6-40-39
	c-7.8-10.4-19.6-25.9-21-42c-1-11.8,17-26,17-26s-20.8-10.4-35,1c-12.8,10.3-18,37-18,37s-3.9,24.7-11,44c-6.4,17.6-16,30-16,30
	s-11.7-12.5-29-15c-13.8-2-30,2-30,2c4.2-3.3-14.5,3.5-28,16C261.4,405.2,255,421.6,255,421.6z"/>
<path id="nube2-2" class="st2" d="M847,370.6c0,0,42,27.6,28.8,71.7C865,461,833.5,471,816,468.6c-15.4-2.1-34.7-19.1-39-34
	c-4.3-14.9,2.2-36.2,15-44c12.8-7.8,27.5-12.4,41-6c13.5,6.4,20.8,16.5,18,30s-22,25-22,25s11-18.6,1-30c-10-11.4-26.9-8.1-34,4
	c-7.1,12.1,2.1,32.3,17,38s33.5,3,47-11.3C881.5,417.5,847,370.6,847,370.6z"/>
<path class="st2" d="M164,413.6c0,0-18.3,17.9-14,35c4.2,16.4,20.8,27.6,27,31s18.2,6.6,33,2c27.8-8.6,59-25,59-25s1,21.2,16,54
	c9.9,21.6,46,31,46,31s29.3,8.4,57-2c23.1-8.6,37-26,37-26s28.3-23.7,58-22c30.8,1.8,63,29,63,29s69.8,51.5,129,47
	c64.1-4.8,99-60,99-60s41.9,27,78,24c29.7-2.5,55-35,55-35s27.8-59.1,17-100c-11.2-42.6-61-67-61-67s29.7,42.5,39,74
	c8.1,27.2-13,56-13,56s-19.1,20.5-47,25c-30.5,5-60-15-60-15s-12.7-5.7-22-24c-15.4-30.2,14-61,14-61s-21.5-1.7-33,10
	c-18.3,18.6-26,59-26,59s-13.7,40.6-51,48c-58.6,11.7-115-24-115-24s-68.5-43.7-108-65c-36.4-19.6-47-14-47-14s-32.3-1.8-52,12
	c-20.3,14.2-28,30.4-28,44c0,13.6,1.7,19.9,11,31c9.7,11.4,32,16,32,16s18.9,0.9,32-8c10.1-6.8,15-24,15-24s1.9-9,0-14
	c-2.9-7.9-4.1-8.1-10-14c-5.9-5.9-20-5-20-5s17.9,12.5,17,25c-1.3,19.9-23,21-23,21s-18,2.9-26-6c-9.4-10.4-8-27-8-27
	s4.2-19.6,18-28c13.2-8.1,32-6,32-6s18.3-1.8,32,9c11.6,9.1,18.4,19.7,19,31s1.1,25.8-10,40c-12.3,15.7-41,24-41,24s-25.7,6.3-49-1
	c-14.6-4.6-31-24-31-24s-11-20.9-12-43c-1-20.9,5-47,5-47s-16.8,21-34,32c-15.7,10-29,14-29,14s-41.8,10.7-62,0
	C158.7,443.6,164,413.6,164,413.6z"/>
</svg>
