<?xml version="1.0" encoding="utf-8"?>
<!-- Generator: Adobe Illustrator 19.0.0, SVG Export Plug-In . SVG Version: 6.00 Build 0)  -->
<svg version="1.0" id="Capa_1" xmlns="http://www.w3.org/2000/svg" xmlns:xlink="http://www.w3.org/1999/xlink" x="0px" y="0px"
	 viewBox="-162 298.8 277 217" style="enable-background:new -162 298.8 277 217;" xml:space="preserve">
<style type="text/css">
	.st0{opacity:0.9;}
	.st1{filter:url(#Adobe_OpacityMaskFilter);}
	.st2{mask:url(#SVGID_1_);}
	.st3{fill:#EFEDED;}
	.st4{fill:#964B00;}
	.st5{fill:#BC8B35;}
	.st6{fill:#4A641C;}
	.st7{fill:#BA7827;}
	.st8{fill:#D8A553;}
	.st9{fill:#607D2E;}
	.st10{fill:#EDCA76;}
	.st11{fill:#C58343;}
</style>
<g class="st0">
	<defs>
		<filter id="Adobe_OpacityMaskFilter" filterUnits="userSpaceOnUse" x="-90.9" y="306.1" width="131.2" height="52">
			<feFlood  style="flood-color:white;flood-opacity:1" result="back"/>
			<feBlend  in="SourceGraphic" in2="back" mode="normal"/>
		</filter>
	</defs>
	<mask maskUnits="userSpaceOnUse" x="-90.9" y="306.1" width="131.2" height="52" id="SVGID_1_">
		<g class="st1">
			<image style="overflow:visible;" width="136" height="57" xlink:href="13FCD0C3.jpg"  transform="matrix(1 0 0 1 -93 303.89)">
			</image>
		</g>
	</mask>
	<g class="st2">
		<path class="st3" d="M39.2,330.9c0,0,0-0.3,0-0.8c0-0.3-0.1-0.6-0.1-0.9c0-0.4-0.2-0.8-0.4-1.2c-0.7-1.9-2.6-4.3-5.7-6.5
			c-3.1-2.2-7.4-4.1-12.6-5.7c-5.1-1.6-11.1-2.7-17.6-3.4c-6.5-0.7-13.7-1-21.2-1c-1.9,0-3.8,0.1-5.7,0.1c-2,0.1-3.9,0.1-5.9,0.3
			c-3.9,0.2-7.9,0.6-12,1.2c-8.1,1.1-16.4,2.8-24.2,5.6c-3.9,1.4-7.7,3.1-11,5.3c-1.6,1.1-3,2.3-4,3.6c-0.5,0.6-0.8,1.3-1.1,1.8
			c-0.2,0.6-0.3,1.1-0.3,1.6c0-0.6,0-0.1,0-0.2l0,0.1l0,0.2l0,0.4l0,0.2l0,0.1l0,0c0,0,0,0.1,0.1,0.1c0,0,0,0.1,0,0.1l0,0l0,0.1
			c0.1,0.1,0.1,0.3,0.2,0.4c0.3,0.6,0.6,1.1,1.2,1.7c1,1.2,2.5,2.3,4.1,3.3c3.3,2,7.1,3.5,11,4.6c3.9,1.2,8,2,12,2.8
			c4,0.7,8.1,1.3,12.1,1.7c8,0.9,15.8,1.2,23.2,1.3c7.4,0.1,14.4,0,20.9-0.5c6.5-0.4,12.4-1.2,17.6-2.5c5.1-1.3,9.5-2.9,12.7-5
			c3.2-2,5.2-4.3,5.9-6.1c0.2-0.5,0.4-0.8,0.4-1.2c0.1-0.4,0.2-0.7,0.2-0.9C39.2,331.1,39.2,330.8,39.2,330.9L39.2,330.9z
			 M40.3,330.8c0,0,0,0.3,0,0.9c0,0.3-0.1,0.6-0.2,1.1c-0.1,0.4-0.2,0.9-0.4,1.4c-0.4,1-1,2.3-2,3.5c-1,1.2-2.3,2.5-3.9,3.7
			c-1.6,1.2-3.4,2.5-5.5,3.6c-2.1,1.2-4.4,2.4-7,3.5c-5.1,2.2-11,4.3-17.7,6c-6.7,1.7-14,2.9-21.8,3.4c-7.8,0.5-16.1,0.4-24.7-0.6
			c-8.5-1-17.3-2.8-26-6c-4.3-1.6-8.7-3.6-12.8-6.4c-2.1-1.4-4.1-3.1-5.9-5.4c-0.9-1.1-1.7-2.4-2.3-3.9l-0.4-1.2l-0.1-0.3l-0.1-0.4
			l-0.1-0.7l-0.1-0.7l0-0.2l0-0.1l0-0.2l-0.1-1.1c0.1-1.7,0.4-3.4,1.1-4.8c0.7-1.4,1.5-2.7,2.4-3.8c1.8-2.2,3.9-3.7,6-5
			c4.2-2.6,8.6-4.3,12.9-5.7c8.7-2.7,17.5-4,25.9-4.8c4.2-0.4,8.4-0.5,12.4-0.6c2.1,0,4.1,0,6,0c2,0.1,3.9,0.1,5.9,0.3
			c7.7,0.4,15,1.5,21.6,2.9c6.6,1.4,12.5,3.1,17.6,5.1c2.6,0.9,4.9,2,7,3c2.1,1,4,2.2,5.6,3.3c1.6,1.2,2.9,2.3,3.9,3.5
			c1,1.2,1.7,2.3,2.1,3.3c0.2,0.5,0.4,1,0.5,1.4c0.1,0.4,0.2,0.8,0.2,1C40.2,330.5,40.3,330.8,40.3,330.8L40.3,330.8z"/>
	</g>
</g>
<g>
	<path class="st4" d="M-97.1,490.2c-1.3,0.1-2.6,0.2-3.9,0.3c-2.1-1.2-4.3-2.2-6.3-3.7c-2.8-2.2-5.3-1.6-6.7,2c-2.3,6-6,7.5-10.6,7
		c1.2-10.1,4.2-18.2,12-22.7c4.9-2.8,9.4-7.3,13.8-11.4c7-6.5,12-14.7,14.9-25.7c3.7-13.8,8.9-27,11.5-41.4
		c2.3-12.6,3.1-25.5,6.3-38c4.6-17.9,7.9-23.8,22.1-25.6c2.3-0.1,4.7-0.7,6.9,0.6c-0.1,0.3,0.3,0.7,0.3,1c0.6,2.1,0.3,3.8-0.2,5
		c0.1,8.8-1.4,17.8-1.3,26.7c0.3,22,3.1,60.4,3,82.4c-2.1,0-11.9,21.7-9,31.5c0.6,2-23.7,3.7-23.8,5.9c-4.1,8-10.4,10.5-17.2,12.3
		c-3.4,0.9-5.8,0.4-7.4-3.8C-93.5,490.3-94.6,487.7-97.1,490.2z"/>
	<path class="st5" d="M15.1,347.6c2.4,1.1,6.2,9.1,6.6,11.4c3.6,19.2,9.7,37.8,14.6,56.5c0.2,0.6,7.3,15.8,11,25.7
		c1,2.6,1.3,9.5,3,9.6c6.6,0.4,8.9,8.5,11.3,14.6c2.9,7.3,7.7,9.8,13.1,18c2.9,3.6,5.8,9.5,7.3,11.3c1.1,1.2-4.1,0.2-4.5,3
		c-4.2,4-13.5,2.7-17.4,0.2c1.7-5.4,1-9.1-3.8-10.7c-2.1-0.7-4-2.2-6-3c-7.1-2.9-14.5-1.4-18.8-10.3c-1.1-2.4-2.3-1.4-9.3-0.7
		c-2.5,5.3-5.4-3.4-6.3-4.3C1.7,463,4.1,453.5,4,441.1c-0.1-4.9-1.5-9.6-2.2-14.6c-1.7-11.3-1-22.9-2.9-34.1
		c-1.2-6.9-4-9.5-6.8-15.9c-0.7-7.4-1.4-8.1-3-15.3c-0.2-1,1.5-12.9,1-12.4c0.9-5-1.2-9.6-1-14.5c3.1,0.5,5.3-0.4,9.1,2.2
		c-4.5,2.9-0.4,7.2-1,10.7c-0.2,1,0.2,2.3,1.4,1.9c0.9-0.3,1.2-1.4,1.1-2.5c-0.3-3.2-0.5-6.4-0.8-9.6C4.8,339,11,340.5,15.1,347.6
		c0.3,8.4,4.1,31.9,5.3,35.7c4.5,14.5,7.1,29.7,7.6,45.3c0.2,5.9,1.4,11.6,4.1,15.7c4.1,6.1,5.5,13.1,7.1,20.4
		c0.9,3.9,1.9,7.8,3.2,11.6c0.4,1.3,0.4,2.4,1.6,1.7c1.1-0.7-5-13.1-6.9-18.7c-3.8-11-8.6-21.8-9.8-33.9
		c-1.7-17.9-7.5-34.9-10.3-52.4C17.8,366.2,14.7,354.2,15.1,347.6z M2.8,409.5c1.5-5.1-2.2-55.3-4-58
		C-2.1,370.9,0.3,389.8,2.8,409.5z M9,403.6c-1.4,5.8,3.2,29.2,5.4,30.2C14.1,423.6,11.6,413.6,9,403.6z"/>
	<path class="st5" d="M-37.3,332.6c0-0.3,0.1-0.6,0.2-0.9c1,0,1.6-1.5,6,0.1c0.7,0,1.5,0.1,2.2,0.1c0.3,3.7,0.6,7.5,1,11.2
		c1.9-0.8,1.6-0.9,2,0.2c1.9,3.6,0.4,7.7,1,11.5c0,1,0.8,1,0.8,0.1l0,0c0.7,0,1.3,0.1,2,0.1c-0.8,8.4,2.7,16.2,2,24.6
		c1,4.3,0.8,3.2,0.1,6.5c0.1,4.3,3.7,8.6,3.8,12.9c-0.2,1.9-0.3,2.8-0.8,5.1c0,1.3-2,2.8-2,4c0,1.5-0.1,3-0.1,4.5
		c-0.1,9.9,2.7,20.1,2.1,30c-0.1,2.3-0.7,7.3-2,14.6c0.1,4.9-5.8,7.9-8,11.9c-2.6,4.7-6.8,8.1-9,13.4c-1.1,2.6-2.6,3.5-1.1,5
		c-1.3,1-2.5,2.1-3.8,3c-4.5,3.2-8.4,5-13.1-1.2c-2.8-3.7-6.9-8-12.1-6.7c-0.6-1.8-0.4-3,1.4-2.7c6,1,8.8-3.9,11.4-9.8
		c2.3-5.1,2.5-11.7,6.8-15.3c7.1-5.9,8.5-14.6,7.1-24.6c0.1-22,0.4-44,0.1-66c-0.1-8.9,1.2-17.5,1.2-26.4
		C-37.3,336.2-36.8,334.5-37.3,332.6z"/>
	<path class="st4" d="M-27.9,343.1c-0.3-3.7-0.6-7.5-1-11.2c5.9,1.5,12-0.3,17.8,2.4c-0.1,4.9,2.9,8.9,2.1,14
		c-0.3,2.3,0.5,15,0.1,25c2.3,8.3,2.1,17.6,1.8,26.4c-0.3,8.4,3.5,16.6-1.7,25c-0.2,0.3,0.2,1.2,0.3,1.8c3.4,11.5,5.7,27.2,0.8,37.5
		c-5.9-7.3-8.7-16.6-8.1-26.4c0.3-4.3,0.5-8.7-0.1-13c-0.7-5.7-1.1-9.8-3-16.6c0-1.3-0.1-2.5-0.1-3.8c1.4-2.2,1.6-4.1-0.8-5.4
		c-0.1-4.3-0.1-8.6-0.2-12.9c-0.4-2.1-0.7-3-0.1-6.5c0.7-8.4-2.8-16.2-2-24.6c0.1-2.6-1.6-0.1-1.6-0.1l-0.5,1.3
		c-0.1,0.5-0.4-0.2-0.7-0.2c-1.2-3.7,0.8-9-1-12.6C-26.6,343.2-27.3,343.1-27.9,343.1z M-8.8,458.8c1.1-3.8,0.1-5.6-1.4-7.9
		C-11.6,453.9-10.2,455.6-8.8,458.8z"/>
	<path class="st6" d="M60,495.6c3.9,2.3,7.8,4.5,12,0.8c4-0.7,7.8-2.3,12.1-0.7c5.2,1.9,10.1,8.7,9.3,15.1c-0.7,5.1-3.7,5.7-7.4,4.2
		c1.3-5.2-0.9-7.9-4.5-11.8c-2.7-2.9-3.6-3.9-7.1-2.3c-1.7,0.8-2.8,0-3.7,1.9c-2.9,5.7-5.9,7.3-9.9,3c-2.8-3-5.9-3.4-9.9-2.4
		c-5.6,1.4-6.7-2-7.9-9c4.2,2.8,8.2,6.4,12.8,0.8C57.1,493.7,58.6,495.2,60,495.6z"/>
	<path class="st4" d="M-1.2,337c0.3,3.2,0.6,6.4,0.8,9.6c0.1,1.2-0.2,2.2-1.1,2.5c-1.2,0.4-1.5-0.9-1.4-1.9c0.6-3.6-3.5-7.8,1-10.7
		C-1.6,336.6-1.4,336.8-1.2,337z"/>
	<path class="st7" d="M60,497.8c-1.4-0.4-2.9-2-4.2-0.3c-4.6,6.1-8.7,2.1-12.8-0.9c-4.5-3.1-5.3,1.9-6.8,5.2c-3,0.6-4.4-1.7-5.6-4.9
		c-1.9-5.3-4.9-8-9.6-5.8c-2.9,1.4-5.6,0.4-8-1.8c-3.8-3.5-7.9-5.2-12.6-4.1c-2.2,0.5-4.5,0.6-6.7-1.2c-5.3-4.5-7.9-2.5-8.6,6.3
		c-0.7,1.6-1.8,2.6-3.2,3c-6.4-1.3-11.9-7.5-18.9-5.7c-1.5-1.4-1.8-2.5-0.7-5.2c2.1-5.3,5.5-9.2,8.1-13.9c2.2-4,3.7-8.2,3.6-13.1
		c-0.4-14.9,0.9-29.8-0.8-44.7c-0.4-3.2,0.6-6.7,1.8-10c0,10.4,1.6,20.7,1.5,31.1c0,4.2-1.1,8.2,0.1,12.1c0.7,2.2,0.8,5.2,3.4,4.4
		c2.4-0.7,1.9-3.5,2.1-5.9c0.6-10-1.9-19.9-1.9-29.8c0-1.5,0.9-2.9,1-4.5c3.9,4.5,3,10.9,3.8,16.6c0.5,4.2,0.3,8.7,0.1,13
		c-0.6,9.8,5.6,15.7,7.5,24.1c-0.3-11.9,2.5-23.7-0.9-35.2c-0.2-0.6-0.5-1.5-0.3-1.8c5.2-8.4-0.5-16.7-0.2-25.1
		c0.3-8.8,0.6-18-1.7-26.3c-2.7-9.8-5.4-19.3-4.4-29.9c0.2-1.7-1.2-2.5-1.6-3.9c-0.4-1.3-1.8-3.3,0.4-4.1c1.5-0.5,2.9-0.1,3.2,2.6
		c0.7,5.8,1.7,11.6,2.7,18.4c1.9-3.2,1-5.8,1.4-8.2c0.5-0.5,1-1,1.5-1.5c0.2,1,0.3,1.9,0.5,2.9c-1.8,8.6-1.5,17.1,0.6,26.5
		c1.1-2.1,1.8-3.2,2.4-4.4c2.9,6.4,1.7,13.8,2.9,20.6c1.9,11.2,3,22.6,4.7,33.8c0.7,5,0.4,9.9,0.4,14.8c0.1,12.4,3,17.4,12.1,20.6
		c0.9,0.4,1,2.5,2.2,1.9c1.1-0.6,0.6-2.2,0.8-3.3c1,1,1.9,0.9,2.9,0.1c0.8,2.6-0.6,8.4,4.3,5c2.3,0.1,4.5,1.2,5.6,3.6
		c4.3,8.9,11.1,12.2,18.3,15.1c2,0.8,3.9,2.4,6,3C61,488.6,61.7,492.4,60,497.8z"/>
	<path class="st7" d="M-65.9,482.6c-0.7,0.5-1.3,1-2,1.5c0.1-2.2-0.7-4.2-1.3-6.2c-2.9-9.8-2-15.4,4.9-21c4.6-3.8,4.4-10.4,6.9-15.2
		c0.5-1,0-2.4-0.8-2.7c-5.6-1.9-3.3-6.8-1.6-9.8c4.2-7.2,4.1-15.4,5.1-23.8c1.4-11,2.4-22,3.2-33.1c0.3-4.5,0.3-9.1,0.5-13.6
		c0.2-5.2-0.1-10.3,0.9-15.5c0.3-1.6,1.6-4.3-0.8-4.7c-2-0.4-2.4,2.3-2.7,4.2c-0.7,4.4-1,9-1.4,13.4c-1.3,14.8-2,29.6-4.3,44.2
		c-1.3,8.4-1.7,17.1-3.7,25.3c-0.2,1-0.2,2.2-0.5,3.1c-0.4,1.3-0.9,3.2-2.4,2.4c-1.5-0.7-1.2-2.6-0.7-3.9c2.9-6.7,3.8-14.2,5.1-21.5
		c0.2-1.1,0.6-2.1,0.5-3.2c-1.9-20.7,3.8-40.5,4.4-60.9c1.2-5.7,7-9.1,13.8-8c-3.5,1.9-3.3,5.3-3.1,8.7c0.5,11.9-1.7,23.7-1,35.6
		c0.2,2.7-0.7,5.7,2.1,7.2c1,0.5,0.8,2.2,0.8,3.5c0.1,11.5,0.3,22.9-1.6,34.2c-0.5,2.9-1.3,6.4,0.5,8.7c2,2.6,3.8-1.6,5.9-1.5
		c1.3,10,0,18.7-7.1,24.6c-4.3,3.6-4.6,10.2-6.8,15.3c-2.6,5.9-5.4,10.9-11.4,9.8C-66.4,479.7-66.5,480.9-65.9,482.6z"/>
	<path class="st4" d="M19.2,402.1c0.3,0,0.4-1.2,0.7-1.3c0.3,0,0.8,1.2,1.1,1.2c2.8,13.4,8.5,26.3,10.2,40
		c1.2,9.3,5.9,17.2,9.7,25.6c1.9,4.3,3.6,8.6,4.6,13.1c0.2,1,0.9,2.1-0.2,2.6c-1.2,0.5-2.5-0.3-2.9-1.3c-1.2-2.9-2.3-5.9-3.2-8.9
		c-1.6-5.6-3-11-7.1-15.6c-2.7-3.1-3.9-7.5-4.1-12c-0.5-12-3.1-23.7-7.6-34.8C19.2,407.9,18.8,405.1,19.2,402.1z"/>
	<path class="st4" d="M26.3,473.8c-0.6,0.3-0.9,2.9-1.4,3c-3,0.8-2.3-5.1-2.9-6.9c-0.1-8.8-1.2-17.4-3.5-25.9
		c-0.8-3.2-0.7-6.3,0.1-9.5C22.8,447.4,25,460.5,26.3,473.8z"/>
	<path class="st4" d="M2.8,409.5c-2.4-19.7-4.9-38.6-4-58C0.5,354.3,4.3,404.4,2.8,409.5z"/>
	<path class="st4" d="M9,403.6c2.6,10,5.1,19.9,5.4,30.2C12.2,432.8,7.6,409.4,9,403.6z"/>
	<path class="st8" d="M-24,354.8c1.3-6.2,1.4-12.4,0.5-18.8c2.3,5.7,5.8,10.4,4.8,17.6c-0.6,4.7,1,9.9,3.1,14.6
		c2.9,6.5,1.9,14.3,2.4,21.5c0.6,7.6-0.3,15.3,2.5,22.7c2.1,5.6-0.2,11.5-1.5,17.2c-3.1-27.5-3.6-55.4-9.7-81.1
		c0,1.3-0.1,3.9-0.2,6.5C-23.3,358-23.1,356.7-24,354.8z"/>
	<path class="st8" d="M-8.7,459.3c-1.8-2.7-3-6-1.5-9C-8.8,452.6-7.2,455.7-8.7,459.3z"/>
	<path class="st9" d="M86,515c-1.5,1.1-3.2,0.7-4.9,0.7c-73.1,0-146.2,0-219.3,0.2c-3.5,0-4.7-1.7-5.5-5c-2-8.4,0.4-14.6,7.4-18.9
		c3.5,3.4,7,6.8,10.5,10.2c1.2,1.2,3,1.4,3.5,0c1.9-4.9,6.2-6.8,8.8-10.5c2.5-3.7,3.8-4.9,5.5,0.4c0.9,2.9,2.4,4,4.2,0.9
		c0.8-1.4,2.7-1.8,2.7-4c1.3-0.1,2.6-0.2,3.9-0.2c2.5,3.3,2.6,7,1.5,11c-0.7,2.5-0.6,5.6,2,5.4c5.1-0.4,10.5-1.6,14.3-5.3
		c2.7-2.6,5.3-5.8,7.9-8.7c7.1-8,10.1-7.6,15.9,1.6c0.6,0.9,1,2,1.7,2.9c3.7,4.4,7.6,4.7,11.4,1c10-9.7,10-9.7,18.1,0.8
		c0.8,1,2.5,2.9,2.8,0.4c0.4-2.9,3.2-3.3,3.5-5.8c1.4-0.4,2.1-1.8,2.9-3.3c2.3-2.9,4.6-4.5,6.9,0.1c2.8,5.6,6.4,5.8,10.8,2.2
		c3.1-2.4,6.3-3.1,10.1-0.2c5.4,4.1,8.7,10,12.1,15.9c2.1,3.5,3.7,4,5.9,0.2c1.6-2.7,3.5-5.2,5.3-7.7c1.6-3,2.4-7.6,6.8-4.8
		c1.2,6.9,2.2,7.8,7.8,6.4c4-1,7.9,0.1,10.7,3.1c4,4.3,6,3.9,8.8-1.8c0.9-1.8,2.3-2.2,4-3c3.5-1.6,6.4-1,9.1,2
		C87,505,87.4,509.7,86,515z"/>
	<path class="st6" d="M-124.6,493.7c4.6,0.4,8.3-1,10.6-6.4c1.4-3.2,3.8-3.8,6.7-1.8c2,1.4,4.2,2.3,6.3,3.4c0.1,2.2-0.5,3.5-1.4,4.9
		c-1.8,3.1-5.2,3.1-6.1,0.3c-1.7-5.2-2.1-3.4-4.6,0.3c-2.6,3.8-4.2,3.6-6.1,8.4c-0.5,1.3-7.1,2.2-8.3,1c-3.5-3.4-5.2-8.4-8.7-11.8
		c2-2,3.7,0.2,5.4,0.8C-128.7,493.5-126.8,494.6-124.6,493.7z"/>
	<path class="st6" d="M-37,486.3c6.9-1.6,16,1,22.4,2.3c-0.4,2.6-3.5,6.5-3.8,9.5c-0.3,2.5-6.1,0.7-7.1-0.1
		c-7.3-6.1-5.7-9.9-15.6-0.3c-3.8,3.7-8.7,4.9-12.4,0.5c-0.7-0.8-3-3-3.6-4c-5.8-9.2-4.9-8.2-12-0.3c-2.6,2.9-6.7,3.8-9.4,6.4
		c-3.8,3.7-9.8,6-14.8,6.4c-2.6,0.2-5-4.7-4.3-7.2c1.1-4,3.1-7.6,0.5-10.8c2.5-2.2,3.6,0.1,4.5,2.2c1.7,3.8,4.1,4.3,7.4,3.4
		c6.8-1.7,13.1-3.9,17.2-11.2c0.7-0.4,1.3-0.9,2-1.3c5.1-1.2,9.3,2.7,12.1,6.1c4.7,5.6,8.6,4,13.1,1.1
		C-39.5,488.2-38.2,487.2-37,486.3z"/>
	<path class="st6" d="M-14.9,488.8c0.7-8,3.3-9.9,8.6-5.8c2.2,1.7,4.5,1.5,6.7,1.1c4.8-0.9,8.8,0.6,12.6,3.8c2.4,2,5.1,2.9,8,1.6
		c4.7-2,7.7,0.5,9.6,5.3c1.2,2.9,2.6,5,5.6,4.5c-1.8,2.6-2.2,5.5-3.7,8.3c-2.2,3.8-7.3,3.7-9.4,0.2c-3.4-5.9-5.5-11.1-10.9-15.2
		c-3.8-2.9-6.1-2-9.2,0.4c-4.5,3.6-9.1,3.7-11.9-1.9C-11.3,486.4-12.6,485.8-14.9,488.8z"/>
</g>
<path class="st10" d="M45.2,480.1"/>
<path class="st10" d="M51.3,453.7"/>
<path class="st10" d="M26.3,468.7"/>
<path class="st10" d="M-24.4,357.7"/>
<path class="st11" d="M-24,354.8"/>
</svg>
