<?xml version="1.0" encoding="utf-8"?>
<!-- Generator: Adobe Illustrator 19.0.0, SVG Export Plug-In . SVG Version: 6.00 Build 0)  -->
<svg version="1.1" id="Capa_1" xmlns="http://www.w3.org/2000/svg" xmlns:xlink="http://www.w3.org/1999/xlink" x="0px" y="0px"
	 viewBox="-250.8 371.4 100 100" style="enable-background:new -250.8 371.4 100 100;" xml:space="preserve">
<style type="text/css">
	.st0{opacity:0.56;fill:#72A0F2;enable-background:new    ;}
	.st1{fill:#3E5C9A;}
	.st2{fill:#263C68;}
	.st3{fill:#5877BA;}
	.st4{fill:#6788CF;}
	.st5{fill:#4765A5;}
	.st6{fill:#F7F8FA;}
	.st7{fill:#BCBEC1;}
	.st8{fill:#AAACB2;}
	.st9{fill:#BEBEBF;}
	.st10{fill:#D4D5D6;}
</style>
<circle class="st0" cx="-199.9" cy="429.7" r="40"/>
<g>
	<path class="st1" d="M-217.8,461.2c-8.1-4.2-13.6-10.7-16.4-19.5c1.6,0.3,2-0.6,3.8-2.2c1.9-1.5,4.7-0.6,6.7-0.4
		c5.7,0.4,11.6,3,17.4,2.7c-2.2-3.3,10.2-1.6,9.8-6.8c-0.4-4.6,1.4-5.7,5.5-4.7c-0.5,0.8-1.4,0.8-2.3,0.8c-2.2,0.1-2.2,1.7-2,3.1
		c0.3,1.9-1.3,4.9,1.3,5.5c3.2,0.6,6.8,0.3,10.5-0.3c3.8-0.5,6.9-1.1,10.6-1.1c-0.2,0.5,1.4,3.8,1.1,4.3
		c-10.1,10.5-24.2,17.5-38.7,15.6C-216.1,457.4-216.3,455.6-217.8,461.2z"/>
	<path class="st2" d="M-165.4,437.9c-0.7-0.9-0.4-3.4-2.5-3.5c-1.3,0-2.5,0.8-3.2,2c-0.6,1-2.1,2.9-2.1,4.2
		c-0.3,0.1-0.5,0.7-0.8,0.7c-0.2,0.5,0.6,1.7,0.3,2.1c-10,10.6-22.4,15-36.9,13.1c-5.4-0.7-5.7-0.8-7.2,4.8c3.3,1.2,6.5,2.8,10,3.6
		c11.7,2.9,22-0.5,31.3-7.7c0.4-0.3,0.6-0.6,1-0.9c0.2-0.3,0.4-0.2,0.6-0.4c0.2-0.2,0.4-0.4,0.6-0.6c0.4-0.4,0.7-0.8,1.1-1.2
		c0.6-0.6,0.7-0.7,1.1-1.3c0.2-0.3,0.4-0.5,0.6-0.7c3.4-3.2,5.3-7.3,6.4-11.9C-165.6,439.7-165.1,438.3-165.4,437.9z"/>
	<path class="st3" d="M-219.6,431.9c-2.7,0-6.1,4.4-8.2,2.5c-2.8-2.5-4.9-8.6-8.7-7c0.3-7.6,2.5-14.5,7.9-20.1
		c1.1,2.2,1.8,2.1,4.9,0.1c0.9-0.5,3.1,0.7,3.8,1.2c3.2,2,5.1,10.7,3.1,14C-218.6,425.5-219.7,428.7-219.6,431.9z"/>
	<path class="st3" d="M-165.1,419.4c0,2.4,0.6,5,0.6,7.2c-2.6,1,0.4,0.5-2,2.1c-2.1,1.3-0.3,2.2-1.2,3.8c-5.7-2.1-12.6-8.9-19.1-5.3
		c-0.7,0.4-1.8,0.1-2.7,0.2c0.1-0.6,0.1-1.2,0.2-1.8c0.7-0.4,0.4-1.8,0.4-2.5c4.3-4.2,6-9.9,8-15.8c0.4-1.5,5.2-1.6,6.2-0.6
		c2.2,2.1,2.3,1.3,3.2,0.3c0.2,0.1,0.3,0.3,0.3,0.4c0.3,0.4,0.6,0.8,0.9,1.2v-0.1c0.3,0.4,0.5,0.7,0.7,1
		C-167.1,412.4-165.6,415.6-165.1,419.4z"/>
	<path class="st1" d="M-176.5,457.1c0.4-0.3,0.6-0.6,1-0.9C-175.9,456.5-176.2,456.8-176.5,457.1z"/>
	<path class="st4" d="M-169.6,409.5c-0.3-0.4-0.5-0.7-0.7-1C-170.1,408.8-169.8,409.2-169.6,409.5z"/>
	<path class="st4" d="M-170.3,408.5c-0.3-0.4-0.6-0.8-0.9-1.2C-170.9,407.8-170.6,408.2-170.3,408.5z"/>
	<path class="st5" d="M-189.1,425.6c0.1-0.6,0.1-1.2,0.2-1.8c0.2,0,0.4,0,0.6,0C-188.3,424.6-188.5,425.2-189.1,425.6z"/>
	<path class="st4" d="M-172.2,405.9c-0.3-0.4-0.5-0.6-0.9-1c-0.3-0.3-0.5-0.5-0.8-0.9c-0.7-1.5-2.1-2.1-3.6-2.8
		c-0.4-1.3-1.5-1.8-2.8-2.1c-0.3-1-1.1-1.3-1.8-1.8c-9.7-5.3-19.8-6.4-30.1-2.7c-6.7,2.5-13,5.9-16.6,12.6c1.1,2.2,2.1,4.6,5.3,2.5
		c0.9-0.5,1.6,0.1,2.4,0.6c3.2,2,5,8.9,3,12.1c-1.8,3-3.6,11.2-3.5,14.4c4.5,2.2,10.6-3.3,15-3.3c0-0.8,3.8-1.1,6.4-1.3
		c1.6-0.1,9.2,3.1,12.4-1.3c0.2,0-1.1-7.2-0.9-7.2c4.3-4.2,8.3-8.8,10.2-14.7c0.4-1.5,2.3-2,3.3-1.1c2.2,2.1,2.5-0.2,3.3-1.3
		C-171.7,406.6-171.9,406.3-172.2,405.9z"/>
	<path class="st5" d="M-165.1,419.4c0,2.4,0,4.9,0,7.2c-2.6,1-1.1-3.6-3.6-2.1c-2.1,1.3,0.5,3.3-0.4,4.9c-5.7-2.1-11.2-5.8-17.6-2.1
		c-0.7,0.4-1.8,0.1-2.7,0.2c-0.4,1.1-0.4,2.2-1.7,2.8c-0.5,0.7-1.4,0.7-2.3,0.7c-1.7,0.1-9.8,0.3-12.9,1.1c0-0.1,0-0.2,0-0.3
		c-4.5,0-8.9,2.2-13.3,0c-2.7,0-5.3-0.5-7.3-2.4c-2.8-2.5-5.9-3.7-9.6-2.1c-0.4,4.9,0.1,9.8,2.2,14.3c1.6,0.3,2.9,2.8,4.8,1.2
		c1.9-1.5,3.9-1.3,6-1.2c5.7,0.4,11.5,0.3,17.2,0c0-0.4,0-0.6,0-1c4.7,0.6,18.4,1.5,21.7,1.1c3.8-0.5,7.7-0.1,11.5-0.1
		c0.3,0,0.5,0,0.8-0.1c-0.1-1.3,0.9-2.1,1.5-3.1c0.7-1.2,1.3-2.8,2.7-2.7c2,0.1,0.7,2.2,1.4,3.1c0.4,0.4,1,0.6,1.4,0.9
		C-162.6,433.1-162.6,426.3-165.1,419.4z"/>
</g>
<path class="st6" d="M-207.5,442.4c0-2.4,0-4.9,0-7.3c0-2.5,1.2-5.2-3.7-5.1c-1.2,0-1.3-1.5-1.3-2.4c0-1.7,0.1-2.9,0-4.6
	c-0.2-2.1,0.9-2.6,2.7-2.7c2.2-0.2,2.2-1,2.2-2.7c0.3-9.9,7.1-14.8,16.7-12.1c1.1,0.3,1.3,0.9,1.3,1.9c0,1.3,0,2.5,0,3.7
	c0.2,2.8-0.9,3.2-3.2,3c-1.5-0.1-3.3-0.6-4.3,1.3c-1.4,2.6-0.1,4.8,3,5c1.5,0.1,4.1-0.9,4.2,0.7c0.3,2.9,0.4,6.2,0.4,8.8
	c0,0.4-2.9,0.3-3.7,0.2c-4-0.2-4.7,1.2-4.5,4.7c0.3,5.6,0,11.3,0.1,16.9c0.1,2.3-0.5,3.2-3,3.2c-7,0-7,0.1-7-6.9
	C-207.5,446.1-207.5,444.3-207.5,442.4z"/>
<path class="st7" d="M-163.1,377.6c-0.1-0.1-0.2-0.2-0.3-0.3c0-0.1-0.1-0.2-0.1-0.2c-0.1-0.1-0.1-0.1-0.2-0.2s-0.2-0.2-0.4-0.3
	c-0.1-0.2-0.2-0.3-0.4-0.3c-0.1-0.1-0.2-0.1-0.2-0.2c-0.9-0.9-2.1-1.4-3.3-1.7c-0.1,0.2-0.1,0.3-0.3,0.4c-0.3,0.2-0.9-0.2-0.9,0.4
	c0,0.4,0.4,0.5,0.7,0.7c0.3,0.2,0.5,0.4,0.9,0.4c0,0.1,0,0.2,0,0.2c0,1.1-0.1,2.1,0.1,3.1c0.2,1-0.4,1.8-0.5,2.7
	c-0.1,0.7-1,0.3-1.5,0.4c-0.4,0.1-0.9,0.1-0.9-0.5c0-0.3,0-0.4-0.3-0.6c-0.3,1.2,0.1,1.6,1.3,1.5c1.4-0.1,1,3.3,1.9,2.7
	c0.1,1.6,0.2,3.1,0.1,4.7c0,0.5-0.1,1.2,0.4,1.6c0.4,0.5-0.2,0.9-0.3,1.3c2.4-0.8,4.2-2.3,5.3-4.7c-0.8-0.2-1.2-0.4-1.3-0.6
	c0.2,0.3,0.5,0.4,1.3,0.6c0.4-0.9,0.7-1.8,1-2.8C-160.1,382.9-161.1,380.2-163.1,377.6z"/>
<path class="st8" d="M-169.9,389.6c0,0.7-0.1,1.4-0.6,2.1c-0.7,0.8-1,1.6-0.5,2.7c-2.1,0-4-0.6-5.6-2.1c0.6-0.4,1.3-0.6,0.7-1.5
	c-0.2-0.3,0-0.4,0.2-0.6c0.5-0.9,2.4-1.4,3.3-0.9C-171.7,389.7-170.8,389.7-169.9,389.6z"/>
<path class="st8" d="M-173.6,374.6c0.7,0,1.3,0,2,0c0.3,0.6-1,0.3-0.5,0.9c0.4,0.5,0.9-0.2,1.3,0.1c-0.5,1.6-1.5,3.1-0.5,4.9
	c0.1,0.2,0,0.4,0.1,0.7c-0.2,0-0.4,0-0.4,0c-0.1-0.2-0.3-0.2-0.4-0.2c-1.2-1.2-2.4-2.2-4.1-2.8c-0.4-0.1-0.5-0.6-0.3-0.9
	c0.5-0.6-0.1-0.7-0.4-0.9c0-0.1,0.1-0.1,0.1-0.1c0.1-0.1,0.2-0.2,0.4-0.3l0,0c0.1-0.1,0.2-0.2,0.3-0.2
	C-175.5,375.2-174.6,374.7-173.6,374.6z"/>
<path class="st1" d="M-176,390.9c-0.1-0.1-0.2-0.2-0.3-0.3C-176.1,390.7-176,390.8-176,390.9z"/>
<path class="st4" d="M-181.6,384.2c-0.1,0.1-0.2,0.2-0.3,0.2C-181.8,384.3-181.7,384.2-181.6,384.2z"/>
<path class="st4" d="M-181.9,384.4c-0.1,0.1-0.2,0.2-0.4,0.3C-182.1,384.6-182,384.5-181.9,384.4z"/>
<path class="st9" d="M-177.2,376.6c-0.1,0.1-0.2,0.2-0.3,0.3s-0.2,0.2-0.3,0.3c-0.4,0.2-0.6,0.5-0.7,1c-0.4,0.1-0.4,0.4-0.6,0.8
	c-0.3,0.1-0.4,0.3-0.5,0.5c-1.4,2.7-1.7,5.5-0.6,8.3c0.7,1.9,1.7,3.6,3.6,4.5c0.6-0.4,1.3-0.6,0.7-1.5c-0.2-0.3,0-0.4,0.2-0.6
	c0.5-0.9,2.4-1.4,3.3-0.9c0.8,0.4,1.7,0.4,2.6,0.4c0.6-1.3,0.4-2.4,0.4-3.7c-0.3,0-0.4-1.1-0.4-1.8c0-0.4,0.9-2.1-0.4-3
	c0-0.1-2.1-0.2-2.1-0.3c-1.2-1.2-2.4-2.2-4.1-2.8c-0.4-0.1-0.5-0.6-0.3-0.9c0.5-0.6-0.1-0.7-0.4-0.9
	C-177,376.5-177.1,376.5-177.2,376.6z"/>
<path class="st10" d="M-173.6,374.6c0.7,0,1.3,0,2,0c0.3,0.6-1,0.3-0.5,0.9c0.4,0.5,0.9-0.2,1.3,0.1c-0.5,1.6-1.5,3.1-0.5,4.9
	c0.1,0.2,0,0.4,0.1,0.7c0.3,0.1,0.6,0.1,0.8,0.4c0.2,0.2,0.3,0.4,0.3,0.6c0,0.4,0.1,2.7,0.4,3.6c0,0,0,0-0.1,0
	c0,1.3,0.6,2.4,0.1,3.7c0,0.7-0.1,1.4-0.6,2.1c-0.7,0.8-1,1.6-0.5,2.7c1.3,0.1,2.7-0.1,3.9-0.7c0.1-0.4,0.7-0.8,0.3-1.3
	s-0.4-1.1-0.4-1.6c0.1-1.6,0-3.1-0.1-4.7c-0.1,0-0.2,0-0.3,0c0.2-1.3,0.4-5.1,0.2-6c-0.2-1.1-0.1-2.1-0.1-3.1c0-0.1,0-0.2,0-0.2
	c-0.4,0-0.6-0.3-0.9-0.4c-0.4-0.2-0.8-0.4-0.7-0.7c0-0.5,0.6-0.2,0.9-0.4c0.1-0.1,0.2-0.3,0.3-0.4
	C-169.8,373.8-171.7,373.9-173.6,374.6z"/>
</svg>
