<?xml version="1.0" encoding="utf-8"?>
<!-- Generator: Adobe Illustrator 19.0.0, SVG Export Plug-In . SVG Version: 6.00 Build 0)  -->
<svg version="1.1" id="Capa_1" xmlns="http://www.w3.org/2000/svg" xmlns:xlink="http://www.w3.org/1999/xlink" x="0px" y="0px"
	 viewBox="30.4 344 314 145.3" style="enable-background:new 30.4 344 314 145.3;" xml:space="preserve">
<style type="text/css">
	.st0{fill:#FFFFFF;stroke:#020202;stroke-miterlimit:10;}
	.st1{fill:#FC228F;}
	.st2{fill:#FFFFFF;stroke:#060606;stroke-miterlimit:10;}
</style>
<path class="st0" d="M77.1,357.4c15.9-0.3,31.5,13,34.3,29.5c0.4,2.4,0.6,4.9,0.6,7.4c0,15.1,0,30.3-0.1,45.4
	c-0.1,19.2-14.5,34.7-33.3,36.2C60.5,477.4,44,464,41,445.4c-0.3-2-0.5-4.1-0.5-6.1c0-15,0-30,0-45c0.1-18.5,12.2-33.2,30-36.5
	c1.7-0.3,3.4-0.6,5.2-0.4c0,6.7,0,13.4,0,20.1c0,1,0.1,1.8-1.2,2.3c-2.8,1-4,3.3-4,6.2c0,3.7,0,7.3,0,11c0,3.7,2.5,6.3,5.8,6.4
	c3.4,0.1,5.9-2.4,6-6.1c0.1-4,0.1-7.9,0-11.9c-0.1-2.4-1.1-4.5-3.4-5.4c-1.6-0.6-1.8-1.5-1.8-3C77.1,370.6,77.4,364,77.1,357.4z"/>
<path class="st1" d="M77.1,357.4c0.3,6.6,0,13.1-0.1,19.7c0,1.5,0.2,2.4,1.8,3c2.3,0.9,3.4,2.9,3.4,5.4c0.1,4,0.1,7.9,0,11.9
	c-0.1,3.7-2.7,6.2-6,6.1c-3.4-0.1-5.8-2.7-5.8-6.4c0-3.7,0-7.3,0-11c0-3,1.2-5.3,4-6.2c1.3-0.5,1.2-1.3,1.2-2.3c0-6.7,0-13.4,0-20.1
	C76.2,357.4,76.7,357.4,77.1,357.4z"/>
<g>
	<rect x="258.9" y="399.4" class="st2" width="41.3" height="16.7"/>
	<polygon class="st2" points="333.3,409.7 312,421.3 290.8,432.9 291.3,408.7 291.9,384.5 312.6,397.1 	"/>
</g>
<g>
	<rect x="189.2" y="399.4" class="st2" width="41.3" height="16.7"/>
	<polygon class="st2" points="156.1,405.7 177.4,394.1 198.7,382.5 198.1,406.7 197.5,430.9 176.8,418.3 	"/>
</g>
</svg>
