<?xml version="1.0" encoding="utf-8"?>
<!-- Generator: Adobe Illustrator 19.0.0, SVG Export Plug-In . SVG Version: 6.00 Build 0)  -->
<svg version="1.1" id="Capa_1" xmlns="http://www.w3.org/2000/svg" xmlns:xlink="http://www.w3.org/1999/xlink" x="0px" y="0px"
	 viewBox="-201 371.2 100 100" style="enable-background:new -201 371.2 100 100;" xml:space="preserve">
<style type="text/css">
	.st0{fill:url(#SVGID_1_);}
	.st1{fill:#7539C6;}
	.st2{fill:#8A33BC;}
	.st3{fill:#E4265A;}
	.st4{fill:#D62771;}
	.st5{fill:#EE5F57;}
	.st6{fill:#9C35B6;}
	.st7{fill:#F27756;}
	.st8{fill:#B82DA8;}
	.st9{fill:#C42B94;}
	.st10{fill:#FAAA5B;}
	.st11{fill:#F9F0F6;}
</style>
<linearGradient id="SVGID_1_" gradientUnits="userSpaceOnUse" x1="-124.744" y1="488.5893" x2="-169.8709" y2="438.7513" gradientTransform="matrix(0.9999 1.453114e-002 -1.453114e-002 0.9999 7.3885 -42.0167)">
	<stop  offset="0" style="stop-color:#7539C6"/>
	<stop  offset="0.2134" style="stop-color:#8C4DB3"/>
	<stop  offset="0.6597" style="stop-color:#C88083"/>
	<stop  offset="1" style="stop-color:#FAAA5B"/>
</linearGradient>
<circle class="st0" cx="-145.9" cy="420.3" r="33.6"/>
<g>
	<path class="st1" d="M-114.2,420.5c-0.3,16.3-12.9,29.6-28.6,30.9c-1.6,0.1-3.3,1.2-4.9-0.1c4.1-3,6.9-7.7,11.7-9.8
		c0.8-0.4,0.5-1.4,0.6-2c5.7-0.8,8.5-3.5,8.6-8.7c0-0.8,0.1-1.7,0.1-2.5c3-0.4,4.9-2.8,7.2-4.5
		C-117.9,422.5-116.6,420.7-114.2,420.5z"/>
	<path class="st2" d="M-135.5,439.5c-0.1,0.7,0.3,1.7-0.6,2c-4.9,2.1-7.6,6.8-11.7,9.8c-2.9,0.3-5.6-0.7-8.3-1.4
		c0.1-0.5-0.5-1.1,0.1-1.5c2.4-1.5,4.1-3.9,6.2-5.7c1.2-1,3.4-1.5,3.5-3.7C-142.7,439.1-139,438.7-135.5,439.5z"/>
	<path class="st3" d="M-143.8,388.5c0.5,0,1.1,0.1,1.7,0.1c0.3,0.1,0.6,0.1,0.8,0.2c2.3,0,4.3,1,6.5,1.5c-4.2,2.1-6.6,6.3-10.7,8.5
		c-0.9,0.4-0.8,1.4-0.8,2.3c-3.6-0.1-7.2-0.1-10.8-0.2c-0.1-1.1,0.6-1.7,1.3-2.3C-151.7,395.3-148.1,391.4-143.8,388.5z"/>
	<path class="st4" d="M-146.3,401.1c0-0.8-0.1-1.8,0.8-2.3c4.1-2.2,6.5-6.4,10.7-8.5c2.6,1.2,5.1,2.3,7.4,4
		c-0.5,0.7-0.3,1.8-1.2,2.1c-2.5,0.7-3.4,3-4.5,4.9C-137.6,401.2-141.9,401.1-146.3,401.1z"/>
	<path class="st5" d="M-143.8,388.5c-4.3,3-7.8,6.9-12,10.1c-0.8,0.6-1.4,1.3-1.3,2.3c-4.5,0.2-6.9,2.9-8.1,7
		c-0.3,0.1-0.6,0.1-0.8,0.2c-3.5,3.7-7.5,6.9-11.8,9.8c-0.4-1.4,0.4-2.6,0.7-4c2.4-3.3,5.8-5.4,8.8-8.1c5.4-4.9,11.3-9.3,16.7-14.1
		c1-0.8,2.8-1.2,2.7-3.1C-147.2,388.2-145.5,388.1-143.8,388.5z"/>
	<path class="st6" d="M-117.4,406.3c1.2,2.9,2.4,5.9,2.7,9.1c-1-0.1-1.6,0.5-2.4,1.1c-3.1,2.7-5.7,6.1-9.7,7.8
		c0.1-3.8,0.1-7.6,0.2-11.4c0.9,0.1,1.5-0.4,2.3-0.8C-121.7,410.4-119.7,408.4-117.4,406.3z"/>
	<path class="st7" d="M-148.9,388.6c0.1,1.9-1.7,2.2-2.7,3.1c-5.5,4.8-11.3,9.2-16.7,14.1c-2.9,2.7-6.4,4.8-8.8,8.1
		c0-1.4,0.5-2.7,1.1-4c2.4-1.9,4.8-3.9,5.6-7.2c0.2-0.7,0.6-1.2,1.3-1.4c2.9-1.2,4.7-3.6,7-5.5c1.9-1.6,4.5-2.7,5.3-5.5
		C-154.4,389.3-151.7,388.6-148.9,388.6z"/>
	<path class="st8" d="M-160.8,447.8c-3.5-1.8-7.1-3.5-9.3-7.1c2.1-1.5,4.3-3,6.5-4.5c2.9,3.2,6.9,2.4,10.5,2.8
		c-0.1,0.5,0,1.4-0.3,1.6C-156.4,442.5-158.2,445.6-160.8,447.8z"/>
	<path class="st3" d="M-177.7,418c4.2-2.9,8.3-6.1,11.8-9.8c0.2-0.1,0.5-0.1,0.8-0.2c0,2.9-0.1,5.7-0.1,8.6c-1.2,0-1.8,1-2.5,1.6
		c-2.9,2.9-6.1,5.5-9.5,7.8C-177.9,423.3-177.9,420.6-177.7,418z"/>
	<path class="st4" d="M-177.2,425.9c3.4-2.4,6.5-5,9.5-7.8c0.8-0.7,1.3-1.6,2.5-1.6c0,3-0.1,6.1-0.1,9.1c-3.8,1.8-6.2,5.3-9.3,8
		C-176.2,431.2-176.8,428.6-177.2,425.9z"/>
	<path class="st9" d="M-174.6,433.5c3.1-2.7,5.5-6.1,9.3-8c0.3,3.6-0.6,7.4,1.8,10.7c-2.1,1.5-4.3,3-6.5,4.5
		C-172.1,438.6-173.8,436.3-174.6,433.5z"/>
	<path class="st8" d="M-117.4,406.3c-2.2,2-4.3,4.2-6.8,5.9c-0.8,0.5-1.4,0.9-2.3,0.8c-0.1-3,0.2-6.2-1.7-8.9c1.9-1.9,4.4-3,6.7-4.2
		C-119.7,401.8-118.2,403.8-117.4,406.3z"/>
	<path class="st10" d="M-156.9,390.5c-0.8,2.7-3.3,3.9-5.3,5.5c-2.3,1.9-4.2,4.3-7,5.5c-0.6,0.2-1.1,0.8-1.3,1.4
		c-0.8,3.2-3.1,5.2-5.6,7.2C-172.7,400.4-166.6,393.7-156.9,390.5z"/>
	<path class="st6" d="M-160.8,447.8c2.6-2.2,4.5-5.2,7.4-7.2c0.3-0.2,0.2-1.1,0.3-1.6c2.3,0,4.5,0.1,6.8,0.1
		c-0.2,2.1-2.3,2.7-3.5,3.7c-2.1,1.8-3.8,4.2-6.2,5.7c-0.6,0.4,0,1.1-0.1,1.5C-157.7,449.4-159.5,449.1-160.8,447.8z"/>
	<path class="st2" d="M-126.7,424.4c3.9-1.7,6.5-5.1,9.7-7.8c0.8-0.7,1.3-1.2,2.4-1.1c0.1,1.7,0.9,3.3,0.5,5.2
		c-2.4,0.2-3.7,2-5.3,3.3c-2.2,1.7-4.1,4-7.2,4.5C-126.8,427-126.7,425.7-126.7,424.4z"/>
	<path class="st9" d="M-121.5,399.8c-2.4,1.3-4.8,2.3-6.7,4.2c-1.4-1.4-3.1-2.4-5-2.8c1.2-2,2-4.1,4.5-4.9c0.9-0.3,0.7-1.4,1.2-2.1
		C-124.9,395.6-123.2,397.8-121.5,399.8z"/>
	<path class="st5" d="M-141.3,388.7c-0.3-0.1-0.6-0.1-0.8-0.2C-141.9,388.6-141.6,388.7-141.3,388.7z"/>
	<path class="st11" d="M-133.3,401.3c2,0.5,3.6,1.4,5,2.8c1.9,2.7,1.6,5.9,1.7,8.9c-0.1,3.8-0.1,7.6-0.2,11.4c0,1.4,0,2.6-0.1,4
		c0,0.8-0.1,1.7-0.1,2.5c-0.2,5.1-2.9,8-8.6,8.7c-3.5-1-7.2-0.4-10.7-0.5c-2.3,0-4.5-0.1-6.8-0.1c-3.6-0.4-7.6,0.4-10.5-2.8
		c-2.4-3.3-1.6-7.1-1.8-10.7c0-3,0.1-6.1,0.1-9.1c0-2.9,0.1-5.7,0.1-8.6c1.1-4.1,3.5-6.8,8.1-7c3.6,0.1,7.2,0.1,10.8,0.2
		C-141.9,401.1-137.6,401.2-133.3,401.3z M-162.2,428.5c-0.1,0.1-0.2,0.1-0.1,0.2c0.1,0.2,0.1,0.3,0.2,0.5c0,0.3,0,0.6,0,0.9
		c-0.2,3.9,1.4,5.7,5,5.8c2,0,3.9,0,5.8,0c3.4,0,6.8,0.1,10.2,0.1c2.1,0,4.3,0.2,6.4,0.2c2.4,0,4-1.2,4.4-3.7
		c0.4-0.4,0.4-0.8,0.2-1.2c0-0.5,0-0.8,0-1.3c0-0.3,0-0.7,0-1c0-0.4,0-0.8,0-1.2c0.3-3.6,0.3-7.2,0.2-10.8c0.1-1.7,0.2-3.6,0.2-5.3
		c0-2,0.4-4.2-1.4-5.8c-1.7-2.2-4.1-1.6-6.3-1.5c-3.8-0.1-7.6-0.1-11.4-0.2c-2.5-0.1-5-0.2-7.6-0.3c-4.1-0.1-5.6,1.5-5.8,5.7
		l-0.2,0.1l0.1,0.2c-0.3,1.6-0.3,3.2,0,4.8c-0.4,3.4-0.4,6.8-0.1,10.1C-162.5,426.1-162.4,427.3-162.2,428.5z"/>
	<path class="st6" d="M-141.1,436.1c-3.4,0-6.8-0.1-10.2-0.1c-0.2-2.1,1.2-2.9,2.9-3.3c0.8-0.1,1.5,0,1.7-1c6.8-0.4,10-3,12.2-9.6
		c0.1-0.1,0.2-0.1,0.2-0.1c0-0.2-0.1-0.2-0.1-0.4c0-0.6,0-1.1,0.1-1.7c1.5-1.1,2.6-2.8,4.7-2.8c0.2,3.6,0.1,7.2-0.2,10.8
		c-0.8,0-1.5-0.1-2.1,0.4C-135.1,430.8-138.1,433.4-141.1,436.1z"/>
	<path class="st4" d="M-148.6,404.1c3.8,0.1,7.6,0.1,11.4,0.2c0.1,2.2-1.7,2.7-3.2,3.3c-0.9,0.4-1.7,0.4-2.1,1.5
		c-7.6-2.1-15.2,3.1-14.9,12c-1.3,1.6-2,3.8-4.7,3.9c-0.3-3.4-0.3-6.8,0.1-10.1c0.7,0,1.4,0.1,1.9-0.4
		C-156.2,411-152.4,407.6-148.6,404.1z"/>
	<path class="st8" d="M-146.7,431.6c-0.2,1.1-1,0.9-1.7,1c-1.7,0.4-3.1,1.2-2.9,3.3c-2,0-3.9,0.1-5.8,0c-3.6-0.1-5.2-2-5-5.8
		c2.1-1.4,4.7-2.2,6-4.6C-154,428.9-150.9,431.1-146.7,431.6z"/>
	<path class="st3" d="M-148.6,404.1c-3.8,3.4-7.6,6.8-11.4,10.2c-0.5,0.5-1.2,0.4-1.9,0.4c-0.4-1.6-0.3-3.2,0-4.8
		c0.2-0.1,0.2-0.2,0-0.4c0.1-4.2,1.7-5.7,5.8-5.7C-153.6,403.9-151.1,404.1-148.6,404.1z"/>
	<path class="st8" d="M-129.7,416.9c-2.1,0-3.2,1.7-4.7,2.8c-0.1-2.5-1.1-4.6-2.4-6.8c0.4-1.5,2.1-0.8,2.9-1.7
		c1.2-0.6,1.8-1.5,1.3-2.9c1.3-0.4,1.4-1.5,1.7-2.5c1.8,1.6,1.5,3.7,1.4,5.8C-129.5,413.4-129.7,415.2-129.7,416.9z"/>
	<path class="st2" d="M-141.1,436.1c3-2.6,6.1-5.3,9-7.9c0.6-0.5,1.4-0.4,2.1-0.4c0,0.4,0,0.8,0,1.2c-0.4,0.3-0.4,0.7,0,1
		c0,0.5,0,0.8,0,1.3c-0.1,0.4-0.2,0.8-0.2,1.2c-0.4,2.5-2,3.7-4.4,3.7C-136.8,436.3-138.9,436.1-141.1,436.1z"/>
	<path class="st9" d="M-130.9,405.8c-0.2,1.1-0.3,2.2-1.7,2.5c-1.2-0.8-2.6-1.2-3.3,0.3c-0.7,1.6,0.4,2.4,1.9,2.5
		c-0.8,0.8-2.5,0.1-2.9,1.7c-1.6-1.6-3.4-3-5.7-3.8c0.3-1.1,1.2-1.2,2.1-1.5c1.4-0.6,3.3-1,3.2-3.3
		C-135,404.3-132.6,403.6-130.9,405.8z"/>
	<path class="st9" d="M-156.2,425.5c-1.2,2.5-3.8,3.3-6,4.6c0-0.3,0-0.6,0-0.9c0-0.2-0.1-0.5-0.1-0.7c-0.2-1.2-0.3-2.4,0.1-3.6
		c2.7,0,3.4-2.3,4.7-3.9C-157.1,422.5-156.6,424-156.2,425.5z"/>
	<path class="st6" d="M-129.9,429.9c-0.4-0.3-0.4-0.7,0-1C-129.9,429.3-129.9,429.6-129.9,429.9z"/>
	<path class="st6" d="M-130.2,432.4c0.1-0.4,0.2-0.8,0.2-1.2C-129.8,431.7-129.8,432.1-130.2,432.4z"/>
	<path class="st8" d="M-162.2,428.5c0,0.2,0.1,0.5,0.1,0.7c-0.1-0.2-0.1-0.3-0.2-0.5C-162.4,428.6-162.2,428.6-162.2,428.5z"/>
	<path class="st8" d="M-161.9,409.6c0.1,0.2,0.1,0.2,0,0.4l-0.1-0.2L-161.9,409.6z"/>
	<path class="st11" d="M-156.2,425.5c-0.4-1.4-0.9-3-1.2-4.4c-0.2-8.9,7.4-14.1,14.9-12c2.3,0.8,4,2.3,5.7,3.8
		c1.2,2.1,2.2,4.3,2.4,6.8c0,0.6,0,1.1-0.1,1.7c-0.1,0.2-0.1,0.4-0.1,0.5c-2.1,6.6-5.4,9.2-12.2,9.6
		C-150.9,431.1-154,428.9-156.2,425.5z M-139.7,414.5c-3.8-3.7-8.7-3.9-12.2-0.7c-3.4,3.2-3.6,8.1-0.4,11.9c0.1,0.5,0.6,0.8,1.1,0.8
		c0,0.2,0.1,0.3,0.3,0.3c3.6,2.7,8.2,2.3,11.2-0.9C-136.6,422.6-136.6,418-139.7,414.5z"/>
	<path class="st8" d="M-134.6,421.9c-0.1-0.2-0.1-0.4,0.1-0.5c0.1,0.2,0.1,0.2,0.1,0.4C-134.4,421.8-134.5,421.9-134.6,421.9z"/>
	<path class="st11" d="M-133.9,411.3c-1.5-0.2-2.6-1-1.9-2.5s2.1-1.1,3.3-0.3C-132.1,409.8-132.7,410.7-133.9,411.3z"/>
	<path class="st9" d="M-150.8,426.8c-0.2,0-0.3-0.2-0.3-0.3c-0.1-0.6-0.6-0.8-1.1-0.8c-3.1-3.8-3-8.7,0.4-11.9
		c3.5-3.3,8.4-3,12.2,0.7c-0.2,1.9-1.6,3.1-2.9,4.3C-145.4,421.4-148.7,423.5-150.8,426.8z"/>
	<path class="st8" d="M-150.8,426.8c2.1-3.4,5.5-5.4,8.4-8.1c1.3-1.2,2.6-2.3,2.9-4.3c3.1,3.5,3,8.2,0,11.5
		C-142.7,429.1-147.2,429.5-150.8,426.8z"/>
	<path class="st8" d="M-152.3,425.7c0.5,0.1,1,0.2,1.1,0.8C-151.7,426.4-152.1,426.2-152.3,425.7z"/>
</g>
<path class="st4" d="M-102.2,458.6c-0.1-0.5,0-1.2-0.4-1.7c0-0.4-0.3-0.7-0.5-1.1c-1.9-2.8-4.1-5.4-6.5-7.8
	c-2.3-2.4-4.8-4.6-7.3-6.8c-1-0.8-2.5-1.8-3.2-2.9c-0.5-0.1-0.5,0.5-0.8,0.7c-0.1,0.7-0.7,1-0.9,1.6c2.2,1.8,3.5,3.8,5.6,5.8
	c0.7,0.6,1,1.6,1.2,2.5c0.2,1-1,1.1-2.5,0.6c-3.5-1.1-6.7-2.6-9.8-4.4c-1.7-1-3.4-2.1-5.2-2.9l0,0l0,0l0,0c-0.2,0-0.5,0-0.5-0.2l0,0
	c-0.4-0.7-1.1-0.8-1.8-1.2l0,0c-0.1-0.3-0.4-0.5-0.8-0.5c0,0.1,0,0.2,0.1,0.2c0-0.1-0.1-0.2-0.1-0.2c-0.2-0.1-0.4-0.2-0.5-0.2
	c-0.2,0-0.4,0-0.5-0.2l0,0c-2.6-1-4.5-2.9-7-4.2c-0.3-0.2-0.5-0.4-0.4-0.8c-0.2,0-0.5-0.1-0.5-0.3c-1.6-1-3-2.4-4.9-3l-0.1,0.1
	c0,0,0-0.1,0.1-0.1c0-0.2,0-0.3-0.2-0.5l0,0c-1-1.2-2.7-1.6-3.7-2.9c-1.3-0.9-2.5-1.7-3.7-2.6c0-0.1,0.1-0.2,0.1-0.3l-4.9-3.8
	c-1.7-0.5-2.5-1.5-3.5-2.2c-3.6-2.9-7.1-5.9-10.6-8.8c-0.8-0.7-1.6-1.2-2.4-2c-1.2-1.4-2.5-2.7-3.7-4.1c-1-1.2-2.2-2.3-2.7-3.7
	c-0.4-1.1-0.1-1.2,1.1-1.2c3.3,0,5.8,1.8,8.5,3c0.5,0.2,1.2,0.5,1.7,0.8c0.8,0.2,0.7-0.9,1.3-1c0.1-0.3,0.3-0.7,0.4-1
	c-0.3-0.5-0.9,0-0.8-0.7c-0.8-0.6-2.1-0.8-2.9-1.4c-2.2-1.5-4.6-2.6-7-3.8c-1.9-1-3.3-1.9-5.5-2.9c-2.7-1.3-3.3-1.6-6.5-2.6
	c-0.5-0.2-2-0.6-3.2-0.3c-0.8,0.1-1.4,0.6-1.5,1.3c-0.3,1.1,0,2.1,0.6,3c1.3,1.8,2.6,3.7,4.2,5.4c1.4,1.5,2.9,3,4.4,4.5
	c1,0.9,1.7,1.8,2.8,2.8c0,0,1.7,1.5,2.5,2.2c1.6,1.4,5.5,4.6,6.1,5.3c2.8,2.3,5.6,4.5,8.4,6.9c0.1,0.1,0.1,0.2,0.2,0.2l0,0
	c1.1,0.4,1.7,1.5,2.8,1.9c0.1-0.1,0.1-0.1,0.2-0.1c-0.1,0-0.1,0.1-0.2,0.1c0.2,0.2,0.4,0.4,0.6,0.5c3.9,2.9,7.8,5.8,11.7,8.7
	c1,0.7,2.2,1.1,2.7,2.2c0.6-0.1,0.9,0.3,1.4,0.5c3.1,2,6.1,4.3,9.2,6.1c0-0.2,0-0.2,0.1-0.4c-2.2-1.8-4.6-3.1-7-4.8
	c2.2,1.6,4.7,3,7,4.8c0.3,0.1,0.5,0.2,0.7,0.4c-0.1-0.2-0.4-0.3-0.7-0.4c0,0.2,0,0.2-0.1,0.4c0.1,0.2,0.1,0.2,0.3,0.4
	c0.2,0,0.3,0.1,0.5,0.1l0,0c0.1,0.2,0.3,0.3,0.5,0.5l0.1,0c0.4,0.3,0.9,0.6,1.4,0.9c1.3,0.5,2.1,1.7,3.5,1.9l0,0
	c0.1,0.2,0.1,0.3,0.2,0.5c0.9,0.5,1.9,0.9,2.6,1.6c0.3,0,0.7,0,1,0c3.8,2.9,8.2,5.2,12.6,7.3c1.8,1.2,3.8,2,5.8,2.9
	c1.9,0.9,3.8,1.8,6,2c0.4,0.3,0.8,0.3,1.3,0.3c0.5,0.5,1.2,0.2,1.8,0.3C-102.7,460.2-102.1,459.7-102.2,458.6z M-161.8,422.3
	L-161.8,422.3c-0.1-0.1,0-0.1,0-0.2L-161.8,422.3C-161.7,422.2-161.7,422.2-161.8,422.3z M-150.9,433
	C-150.9,433.1-150.9,433.1-150.9,433C-150.5,433-150.5,433-150.9,433z M-150.3,434.3c-0.3,0-0.7,0-1-0.1
	C-150.9,434.2-150.6,434.3-150.3,434.3c0.4,0.5,0.9,1,1.6,1.3C-149.3,435.3-149.8,434.8-150.3,434.3z"/>
</svg>
