<?xml version="1.0" encoding="utf-8"?>
<!-- Generator: Adobe Illustrator 19.0.0, SVG Export Plug-In . SVG Version: 6.00 Build 0)  -->
<svg version="1.1" id="Capa_1" xmlns="http://www.w3.org/2000/svg" xmlns:xlink="http://www.w3.org/1999/xlink" x="0px" y="0px"
	 viewBox="-290.6 370.8 100 100" style="enable-background:new -290.6 370.8 100 100;" xml:space="preserve">
<style type="text/css">
	.st0{opacity:0.71;fill:url(#SVGID_1_);enable-background:new    ;}
	.st1{fill:#4E96E5;}
	.st2{fill:none;}
	.st3{fill:#3F83D8;}
	.st4{fill:#2570C1;}
	.st5{fill:#7AC2F9;}
	.st6{fill:#19329B;}
	.st7{fill:#03296D;}
	.st8{fill:#164393;}
	.st9{fill:#083177;}
	.st10{fill:#042560;}
	.st11{fill:#1634B2;}
	.st12{fill:#063384;}
	.st13{fill:#395C64;}
	.st14{fill:#739A9D;}
	.st15{fill:#184CA8;}
	.st16{fill:#F7F9FB;}
	.st17{fill:#F2F7F9;}
	.st18{fill:#F8FAFC;}
</style>
<linearGradient id="SVGID_1_" gradientUnits="userSpaceOnUse" x1="-271.8994" y1="391.2278" x2="-204.7662" y2="455.9485" gradientTransform="matrix(1 0 0 1 0 -0.62)">
	<stop  offset="0" style="stop-color:#15FFF5"/>
	<stop  offset="0.8874" style="stop-color:#0082FF"/>
</linearGradient>
<circle class="st0" cx="-240.2" cy="421.1" r="46.6"/>
<g>
	<g>
		<path class="st1" d="M-221.8,382.7c-7.8-5-18.9-5.6-27.4-4c-3,0.5-6.8,0-8,4.2l0,0l0,0c0.2,0.2,0.3,0.5,0.5,0.7s0.3,0.2,0.3,0.3
			l0.2,0.2c0.2,0,0.2,0,0.3,0.2c0.5,0,0.5,0,0.7,0c0.2,0,4,5.2,4.7,5.7c0.2-0.2-0.5,2.3-1.2,2.4c3.1,3.1,0.2,12.7-0.7,13.6
			c3.5,2.6,3.3,4.7,2.1,6.3c-5.2,6.6-11.5,6.3-17.7,0.9c-0.7-0.5-1.7-1.2-2.6-1.7c-1.9-1.2-4.5,5.6-5.4,0.9c-0.9-4.3-1.6-9.4,1.7-13
			c4.2-4.3,6.9-10.6,13.7-12c2.3-0.5,2.4-2.1,2.4-4c-2.3-0.5-4.3,0.3-6.1,1.7c-6.9,5.9-13.6,12.2-16.2,21.2
			c-3.6,12.7-3.5,25.7,5.7,36.5c0.9-0.7,2.4-2.1,3.3-3c-0.5-0.9-0.9-2.6-1.4-3.5c-1.2-2.8-2.8-5.2,0-7.3c2.8-2.3,5.4-0.5,7.6,1
			c2.4,1.6,4,3.8,4.2,6.9c1.7,0.7,3,0.5,5.7-0.5c1.7-0.7,4.7,0.5,8.2-0.9c3.8-1.6,2.8-6.8,3-6.1c0,0.2,0,0.5,0,0.9
			c0.5,0.5,0.9,1,1.4,1.6l0,0c1.7,0,3.5,0.2,5.2,0.2c0-2.1,9.6-0.9,11.5-0.9c0.5,0,4.5-14.9,1.4-16.3c0-0.5-7.8-0.9-8-1.4l0,0
			c0.7,0,1.4,0,1.9-0.2c1.2-0.3,1.7-1.6,2.1-3.1c0-0.3,4-1.6,4-1.9C-224.1,405.5-223.9,382.9-221.8,382.7z"/>
		<path class="st2" d="M-213.5,425.1c-0.9-0.5-1.6-1.2-1.6-2.1C-215,424.1-214.3,424.6-213.5,425.1z"/>
		<path class="st2" d="M-223.6,443.7c-1.9,1-3.1,3-3.5,5.9l0,0C-226.7,446.7-225.5,444.6-223.6,443.7z"/>
		<path class="st2" d="M-251.3,452.1c0.3,0.2,0.5,0.3,0.7,0.7C-250.8,452.4-251,452.2-251.3,452.1z"/>
		<path class="st2" d="M-247,453.1c1,0,2.1,0.2,3.1,0.3l0,0C-244.9,453.3-246,453.1-247,453.1z"/>
		<path class="st2" d="M-250.7,452.6c0.2,0.2,0.3,0.5,0.3,0.9l0,0C-250.3,453.1-250.3,452.9-250.7,452.6z"/>
		<path class="st2" d="M-243.9,429c0,0.2,0,0.5,0,0.9c0.5,0.5,0.9,1,1.4,1.6l0,0c-0.5-0.5-0.9-1-1.4-1.6
			C-243.9,429.5-243.9,429.3-243.9,429z"/>
		<path class="st2" d="M-215.2,423c0-0.2,0-0.5,0-0.7l0,0C-215.2,422.5-215.2,422.7-215.2,423z"/>
		<path class="st2" d="M-272.4,439c1.2,0.9,2.4,1.4,3.6,1.7C-269.9,440.4-271.2,439.7-272.4,439L-272.4,439z"/>
		<path class="st2" d="M-237.3,431.4L-237.3,431.4c0-2.1,1.4-2.8,3.3-2.8C-235.9,428.8-237.3,429.3-237.3,431.4z"/>
		<path class="st2" d="M-227.9,419.6c0,0.9-0.3,1.9-1,3.3C-228.2,421.5-227.9,420.4-227.9,419.6z"/>
		<path class="st2" d="M-215.2,422.4L-215.2,422.4c2.1-0.3,3.8,3,5.9,2.1C-211.4,425.1-213.1,422-215.2,422.4z"/>
		<path class="st2" d="M-259.7,454.7c-0.2,0.2-0.2,0.2-0.3,0.3C-259.9,454.8-259.9,454.7-259.7,454.7z"/>
		<path class="st2" d="M-243.9,453.5L-243.9,453.5L-243.9,453.5L-243.9,453.5z"/>
		<path class="st2" d="M-257.6,453.5L-257.6,453.5L-257.6,453.5z"/>
		<path class="st2" d="M-250.3,453.5L-250.3,453.5L-250.3,453.5z"/>
		<path class="st2" d="M-245.6,454.7c0.5-0.2,1.2-0.7,1.7-1.2l0,0C-244.6,454-245.1,454.3-245.6,454.7z"/>
		<path class="st2" d="M-213.1,425.5c0.2,0.2,0.5,0.2,0.7,0.3C-212.6,425.7-212.8,425.5-213.1,425.5z"/>
		<path class="st2" d="M-259.5,454.3c0.2,0,0.2-0.2,0.3-0.2C-259.3,454.3-259.3,454.3-259.5,454.3z"/>
		<path class="st2" d="M-251.5,451.9c-0.2-0.2-0.3-0.2-0.5-0.3C-251.9,451.5-251.7,451.7-251.5,451.9z"/>
		<path class="st2" d="M-258.1,453.6L-258.1,453.6L-258.1,453.6z"/>
		<path class="st2" d="M-252.4,451.2c-0.2-0.2-0.3-0.3-0.3-0.5C-252.6,451-252.4,451-252.4,451.2z"/>
		<path class="st2" d="M-258.6,453.8C-258.6,453.8-258.8,453.8-258.6,453.8C-258.8,454-258.6,454-258.6,453.8z"/>
		<path class="st2" d="M-232.8,428.6c1.2-0.3,1.9-1,1.9-2.6l0,0C-230.9,427.6-231.5,428.3-232.8,428.6z"/>
		<path class="st2" d="M-256,384c-0.2-0.2-0.3-0.2-0.3-0.3C-256.4,383.8-256.2,383.8-256,384z"/>
		<path class="st2" d="M-255.9,384.1c0.2,0,0.2,0,0.3,0.2C-255.7,384.1-255.7,384.1-255.9,384.1z"/>
		<path class="st2" d="M-246.8,402.5c-0.2,0.3-0.2,0.7-0.3,1C-247.2,403.2-247,402.9-246.8,402.5z"/>
		<path class="st2" d="M-247.7,389.7L-247.7,389.7L-247.7,389.7z"/>
		<path class="st2" d="M-232.2,431.4L-232.2,431.4L-232.2,431.4z"/>
		<path class="st2" d="M-250.8,392.6c0.9-0.2,1.6-0.3,2.1-0.9C-249.3,392.3-250,392.5-250.8,392.6L-250.8,392.6z"/>
		<path class="st2" d="M-261.3,405.5c-4.3-0.9-5.7-3.3-4.2-6.9C-267,402-265.6,404.6-261.3,405.5c1.9,3.1,4.2,4,6.4,3.6
			C-257.1,409.5-259.2,408.6-261.3,405.5z"/>
		<path class="st2" d="M-254.3,384.3c-0.3,0-0.5,0.2-0.9,0C-255,384.3-254.7,384.3-254.3,384.3z"/>
		<path class="st2" d="M-232.2,413.1c0.7,0,1.4,0,1.9-0.2C-230.9,413.1-231.4,413.1-232.2,413.1L-232.2,413.1z"/>
		<path class="st3" d="M-243.9,453.5L-243.9,453.5L-243.9,453.5z"/>
		<path class="st3" d="M-259.7,454.7l0.2-0.2c0.2,0,0.2-0.2,0.3-0.2c0.2,0,0.2-0.2,0.3-0.2c0,0,0.2,0,0.2-0.2c0.2,0,0.2-0.2,0.3-0.2
			h0.2c0.2,0,0.3-0.2,0.5-0.2c0,0,0,0,0.2,0c2.3-0.3,5.4,1.4,7.6,0.5l-0.3-0.5l0,0l0,0c0-0.3-0.2-0.5-0.3-0.9
			c-0.2-0.2-0.5-0.3-0.7-0.7c-0.2,0-0.2-0.2-0.3-0.2c-0.2-0.2-0.3-0.2-0.5-0.3l-0.2-0.2c-0.2-0.2-0.3-0.3-0.3-0.5
			c-0.2-0.3-0.2-0.7,0.2-1.4c0.7-1.2,1.9-1,3-0.9c0.3,0,0.7,0.2,1,0.2c1,0,2.1,0.3,2.8,0.7c0.2,0.2,0.5,0.3,0.7,0.5
			c0.9,0.7,0,2.3-0.3,4c0,0,1.2-0.2,1.4-0.2l0,0l0,0l0,0l0,0c0,0,0,0,0.2,0c1.4,0.2,2.6,0.2,4,0.3c4.5-0.7,8.7-2.4,12.9-4.3l0,0
			c0.3-3,1.4-4.9,3.5-5.9c1.2-0.5,2.6-0.9,4.3-0.9c0.7-0.9,1.6-1.6,2.1-2.4c2.1-3.3,4-6.6,6.3-9.7c0.2-0.3,0.3-0.7,0.5-0.9
			c0.9-2.1-0.5-3-2.1-3.8c-0.2-0.2-0.5-0.2-0.7-0.3c-0.2-0.2-0.3-0.2-0.5-0.3c-0.9-0.5-1.6-1.2-1.6-2.1c0,0,0,0,0-0.2s0-0.5,0-0.7
			l0,0l0,0l0,0c2.1-0.3,3.8,3,5.9,2.1c0.5-0.2,1-0.5,1.6-1.4c-5.7-5.7-6.3-6.6-1-11.5c0.3-0.2,0.5-0.5,0.9-0.9l0,0
			c-1.4-3.8,0-12.2,0.2-16.2l0,0c-0.3-0.3-0.7-0.7-1-1l0,0c-0.3-0.3-0.9-0.9-1.2-1.2l0,0c-3-3.6-5.7-7.5-10.4-8.9
			c-1.2-0.5-2.4-1-3.6-1.7c-2.1,0.2-3.5-0.2-1.7,3.1c0.3,0.7,0.7,1.2,0.9,1.9c1.7,4.3,1.2,8.5-4.5,10.8l0,0c0.2,4.2-4.3,1.7-6.1,4.2
			c0.5,0.2,0.9,0.3,1.4,0.3c0.5,0,1,0.2,1.4,0.3c0.7,0.2,1.4,0.3,2.1,0.7c0.3,0.2,0.9,0.3,1.2,0.7c1.2,0.9,1.9,2.4,1.4,5.2
			c0,0.3-0.2,0.7-0.2,1c-0.3,1.6-0.9,2.6-2.1,3.1c-0.5,0.2-1,0.2-1.9,0.2c0,0.5,0,1.2,0.2,1.7c3,1.2,4.3,2.6,4.3,4.7
			c0,0.9-0.3,1.9-1,3.3c-0.5,0.9-1,1.9-1.9,3.1c0,1.6-0.7,2.4-1.9,2.6c-0.3,0.2-0.9,0.2-1.2,0.2c-1.9,0-3.3,0.5-3.3,2.8l0,0
			c-1.7,0-3.5-0.2-5.2-0.2l0,0h-0.2l0,0l0,0l0,0c-0.5-0.5-0.9-1-1.4-1.6c0-0.3,0-0.5,0-0.9c-0.2-0.7-0.5-1.4-1.4-1.9
			c-3,0.9,1.7,4.2-2.1,5.7c-3.5,1.4-5.9,2.4-7.6,3.1c-3,1-4,1.2-5.7,0.5c-2.1,4.2-4.9,5.2-8,4.2c-1.2-0.3-2.4-1-3.6-1.7
			c-1,0.9-2.1,1.9-3,2.8c2.6,6.9,8,11.5,14.6,14.2c0.2-0.2,0.3-0.9,0.5-1c0,0,0,0,0-0.2C-259.9,454.8-259.9,454.7-259.7,454.7z
			 M-231.9,430.9c-0.2,0.2-0.2,0.3-0.3,0.5l0,0C-232.1,431.2-231.9,431-231.9,430.9z M-232.2,431.4L-232.2,431.4L-232.2,431.4
			L-232.2,431.4z"/>
		<path class="st1" d="M-242.5,431.4L-242.5,431.4L-242.5,431.4L-242.5,431.4z"/>
		<path class="st4" d="M-215.2,422.2L-215.2,422.2C-215.2,422.4-215.2,422.4-215.2,422.2L-215.2,422.2
			C-215.2,422.4-215.2,422.4-215.2,422.2C-215.2,422.4-215.2,422.2-215.2,422.2z"/>
		<path class="st4" d="M-250.3,453.5L-250.3,453.5L-250.3,453.5L-250.3,453.5L-250.3,453.5z"/>
		<path class="st4" d="M-207.7,423c-0.5,0.7-1,1.2-1.6,1.4c-2.1,0.9-3.8-2.4-5.9-2.1c0,0.2,0,0.5,0,0.7c0,0,0,0,0,0.2
			c0.2,0.9,0.9,1.6,1.6,2.1c0.2,0.2,0.3,0.2,0.5,0.3c0.2,0.2,0.5,0.2,0.7,0.3c1.6,0.9,3,1.7,2.1,3.8c-0.2,0.3-0.3,0.5-0.5,0.9
			c-2.1,3.3-4,6.6-6.3,9.7c-0.5,0.9-1.4,1.6-2.1,2.4c1.4,2.3,1.9,4.2-0.2,6.4c-2.6,2.4-5,2.1-7.6,0.3l0,0l0,0
			c-4.2,1.9-8.3,3.6-12.9,4.3c-1.4-0.2-2.6-0.2-4-0.3c0,0,0,0-0.2,0c-0.5,0.5-1.2,0.9-1.7,1.2c0.5-0.2,1.2-0.7,1.7-1.2l0,0l0,0l0,0
			l0,0l0,0h-0.2l0,0l0,0c-1-0.2-2.1-0.3-3.1-0.3c-1,0-2.1,0-3.1,0.3l0,0h-0.2l0,0l0,0l0,0c-2.3,0.9-4.9-0.3-7.3,0c0,0,0,0-0.2,0
			c-0.2,0-0.3,0-0.5,0.2h-0.2c-0.2,0-0.2,0.2-0.3,0.2c0,0-0.2,0-0.2,0.2c-0.2,0-0.2,0.2-0.3,0.2c-0.2,0-0.2,0.2-0.3,0.2l-0.2,0.2
			c-0.2,0.2-0.2,0.2-0.3,0.3c0,0,0,0,0,0.2c-0.2,0.2-0.3,0.3-0.5,0.7c7.5,5.2,16,5.9,24.8,5.4c20-1.4,37.7-22.4,35.8-37.7
			C-202.5,423.2-205.1,423.2-207.7,423z"/>
		<path class="st5" d="M-250.8,392.6L-250.8,392.6c0.9-0.2,1.6-0.3,2.1-0.9c0.5-0.5,0.9-1,1-2.1l0,0l0,0c-0.7-0.3-1.9-1-1.9-1.2
			c3.1-6.6-0.9-5.4-4.7-4.3c-0.3,0-0.5,0.2-0.9,0c-0.2,0-0.2,0-0.3-0.2c-0.2,0-0.2,0-0.3-0.2l-0.2-0.2c-0.2-0.2-0.3-0.2-0.3-0.3
			c-0.2-0.2-0.3-0.3-0.5-0.7l0,0c-0.3,0.2-0.7,0.2-1.2,0.3c0,1.7-0.2,3.5-2.4,4c-6.8,1.4-9.7,7.5-13.7,12c-3.3,3.6-2.6,8.7-1.7,13
			c0.9,4.7,3.6-1,5.4,0.2c0.7,0.5,1.4,0.9,2.1,1.6c6.3,5.4,13,4.9,18.2-1.7c1.2-1.6,4.5-3,1-5.6c0.9-1,1.6-1.9,2.1-2.8
			c0.2-0.3,0.3-0.7,0.3-1C-245.8,399.1-247.9,395.8-250.8,392.6z M-261.3,405.5c-4.3-0.9-5.7-3.3-4-6.9
			C-267,402-265.6,404.6-261.3,405.5c1.9,3.1,4.2,4,6.4,3.6C-257.1,409.5-259.2,408.6-261.3,405.5z"/>
		<g>
			<path class="st6" d="M-201.8,409c-1.4,0.2-4.5,1.7-5.9,1.7c-0.3,0.3-0.7,0.5-0.9,0.9c-5.4,4.9-4.7,5.7,1,11.5
				c2.6,0.2,5.2,0.2,7.8,0.3C-199.1,418.4-199.8,413.7-201.8,409z"/>
			<path class="st7" d="M-202,409.2c-0.5,0.2-0.9,0.3-1.4,0.5l-1.2,0.7c-0.5,0.2-0.9,0.5-1.4,0.7c-0.5,0.2-1,0.5-1.7,0.5l0.5-0.2
				l-1.4,1.4c-0.5,0.5-0.9,0.9-1.2,1.4c-0.3,0.5-0.7,1-0.9,1.4c-0.2,0.2-0.2,0.3-0.2,0.5s0,0.3,0,0.5c0,0.7,0.9,1.6,1.6,2.4
				c0.9,0.9,1.7,1.7,2.8,2.6l-1-0.5c1.2,0,2.6,0.2,3.8,0.3l3.8,0.3l-1.4,1c0.2-0.5,0.2-1.2,0.3-1.7c0-0.5,0.2-1.2,0.2-1.7
				c0.2-1.2,0.2-2.3,0-3.5c-0.2-1.2-0.2-2.4-0.3-3.6c-0.2-0.5-0.2-1.2-0.3-1.7L-202,409.2z M-201.8,409c1,2.3,1.7,4.7,2.1,7.1
				c0.3,2.4,0.3,5-0.2,7.5v0.2h-0.2l-7.8-0.3l0,0l0,0c-0.9-0.9-1.9-1.9-2.8-2.8c-0.3-0.5-0.9-1-1.2-1.6c-0.2-0.3-0.3-0.5-0.5-0.9
				c0-0.7,0-1,0-1.4c0-0.3,0-0.7,0.2-1c0.2-0.3,0.2-0.7,0.3-0.9c0.3-0.5,0.9-1,1.2-1.6c0.9-0.9,1.9-1.7,3-2.6l0,0l0,0
				c1-0.2,1.9-0.5,3-0.9l1.4-0.5C-202.9,409.2-202.4,409-201.8,409L-201.8,409L-201.8,409z"/>
		</g>
		<path class="st4" d="M-207.7,410.7L-207.7,410.7c1.4-0.2,4.5-1.7,5.9-1.7c-1-4.2-1.7-11.5-5.7-14.2l0.2,0.2l-0.2-0.2l0,0
			C-207.9,398.7-209.1,407.1-207.7,410.7z"/>
		<path class="st2" d="M-210,392.3c0.3,0.3,0.9,0.9,1.2,1.2"/>
		<path class="st2" d="M-207.6,394.7L-207.6,394.7"/>
		<path class="st2" d="M-207.6,394.7c-0.3-0.3-0.7-0.7-1-1"/>
		<g>
			<path class="st8" d="M-264.9,429.7c-2.3-1.6-4.7-3.1-7.6-1c-2.8,2.1-2.4,4.7-1.2,7.5c0.3,1,1,1.9,1.6,2.8
				c1.2,0.9,2.4,1.4,3.6,1.7c3.1,1,5.9,0,8-4.2C-261.1,433.5-262.6,431.2-264.9,429.7z"/>
			<path class="st9" d="M-265.1,429.7c-0.7-0.5-1.4-0.9-2.1-1.2s-1.6-0.5-2.3-0.5c-0.3,0-0.7,0-1.2,0.2c-0.3,0.2-0.7,0.3-1,0.5
				c-0.2,0.2-0.3,0.2-0.5,0.3s-0.2,0.2-0.3,0.3c-0.3,0.3-0.5,0.5-0.7,0.9c-0.9,1.2-0.7,2.6-0.2,3.8l0.5,1c0,0.2,0.2,0.3,0.2,0.5
				l0.3,0.5c0.5,0.7,0.9,1.4,1.2,2.1l-0.3-0.5c0.9,0.5,1.9,1,2.8,1.6l0.3,0.2c0,0,0.2,0,0.3,0.2c0.3,0.2,0.5,0.2,0.7,0.2
				c0.5,0.2,0.9,0.2,1.4,0.2c0.9,0,1.7-0.3,2.6-1c0.9-0.7,1.6-1.6,2.1-2.4v0.3c0-1.4-0.2-2.6-0.9-3.8
				C-262.8,431.4-263.9,430.5-265.1,429.7z M-264.9,429.5c1.2,0.9,2.3,1.7,3,3c0.7,1.2,1.2,2.6,1.2,4l0,0l0,0
				c-0.5,1-0.2,2.6-0.9,3.5c-0.9,0.9-3,1.7-4.2,1.9c-1.2,0.2-2.4-0.7-3.5-1.2c-1-0.3-2.1-1-3.1-1.6l0,0l0,0l-1.2-2.3
				c-0.3-0.7-0.7-1.6-0.9-2.3c-0.2-0.9-0.3-1.7-0.2-2.6c0.2-0.9,0.5-1.7,1-2.3c0.5-0.7,1.2-1.2,1.9-1.6s1.6-0.7,2.4-0.5
				C-267.7,427.6-266.3,428.6-264.9,429.5z"/>
		</g>
		<g>
			<path class="st6" d="M-227,449.6c2.6,1.7,5,2.1,7.6-0.3c2.3-2.1,1.7-4.2,0.2-6.4c-1.7,0-3.3,0.2-4.3,0.9
				C-225.5,444.6-226.7,446.7-227,449.6z"/>
			<path class="st10" d="M-226.9,449.5c0.7,0.2,1.2,0.3,1.7,0.5s1.2,0.2,1.7,0.2c1,0,2.1-0.5,3.1-1c0.3-0.2,0.5-0.3,0.7-0.5
				c0.3-0.2,0.5-0.3,0.7-0.7c0.3-0.5,0.7-1,0.7-1.6c0-1.2-0.9-2.3-1.6-3.1l0.5,0.3c-0.9,0-1.9,0.2-2.6,0.3c-0.3,0.2-0.9,0.3-1.2,0.5
				c-0.2,0-0.5,0.2-0.5,0.3c-0.2,0-0.3,0.2-0.5,0.3c-0.7,0.5-1.2,1.2-1.7,1.9C-226.2,447.7-226.5,448.6-226.9,449.5z M-227,449.6
				c-0.2-1-0.2-2.1,0.2-3.1c0.3-1,0.9-2.1,1.7-2.8c0.2-0.2,0.3-0.3,0.7-0.5c0.3-0.2,0.3-0.2,0.7-0.3c0.5-0.2,1-0.3,1.6-0.5
				c1-0.2,2.1-0.2,3.1-0.2h0.3l0.2,0.3c0.7,1.2,1,2.6,0.9,4c0,0.7-0.3,1.4-0.7,1.9c-0.2,0.3-0.3,0.7-0.5,0.9
				c-0.2,0.3-0.5,0.5-0.7,0.9c-0.5,0.5-1,1-1.7,1.2c-0.7,0.3-1.6,0.3-2.3,0.3C-224.9,451.5-226.2,450.7-227,449.6L-227,449.6
				L-227,449.6z"/>
		</g>
		<g>
			<path class="st11" d="M-243.9,453.5L-243.9,453.5c0.3-1.7-0.2-2.8-0.9-3.6c-0.2-0.2-0.5-0.3-0.7-0.5c-0.7-0.3-1.7-0.5-2.8-0.7
				c-0.3,0-0.7-0.2-1-0.2c-1.2-0.2-2.3-0.3-3,0.9c-0.3,0.5-0.3,1-0.2,1.4c0,0.2,0.2,0.3,0.3,0.5l0.2,0.2c0.2,0.2,0.3,0.2,0.5,0.3
				c0.2,0,0.2,0.2,0.3,0.2c0.3,0.2,0.5,0.3,0.7,0.7c0.2,0.2,0.3,0.5,0.3,0.9l0,0c1-0.3,2.1-0.3,3.1-0.3
				C-246,453.1-244.9,453.3-243.9,453.5z"/>
			<path class="st12" d="M-243.9,453.3C-244.1,453.5-244.1,453.5-243.9,453.3L-243.9,453.3L-243.9,453.3L-243.9,453.3L-243.9,453.3
				L-243.9,453.3v-0.2v-0.3c0-0.2,0-0.3,0-0.5c0-0.3,0-0.7-0.2-1s-0.3-0.7-0.5-0.9c-0.2-0.3-0.3-0.3-0.7-0.5
				c-0.3-0.2-0.5-0.3-0.9-0.3s-0.7-0.2-1-0.2c-0.3,0-0.7,0-1,0l-1-0.2c-0.3,0-0.7-0.2-1-0.2c-0.3,0-0.5,0-0.9,0.2
				c-0.2,0-0.3,0.2-0.5,0.3c-0.2,0.2-0.2,0.5-0.2,0.7v0.2l0,0l0,0l0,0c0,0,0,0.2,0-0.2l0,0l0,0v0.2l0.2,0.2c0,0,0.3,0.3,0.7,0.3
				l0.2,0.2l0.3,0.2l0.3,0.3c0.3,0.3,0.7,0.9,0.7,1.6l-1.2-0.9c1.2-0.3,2.3-0.3,3.5-0.2c0.2,0,0.3,0,0.3,0.2l0.3,0.2l0.7,0.2
				C-244.9,452.9-244.4,453.1-243.9,453.3L-243.9,453.3z M-243.9,453.5c-0.5,0-1,0.2-1.6,0.2h-1.6c-1,0-1.9,0.3-2.8,0.5l-0.9,0.3
				l-0.3-1c0-0.2,0-0.2-0.2-0.3l-0.3-0.3l-0.2-0.2l0,0l0,0l0,0c0.2,0.2,0,0,0.2,0l0,0l0,0l-0.2-0.2c-0.3-0.3-0.5-0.3-1-0.9l-0.2-0.2
				v-0.2l0,0V451l0,0l0,0l0,0c-0.2-0.3-0.2-0.5-0.2-0.9c0-0.5,0.3-0.9,0.5-1.4c0.3-0.3,0.7-0.7,1.2-0.9s0.9-0.2,1.4,0
				c0.3,0,0.9,0.2,1,0.2l1,0.2c0.3,0,0.7,0.2,1,0.2c0.3,0,0.7,0.2,1,0.3c0.3,0.2,0.7,0.3,1,0.5c0.3,0.2,0.7,0.5,0.9,0.9
				s0.3,0.7,0.5,1c0,0.3,0.2,0.7,0,1c0,0.2,0,0.3,0,0.5v0.3v0.2L-243.9,453.5L-243.9,453.5L-243.9,453.5L-243.9,453.5L-243.9,453.5
				C-243.9,453.5-243.7,453.5-243.9,453.5L-243.9,453.5z"/>
		</g>
		<path class="st13" d="M-243.9,453.5L-243.9,453.5L-243.9,453.5L-243.9,453.5L-243.9,453.5L-243.9,453.5z"/>
		<path class="st13" d="M-250.3,453.5L-250.3,453.5L-250.3,453.5L-250.3,453.5z"/>
		<path class="st14" d="M-231.9,430.9c-0.2,0.2-0.2,0.3-0.3,0.5l0,0C-232.1,431.2-231.9,431-231.9,430.9z"/>
		<path class="st2" d="M-242.5,431.4c-0.5-0.5-0.9-1-1.4-1.6"/>
		<path class="st2" d="M-242.5,431.4L-242.5,431.4"/>
		<line class="st2" x1="-242.5" y1="431.4" x2="-242.5" y2="431.4"/>
		<g>
			<path class="st8" d="M-231,392.3c-2.3-0.2-5.6-0.3-5.4,2.6c0,3.5,3.3,2.3,5.6,2.3c0.3,0,0.9,0.2,1.2,0.2l0,0
				C-230.2,395.8-226.2,392.6-231,392.3z"/>
			<path class="st15" d="M-231,392.5c-1.2-0.2-2.6-0.2-3.6,0.3c-0.5,0.2-0.9,0.7-1,1c-0.2,0.2-0.2,0.5-0.2,0.9v0.2c0,0,0,0.2,0,0
				v0.2v0.5c0,0.2,0.2,0.5,0.3,0.7c0.2,0.2,0.3,0.3,0.5,0.3c0.3,0.2,1,0.2,1.6,0.2c0.5,0,1.2-0.2,1.9-0.3c0.2,0,0.3,0,0.5,0h0.2
				c0,0,0,0,0.2,0l0,0h0.2l0.9,0.2l0,0l0,0l-0.9,1.2c0-0.2-0.2-0.5-0.2-0.7s0-0.5,0.2-0.7c0.2-0.3,0.2-0.7,0.3-0.9
				c0.3-0.5,0.7-1,0.9-1.4c0.2-0.2,0.2-0.3,0.2-0.5s-0.2-0.3-0.3-0.5c-0.2-0.2-0.5-0.2-0.7-0.3C-230.5,392.5-230.7,392.5-231,392.5z
				 M-231,392.3c0.5,0,1.2,0,1.7,0.2c0.3,0,0.7,0.3,0.9,0.7c0.2,0.3,0.2,0.9,0.2,1.2c0,0.7-0.3,1.2-0.5,1.7c0,0.2-0.2,0.5-0.2,0.7
				s0,0.2,0,0.2s0,0,0,0.2l-0.7,1.2h-0.2l0,0l0,0l0,0l-0.9-0.2h-0.2l0,0c0.2,0,0,0,0,0h-0.2c-0.2,0-0.3,0-0.5,0h-1.9
				c-0.7,0-1.4,0-2.3-0.5c-0.3-0.2-0.7-0.5-0.9-0.9c-0.2-0.3-0.2-0.7-0.3-1.2v-0.5v-0.2c0-0.2,0-0.2,0-0.2v-0.3c0-0.3,0.2-0.7,0.3-1
				c0.3-0.7,1-1.2,1.7-1.4c0.7-0.2,1.4-0.2,1.9-0.2L-231,392.3z"/>
		</g>
		<path class="st16" d="M-213.7,416.6c-0.9-6.1-3.6-8.7-9.9-9.4c-3.3-0.3-6.4-0.3-9.6,1c-1,0.5-1.4,0.5-2.6-0.3
			c-2.1-1.9-5.4-1-8-0.5c-2.3,0.5-1,3.1-1,4.7c-0.2,3.5,0,6.9,0,10.4c0,3.6,0.2,7.3,0,10.9c-0.2,3.5,0.3,5.2,4.9,5.2
			c4.7,0,5.2-1.7,5-5.4c-0.3-4.2-0.2-8.3,0-12.5c0.2-3.6,1.9-5.7,6.1-5.6c4,0,5.4,2.3,5.4,5.7c0,4.5,0,8.9,0,13.4c0,1.4-1,3.5,1,4
			c2.6,0.7,5.6,0.7,8.3-0.2c0.7-0.2,0.7-1.2,0.7-1.9C-213.5,429.8-212.8,423.2-213.7,416.6z"/>
		<path class="st17" d="M-257.3,402.7c3.1,0.2,6.1-2.6,6.1-5.4c-0.2-3.1-1.9-5.2-5.4-5.4s-5.9,1.9-6.1,5
			C-263,399.9-260.6,402.5-257.3,402.7z"/>
		<path class="st18" d="M-251.2,422.7c0-2.6,0-5.4,0-8c0-7.8,0-7.6-8.3-7.6c-3,0-3.5,1-3.3,3.5c0.2,6.8,0,13.4,0,20.2
			c0,8.2,0,8.2,8.5,7.8c2.6-0.2,3.3-1,3.1-3.3C-251.3,431-251.2,426.9-251.2,422.7z"/>
	</g>
</g>
</svg>
