<?xml version="1.0" encoding="utf-8"?>
<!-- Generator: Adobe Illustrator 19.0.0, SVG Export Plug-In . SVG Version: 6.00 Build 0)  -->
<svg version="1.1" id="Capa_1" xmlns="http://www.w3.org/2000/svg" xmlns:xlink="http://www.w3.org/1999/xlink" x="0px" y="0px"
	 viewBox="-147 343.9 300 155" style="enable-background:new -147 343.9 300 155;" xml:space="preserve">
<style type="text/css">
	.st0{fill:#99C140;}
	.st1{fill:#96AA3B;}
	.st2{fill:#849535;}
	.st3{fill:#849534;}
	.st4{fill:#F0FCFE;}
	.st5{fill:#D4F5FB;}
	.st6{fill:#DEF5F8;}
	.st7{fill:#DFF6FA;}
	.st8{fill:#FEFEFE;}
</style>
<path class="st0" d="M50.2,397.1c6.7,10.7,12.5,21.9,18,33.2c4.5,9.2,8.7,18.5,13,27.7c0.4,0.9,0.7,1.8,1.1,2.7
	c0.5,1.1,1.1,2.1,1.6,3.2c4.1,9.5,8.2,19,12.4,28.5c0.2,0.5,0.1,1.5,0.9,1.5c0.6,0,0.9-0.8,1.3-1.3c3.6-6,6.8-12.2,9.2-18.8
	c3.4-9,3.7-19.2,3.7-28.6c0.1,0,0.7,0.5,0.8,0.5c5.3,2.4,6,2.4,8.4-2.9c0.1-0.2,0.2-0.3,0.3-0.5c0.9,0.1,1.1,0.9,1.4,1.5
	c9.8,17.2,17.4,35.3,24.5,53.8c0.1,0.4,0.1,0.8,0.1,1.2c-40.7,0-81.4,0-122,0c-0.6-5.5-1.3-10.9-1.9-16.4c-0.5-4.6-1.1-9.3-1.5-13.9
	c-0.3-3.8-0.7-7.5-1-11.3c-0.6-6.8-1.1-13.6-1.6-20.4c-0.3-4.5-0.5-9.1-0.9-13.6c-0.5-6.9-1.1-13.8-1.7-20.6
	c1.2-0.2,1.9,0.3,2.8,0.8c3.7,1.7,7.5,3.3,11.6,3.5C39.1,407.2,44.8,402.4,50.2,397.1z"/>
<path class="st1" d="M17.5,401.7c0.6,6.9,1.2,13.9,1.8,20.8c0.4,4.6,0.6,9.2,0.9,13.7c0.5,6.9,1.1,13.8,1.6,20.6
	c0.4,3.8,0.7,7.6,1.1,11.4c0.4,4.7,1.1,9.4,1.6,14.1c0.6,5.5,1.4,11,2,16.6c-16.8,0-33.7,0-50.5,0c-0.1-1.5-2.2-1.9-2.2-3.4
	c1.1-4.6,2-9.1,3.1-13.6c3.2-14,6.4-28,9.6-42c2.3-9.8,4.7-19.7,7.1-29.5c0.8-3.1,1.1-6.2,2.5-9.1c4.4,2.8,9.3,3.3,14.4,2.8
	c2.4-0.3,4.8-0.5,6.6-2.3h0.2H17.5z"/>
<path class="st1" d="M-54.4,498.8c-18.9,0-37.7,0-56.6,0c0.9-4.3,2.7-8.2,4.4-12.3c4.9-12.2,7.4-24.8,7.7-37.8
	c1.9,0.9,3.8,2.2,5.9,2.5c4.6,0.8,7.9,0.5,8.5-4.4c1.1,1.4,2,2.7,3,4.1c9.6,13.7,17.8,28.1,25.2,43C-55.5,495.5-54.6,497-54.4,498.8
	z"/>
<path class="st2" d="M-98.4,448.7c-0.3,13-2.7,25.7-7.5,37.8c-1.6,4-3.4,8-4.3,12.3c-9.8,0-19.7,0-29.6,0
	c7.3-18.7,15.4-37.2,25.4-54.6c0.3-0.5,0.5-1,0.8-1.5c1-0.4,1.4,0.4,1.8,1c1.9,2.6,4.3,4.1,7.5,4.6
	C-102.4,448.7-100.4,448.5-98.4,448.7z"/>
<path class="st0" d="M-54.9,498.8c-0.1-1.8-1.1-3.3-1.9-4.9c-7.2-14.9-15.7-29.2-25.1-42.9c-0.9-1.4-1.6-2.8-2.6-4.2
	c-0.2-0.4-0.6-0.7-0.5-1.3c1.8,0.8,3.6,1.8,5.5,2.6c3.9,1.6,5.1,0.9,5.7-3.7c7.5,6.6,14.1,13.8,20.9,20.6c4.4,4.8,8.9,9.5,13.3,14.3
	c2.4,2.7,4.8,5.5,7.3,8.1c2.6,2.6,4.7,5.7,7.7,8c0.1,1.5,2,1.8,2.1,3.3C-33.3,498.8-44.1,498.8-54.9,498.8z"/>
<path class="st3" d="M-24.2,496.5c-3-2.3-6.1-5.8-8.7-8.4c-2.6-2.6-4.9-5.4-7.3-8c-4.4-4.8-8.2-10.1-12.6-14.9c2-5.9,4-11.9,6-17.7
	c6.2-18,12.8-36,20.8-53.4c0.6,0,0.8,0.3,0.9,0.8c0.3,1.7,1.3,2.9,2.6,3.9c4,3.1,8.4,4.5,13.4,4c1.7-0.2,5.4,0.2,5.6-2.3
	c0.5,0.8-0.5,0.9,0,1.7c-1.4,2.9-1.6,6-2.3,9c-2.2,9.8-4.5,19.5-6.6,29.2c-3,13.9-6,27.7-9,41.6C-22.6,486.5-23.3,492-24.2,496.5z"
	/>
<path class="st4" d="M17.1,402.5l-0.2,0h-0.2c-0.1-3.3-0.8-6.5-1.2-9.8c-0.9-6.3-1.7-12.5-2.7-18.8c-1-6.7-2.2-13.3-2.7-20
	c0-0.3,0-0.5,0-0.8c3.3,0.8,6,2.6,8.7,4.5c8.7,6.1,14.9,14.6,21,23c3.5,4.7,6.8,9.7,9.8,14.7c0.3,0.5,0.6,1.1,0.5,1.7
	c-5.3,5.3-11.2,10.9-19.3,10.5c-4-0.2-7.4-1.5-11-3.2C19,404,18.2,402.3,17.1,402.5z"/>
<path class="st2" d="M111.7,445.3c-0.1,9.5,0.8,19.8-2.9,28.8c-2.7,6.6-6.2,12.9-10.1,19c-0.4,0.5-0.6,1.3-1.4,1.3
	c-0.9,0-0.8-0.9-1-1.5c-4.6-9.6-8.6-19.4-13.1-29c-0.5-1.1-0.5-2.5-1.1-3.6c0.3-0.6,0-0.1,0.3-0.8c3.4-5.9,6.8-11.9,10.2-17.8
	c1.5,0.2,2,1.4,2.9,2.2c5.2,4.6,10.6,4.1,17.1,0.8C112.7,444.9,111.6,445,111.7,445.3z"/>
<path class="st5" d="M10.1,353.2c0,0.3,0,0.5,0,0.8c-1-0.1-1.6,0.5-1.6,1.3c0.1,2.4-1.4,4.4-2.1,6.5c-3.7,10.7-7.1,21.5-9.9,32.5
	c-0.4,1.7,1.2,3.9,1.3,5.7c-0.2,2.4-4.6,2.5-6.4,2.7c-5.1,0.5-9.8-0.7-14-3.8c-1.4-1-2.4-2.4-2.7-4.1c-0.1-0.6-0.3-0.9-0.9-0.9
	c3.1-7.9,7.2-15.5,11.2-22.9c2.2-4,4.6-7.7,7.5-11.3C-2.9,354.3,2.3,350.6,10.1,353.2z"/>
<path class="st5" d="M-104.3,448.3c-3.2-0.5-5.6-2.1-7.5-4.6c-0.5-0.6-0.8-1.4-1.8-1c2.4-5.4,5.9-10.1,10.6-13.7
	c0.9-0.7,2-1.3,3.3-1.1c0.4,0.1,2.5,9.5,2.7,14.7c0.1,4.1-1.6,4.1-1.4,6.1C-98.4,448.8-102.4,448.7-104.3,448.3z"/>
<path class="st6" d="M111.7,445.3c-6,3.3-11.6,3.2-16.5-1.4c-0.8-0.8-1.4-2-2.7-2.2c3-6.6,6.5-13,11.4-18.6c1.4-1.7,3-1.6,4.6-0.3
	c1,0.8,2.3,5.8,3.8,12.2C112.4,436.7,112,443.5,111.7,445.3z"/>
<path class="st7" d="M-3.9,394.8c3.1-11,5.6-22.2,9.7-32.9c0.8-2.2,2.4-4.1,2.3-6.5c0-0.8,1-1.5,2.1-1.4c0.9,6.7,1.8,13.4,2.8,20.1
	c1,6.3,2.1,12.5,3,18.8c0.5,3.3,1.3,6.5,1.4,9.8c-1.9,1.8-4.4,2.1-7,2.3c-5.4,0.5-10.3,0.3-15-2.4C-5,401.6-4.4,396.5-3.9,394.8z"/>
<path class="st4" d="M-99.7,427.9c0,0,6.2,6.6,9.1,10.2c2.7,3.7,6,8.4,6,8.4s6.8,3.7,9.2,2.9s1.6-4.9,1.6-4.9s-9.1-7.8-14-11.5
	C-92.7,429.3-99.7,427.9-99.7,427.9z"/>
<path class="st8" d="M111.4,445.3c0,0,2.9,3.5,5.9,2.7s5-4.1,5-4.1s-2.8-6.1-5.7-10.8c-2.8-4.7-8.2-9.8-8.2-9.8s1.6,7.5,2.3,11.5
	C111.6,438.8,111.4,445.3,111.4,445.3z"/>
<path class="st7" d="M-99.7,427.9c0,0-0.5,6.2-0.2,10.9c0.3,4.6,1.1,9.9,1.1,9.9s5.2,3.5,10,3.1c4.8-0.4,4.4-4.9,4.4-4.9
	s-5.5-8.7-7.6-11.2C-94.1,433.1-99.7,427.9-99.7,427.9z"/>
</svg>
