<?xml version="1.0" encoding="utf-8"?>
<!-- Generator: Adobe Illustrator 19.0.0, SVG Export Plug-In . SVG Version: 6.00 Build 0)  -->
<svg version="1.1" id="Capa_1" xmlns="http://www.w3.org/2000/svg" xmlns:xlink="http://www.w3.org/1999/xlink" x="0px" y="0px"
	 viewBox="-210.6 370.6 100 100" style="enable-background:new -210.6 370.6 100 100;" xml:space="preserve">
<style type="text/css">
	.st0{fill:#58B6F2;}
	.st1{fill:#13BAB6;}
	.st2{fill:#53AAF9;}
	.st3{fill:#33A5ED;}
	.st4{fill:#6ABEF3;}
	.st5{fill:#2585C2;}
	.st6{fill:#F6FBFB;}
	.st7{fill:#0EE5E5;}
</style>
<circle class="st0" cx="-166" cy="412.2" r="34.6"/>
<g>
	<g>
		<path class="st1" d="M-202.4,457.5c0,0,0.2,0.1,0.6,0.5c0.2,0.1,0.4,0.4,0.7,0.7c0.3,0.2,0.7,0.5,1,0.8c1.6,1.1,4.4,2.2,8.1,2.6
			c1.8,0.2,3.9,0.3,6.1,0.1c2.2-0.1,4.6-0.4,7.2-1c5.1-1,10.6-2.9,16.3-5.5s11.7-6.1,17.4-10.6c2.9-2.2,5.6-4.7,8.2-7.4
			c2.6-2.8,5.1-5.7,7.4-8.9c4.5-6.4,8.3-13.8,10.5-21.7c0.5-2,1-4,1.4-6c0.3-2,0.6-4.1,0.5-6.2c0.1-4.1-0.5-8.3-2.4-11.9
			c-0.2-0.5-0.5-0.8-0.8-1.3c-0.3-0.4-0.6-0.8-0.9-1.1l-0.5-0.5l-0.1-0.1c0,0-0.1-0.1,0,0l-0.2-0.1l-0.3-0.3l-0.6-0.5
			c-0.2-0.2-0.4-0.3-0.6-0.4c-1.6-1.1-3.5-1.8-5.4-2c-2-0.3-4-0.3-6,0c-2,0.3-4,0.7-5.9,1.3c-3.9,1.2-7.6,2.8-11.2,4.7
			c-3.5,1.9-7,4-10.2,6.2c-6.4,4.5-12.2,9.5-17.3,14.6c-1.3,1.3-2.5,2.6-3.7,3.9s-2.3,2.6-3.4,3.9c-2.2,2.6-4.2,5.2-6,7.8
			c-3.6,5.1-6.5,10.2-8.6,14.9c-2.1,4.6-3.3,9-3.8,12.7c-0.5,3.7,0,6.6,0.7,8.4c0.2,0.5,0.4,0.8,0.6,1.2c0.2,0.3,0.4,0.6,0.6,0.8
			C-202.6,457.3-202.4,457.5-202.4,457.5L-202.4,457.5z M-202.6,457.6c0,0-0.2-0.2-0.5-0.6c-0.2-0.2-0.4-0.4-0.6-0.8
			c-0.2-0.3-0.4-0.7-0.6-1.2c-0.8-1.9-1.3-4.8-0.9-8.5c0.4-3.7,1.5-8.1,3.4-13c1.9-4.9,4.6-10,8.1-15.5c3.4-5.3,7.7-10.9,12.7-16.2
			c5-5.4,11-10.4,17.6-15c3.3-2.3,6.8-4.4,10.5-6.3c3.7-1.9,7.6-3.6,11.6-4.8c2-0.6,4.2-1,6.3-1.3s4.4-0.3,6.5,0.1
			c2.2,0.4,4.4,1.1,6.3,2.5c0.5,0.4,0.9,0.7,1.3,1l0.3,0.3l0.2,0.1c0.1,0.1,0.1,0.1,0.1,0.2l0.1,0.1l0.5,0.7c0.4,0.4,0.7,0.9,1,1.4
			c0.3,0.5,0.6,1,0.9,1.5c2.1,4,2.5,8.5,2.4,12.8c0,2.2-0.3,4.3-0.7,6.4c-0.4,2.1-0.8,4.2-1.4,6.2c-2.4,8.1-6.3,15.5-11,22
			c-4.7,6.5-10.1,12.1-16.1,16.5c-5.9,4.4-11.9,7.8-17.8,10.3c-2.9,1.3-5.8,2.3-8.6,3.2c-2.7,0.9-5.4,1.6-8,2
			c-5.1,1-9.7,1.1-13.3,0.7c-3.7-0.5-6.4-1.6-8.2-2.7c-0.4-0.3-0.8-0.6-1.1-0.8c-0.3-0.2-0.5-0.4-0.7-0.7
			C-202.4,457.9-202.6,457.6-202.6,457.6L-202.6,457.6z"/>
		<g>
			<path class="st2" d="M-202.4,457.4c0.3,0.1,0.4,0.4,0.7,0.5l0.7,0.6l0,0l1.1,0.8l0,0c2.4,1.3,5,1.9,7.7,2.2
				c2.7,0.2,5.4,0.1,8.1-0.2c1.4-0.2,2.7-0.4,4-0.7l2.1-0.4c0.6-0.1,1.3-0.3,2-0.5c2.6-0.7,5.2-1.6,7.7-2.6c2.6-1.1,5-2.2,7.4-3.4
				c2.5-1.2,4.8-2.6,7.1-4c2.3-1.4,4.6-2.9,6.7-4.5s4.3-3.3,6.4-5.1c4.1-3.6,7.7-7.6,11-12c1.6-2.2,3.1-4.5,4.5-6.9
				c1.3-2.4,2.6-4.9,3.6-7.4c1-2.5,2-5.1,2.6-7.8l0.9-4l0.1-0.5l0.1-0.2l0.1-0.2l0.1-1.1c0.1-0.7,0.2-1.4,0.2-2c0-0.6,0.1-1.4,0.1-2
				c0-0.6-0.1-1.4,0-2.1c-0.1-1.4-0.2-2.7-0.4-4c-0.5-2.6-1.4-5.2-2.9-7.3l0,0.1c-0.3-0.5-0.6-0.8-0.8-0.9l0,0l-0.1-0.1l-0.5-0.5
				l0.1,0.1l-0.1-0.1l0,0l0,0l0,0l0,0l1.2-1.5l0,0l0,0l0,0l0,0l0,0l-1.2,1.5l-0.2-0.1l0,0l-0.1-0.1l-0.3-0.3l0.1,0.1l-0.6-0.5
				l-0.2-0.1c0,0,0.1,0.1,0,0c-0.1,0-0.2-0.1-0.4-0.3l0.1,0.1c-1-0.6-2.1-1.1-3.3-1.4c-0.6-0.1-1.2-0.2-1.8-0.3
				c-0.7-0.1-1.2-0.1-1.9-0.1c-1.2,0-2.5,0.1-3.7,0.3c-1.3,0.2-2.5,0.5-3.7,0.8c-2.4,0.6-4.9,1.5-7.3,2.6c-2.3,1-4.6,2.2-6.9,3.5
				c-2.2,1.3-4.4,2.6-6.6,4.1c-2.1,1.4-4.2,3-6.3,4.6c-4.1,3.1-8,6.6-11.8,10.2l-0.7,0.7l-0.4,0.4l-0.3,0.4l-1.4,1.4l-1.4,1.4
				l-0.7,0.6l-0.7,0.7l-2.6,2.9c-0.8,1-1.7,2-2.5,3c-3.3,4-6.3,8.2-9,12.7c-2.6,4.5-4.9,9.1-6.5,14.1c-0.7,2.5-1.3,5-1.5,7.6
				c-0.1,2.6,0.2,5.2,1.7,7.3l0,0L-202.4,457.4z M-202.5,457.6l-0.6-0.6l0,0c-0.5-0.5-0.8-1.1-1.1-1.7c-0.4-0.6-0.5-1.2-0.8-1.9
				c-0.4-1.3-0.5-2.7-0.5-4c-0.1-2.7,0.3-5.4,0.9-8c0.6-2.6,1.4-5.1,2.5-7.7c1-2.4,2.1-4.9,3.4-7.3c1.3-2.4,2.6-4.6,4.1-6.9
				c1.5-2.2,3-4.4,4.7-6.5c0.8-1,1.6-2.1,2.4-3.1l2.6-3l0.7-0.7l0.7-0.8l1.3-1.4l1.3-1.4l0.4-0.4l0.4-0.4l0.7-0.7
				c1.9-1.9,3.8-3.7,5.9-5.4s4.1-3.5,6.2-5c2.1-1.6,4.3-3.2,6.6-4.6c2.3-1.4,4.6-2.8,6.9-4.1c2.4-1.3,4.8-2.5,7.3-3.4
				c2.5-1,5.1-1.9,7.7-2.5c1.3-0.3,2.7-0.6,4-0.7s2.8-0.2,4.2-0.2c0.6,0,1.4,0.1,2.1,0.2c0.7,0.1,1.4,0.3,2.1,0.4
				c1.4,0.4,2.7,1,3.9,1.9l0.1,0.1l0,0c-0.1-0.1,0,0,0.2,0.1c0.2,0.1,0.4,0.3,0.5,0.5l-0.2-0.1l0.6,0.5l0.1,0.1l0,0l0.3,0.3
				l-0.1-0.1l0.2,0.1l-1.2,1.5l0,0l0,0l0,0l0,0l0,0l1.2-1.5l0,0l0,0l0,0l0,0l0.1,0.1l0.1,0.1l0,0l0.5,0.5l-0.1-0.1
				c0.5,0.5,0.8,1,1,1.4l0,0l0,0c1.5,2.4,2.4,5.3,2.7,8.1c0.2,1.4,0.3,2.8,0.2,4.3l0,2.1c0,0.7-0.1,1.4-0.1,2.1
				c-0.1,0.7-0.2,1.4-0.3,2l-0.1,1.1l-0.1,0.2c-0.1,0.2-0.1,0.2,0,0.3l-0.1,0.5l-0.9,4l-0.2,1c0,0.4-0.2,0.7-0.3,1
				c-0.2,0.7-0.4,1.3-0.6,2c-0.4,1.3-0.9,2.7-1.4,3.9c-1,2.6-2.2,5.1-3.5,7.6c-1.3,2.5-2.7,4.9-4.2,7.2c-3.1,4.7-6.6,9-10.6,13
				c-2,2-4.2,3.8-6.4,5.5c-2.3,1.7-4.5,3.3-7,4.7c-2.4,1.4-4.9,2.8-7.4,4c-2.5,1.2-5.1,2.3-7.8,3.3c-2.6,1-5.3,1.8-8.1,2.5
				c-0.7,0.1-1.3,0.3-2.1,0.4l-2.1,0.4c-1.4,0.2-2.8,0.4-4.2,0.5c-2.8,0.2-5.6,0.2-8.4-0.3c-2.8-0.5-5.5-1.3-7.9-3l0,0l0,0l-1-0.8
				l0,0l-0.6-0.7C-202.1,458-202.3,457.8-202.5,457.6z"/>
			<path class="st2" d="M-202.7,457.7l-0.5-0.6l0,0c-0.3-0.2-0.5-0.5-0.6-0.8l0,0c-0.4-0.6-0.8-1.2-1-1.8c-0.2-0.6-0.5-1.3-0.6-2
				c-0.3-1.3-0.4-2.8-0.4-4.2c0-2.8,0.4-5.6,1.1-8.3c0.6-2.7,1.4-5.4,2.5-7.9c1-2.6,2.2-5.1,3.5-7.6c1.3-2.5,2.7-4.9,4.2-7.2
				c1.5-2.3,3-4.6,4.7-6.8s3.4-4.4,5.2-6.5s3.7-4.1,5.7-6c2-1.9,4.1-3.7,6.3-5.4s4.4-3.3,6.6-4.9s4.6-3,7-4.4s4.8-2.6,7.3-3.8
				c2.5-1.1,5-2.3,7.6-3.2c2.6-0.9,5.2-1.7,8-2.1c2.7-0.3,5.5-0.5,8.3-0.1c1.4,0.2,2.8,0.6,4.1,1.1c0.7,0.3,1.3,0.6,1.9,1l0.4,0.3
				c0.2,0.1,0.3,0.2,0.4,0.4c0.3,0.2,0.5,0.4,0.8,0.6l0.1,0.1l0.1,0.1l0.3,0.3l-0.1-0.1l0.2,0.1l0.1,0.1c0,0,0,0,0.1,0.1
				c0,0,0.1,0.1,0.1,0.2c0,0.1,0.1,0.2,0.1,0.2c0,0.2,0,0.2,0,0.2l-0.3-0.5l0.1,0.1l0,0l0.1,0.1c0.5,0.7,1.1,1.3,1.6,2l0,0.1l0,0.1
				l0.9,1.5l0,0l0,0.1c1.5,2.6,2.2,5.6,2.6,8.5c0.1,1.4,0.3,3,0.3,4.4c0.1,1.4,0,3-0.2,4.4c-0.2,1.5-0.4,2.9-0.6,4.3
				c-0.3,1.4-0.6,2.9-1,4.3c-0.2,0.7-0.4,1.3-0.6,2.1c-0.3,0.7-0.4,1.4-0.7,2.1c-0.5,1.4-1,2.8-1.5,4.1c-2.2,5.4-5.2,10.4-8.5,15.2
				c-1.7,2.3-3.5,4.6-5.5,6.7c-2,2.1-4,4.2-6.3,6.1c-1.1,0.9-2.2,1.8-3.4,2.8c-0.6,0.5-1.2,0.8-1.7,1.3c-0.6,0.4-1.2,0.8-1.8,1.2
				c-2.4,1.6-4.9,3.1-7.4,4.5c-2.5,1.4-5.2,2.7-7.8,3.7c-2.7,1.1-5.4,2.1-8.2,2.9c-2.7,0.8-5.6,1.6-8.4,1.9
				c-1.4,0.2-2.9,0.4-4.3,0.6c-1.4,0.1-2.9,0.2-4.3,0.2c-2.9,0-5.8-0.2-8.7-1C-198.1,461.4-200.9,460.1-202.7,457.7z M-202.4,457.5
				l0.7,0.7c0.1,0.2,0.3,0.2,0.4,0.3l0.4,0.3c0.6,0.4,1.2,0.8,1.8,1c1.3,0.6,2.6,1,4,1.3c2.7,0.6,5.5,0.6,8.4,0.4
				c1.4-0.1,2.8-0.3,4.2-0.4c1.4-0.2,2.7-0.5,4.1-0.8c2.8-0.5,5.4-1.4,8.1-2.3c2.7-0.9,5.3-2,7.8-3.1c2.6-1.1,5-2.5,7.5-3.9
				c2.4-1.4,4.8-2.9,7.1-4.6c0.6-0.4,1.1-0.8,1.7-1.2c0.6-0.5,1.1-0.8,1.7-1.3c1.1-0.8,2.2-1.7,3.2-2.6c2.1-1.8,4.1-3.8,6-5.8
				c1.9-2,3.6-4.2,5.3-6.5c3.4-4.4,6.2-9.3,8.5-14.4c0.6-1.3,1.1-2.5,1.6-3.9c0.3-0.7,0.4-1.3,0.7-1.9l0.6-2c0.4-1.3,0.8-2.7,1.1-4
				c0.2-0.7,0.3-1.3,0.4-2.1c0.1-0.7,0.3-1.4,0.4-2.1c0.2-1.4,0.4-2.7,0.4-4.1c0-1.4,0.1-2.7-0.1-4.1c-0.2-2.7-0.8-5.4-2-7.9l0,0.1
				l-0.9-1.5l0.1,0.1c-0.5-0.7-1-1.4-1.5-2l0.1,0.2l-0.1-0.1l-0.3-0.3l0-0.2c0,0,0,0,0,0.1c0,0,0,0.2,0.1,0.2c0,0.1,0.1,0.1,0.1,0.2
				c0,0.1,0,0,0,0l0,0l-0.2-0.1l-0.1-0.1l0,0l-0.3-0.3l0.2,0.1c-0.3-0.2-0.6-0.5-0.9-0.7c-0.1-0.1-0.3-0.2-0.4-0.3l-0.4-0.3
				c-0.5-0.4-1.1-0.7-1.7-1c-1.2-0.5-2.4-1-3.8-1.3c-2.6-0.5-5.3-0.4-8,0c-2.6,0.3-5.3,1.1-7.8,2c-2.6,0.9-5.1,2-7.4,3.2
				c-2.4,1.2-4.8,2.6-7,4.1c-2.3,1.5-4.5,3-6.7,4.7c-2.2,1.7-4.3,3.4-6.3,5.2c-2,1.8-4,3.7-5.8,5.6c-1.9,1.9-3.7,3.9-5.5,5.9
				c-1.7,2-3.5,4.1-5.1,6.3c-1.6,2.2-3.2,4.3-4.7,6.6s-3,4.6-4.3,6.9c-1.3,2.4-2.5,4.8-3.6,7.2c-1.1,2.4-2,5-2.7,7.6
				s-1.4,5.2-1.5,7.9c-0.1,2.7,0,5.4,1.2,7.8l0,0c0.1,0.3,0.3,0.5,0.5,0.8l0,0L-202.4,457.5z"/>
		</g>
	</g>
</g>
<g>
	<path class="st3" d="M-146.4,408.6L-146.4,408.6L-146.4,408.6L-146.4,408.6z"/>
	<path class="st4" d="M-190.1,390.2c6.3-8.8,23.1-14.8,35.5-9c0.5,0.2,0.9,0.4,1.4,0.7c0.4,0.1,0.8,0.3,1.2,0.5
		c0.1,0.5,0.2,1.1,0.5,1.5c3.5,3.3,4.3,7.3,2.9,11.7c-0.2,0.8,0.4,0.9,1.3,1.4c3.1-1.7,0.9,0.6,0.4,1.2l-1.3,0.2
		c-2,0.6-3.9,0.5-6-0.3c-4.6-1.8-9.8,1.1-10.2,5.9c-0.3,3.8-1.9,3.3-4.6,3.1c-4.6-0.4-7.8-3.9-11.9-5.3c1.4-6.8,1.5-6.7-5-9.5
		C-187.3,391.5-189.1,391.7-190.1,390.2z"/>
	<path class="st0" d="M-190.1,390.2c1,1.5,2.8,1.3,4.2,1.9c6.5,2.8,6.5,2.8,5,9.5c-0.2,0.7,0.3,1.6,0.1,2.3
		c-1.2,0.2,0.4,3.2,1.2,1.7c0.5,1.2,0.2,3.3-0.2,3.8c-2.1,2.9,0.6,4.2,1.5,6.2c-5.1,0.4-10,0.7-15.2-0.7c-3.3-0.9-3.4-3.6-5.1-5.4
		C-198.1,402.2-195.5,395.6-190.1,390.2z"/>
	<path class="st0" d="M-137,414.1c-0.2,0.1-0.5,0.1-0.8,0.2c-0.9-1.4-1.1,1.5-2.5-0.6c0.4,3.8-4.6,0.7-5.3,3.7c-1.3-2.5-2.8-3-3.1-5
		c0,0.1,2.3-3.7,2.3-3.9c-1.3,0-1.5,1.4-2.5,1.8c-1.6-4.1,2.6-7.9,0.7-12.1l-0.1,0.1c0.9-0.3,0.5-0.5,0-0.8
		c-0.9-0.5-0.7-1.2-0.4-2.1c1.3-4.5,0.5-8.4-2.9-11.7c-0.4-0.3-0.3-0.9-0.5-1.5c9.8,4.1,15.8,11.5,18.1,21.9
		C-136.8,406.9-135.8,410.8-137,414.1z"/>
	<path class="st3" d="M-134,404.1c-2.1,2.1-3.9,5.1-5.2,7.9c-0.5-0.8-1-1.7-1.7-2.7c0.4,3.8-3.5,2.7-4.2,5.7
		c-1.3-2.5-0.9-4.6-1.4-6.6c-1.2,0-3.5-0.3-4.5,0c-0.1,0.7-9.9,4.4-11.1,4.5c-7,9.6-15.7,0.5-16.5,0.1c-5.1,0.4-9.9,3.3-15,1.8
		c-3.3-0.9-3.4-3.6-5.1-5.4c-0.4,9.2,1.8,17.4,8.6,24.1c0.3,0.4,0.6,0.7,0.9,1c0.3,0.1,0.8,0.3,1.1,0.4c5.4-0.5,10.8,4,16.2,3.9
		c10.1-0.1,20.4-2.1,27.3-10.5c2.6-3.1,4.5-7.3,6.1-11.2c0.1-0.2,0.1-0.3,0.2-0.6c1.1,1.8,2,3.8,3.6,5.2
		C-132.4,416.1-132.1,410.2-134,404.1z"/>
	<path class="st5" d="M-137,414.1c-0.2,0.1-0.5,0.1-0.8,0.2c0.2,1.1-0.2,2-0.6,3c-1.6,4-5,6.3-7.6,9.4c-7,8.4-16.1,10.3-26.2,10.4
		c-5.6,0.1-11.3-3.4-16.9-2.4c0.4,1,1.7,2.2,2.6,2.8c5.3,3.9,11.2,6.3,17.7,7.1c4.4,0.8,8.7,0.5,12.8-1.2c0.8-0.4,1.5-0.7,2.3-1.1
		c0.5-0.9,1.4-0.9,2.2-1c8.4-4,14.1-10.5,16.9-19.4C-137,419.8-134.7,416.2-137,414.1z"/>
	<path class="st5" d="M-153.6,442.4c0.5-0.9,1.4-0.9,2.2-1C-151.8,442.5-152.8,442.3-153.6,442.4z"/>
	<path class="st0" d="M-153.3,381.9c-0.5-0.2-0.9-0.4-1.4-0.7C-154.2,381.4-153.7,381.6-153.3,381.9z"/>
	<path class="st5" d="M-190,433.8c0.3,0.4,0.6,0.7,0.9,1C-189.4,434.4-189.7,434.1-190,433.8z"/>
	<path class="st6" d="M-148.2,398.3c1.9,4.2-2.3,8-0.7,12.1c-0.2,0.8-0.3,1.6-0.5,2.4c-0.9,2-1.7,4-2.6,6.1c-7,9.6-17.7,12.9-27.3,8
		c3.3-1,6.6-1.3,8.6-4c-2-1.7-6.6-0.8-5.3-5.7c0.1-0.2-1.5-0.9-2.2-1.4c-0.8-1.9-3.6-3.4-1.5-6.2c0.4-0.5-0.9-2.2-1.5-3.4
		c-0.1-0.7-0.1-1.4-0.1-2.2c0.2-0.7,0.3-1.5,0.5-2.2c4.1,1.4,7.2,4.9,11.9,5.3c2.7,0.2,4.3,0.7,4.6-3.1c0.3-4.8,5.6-7.7,10.2-5.9
		C-152.1,398.8-150.2,398.9-148.2,398.3z"/>
	<path class="st6" d="M-148.2,398.3c0-0.2,0-0.6,0-0.8"/>
</g>
<ellipse transform="matrix(-9.576658e-002 -0.9954 0.9954 -9.576658e-002 -677.1252 304.2753)" class="st7" cx="-200.4" cy="459.7" rx="7.6" ry="6.6"/>
</svg>
