<?xml version="1.0" encoding="utf-8"?>
<!-- Generator: Adobe Illustrator 19.0.0, SVG Export Plug-In . SVG Version: 6.00 Build 0)  -->
<svg version="1.1" id="Capa_1" xmlns="http://www.w3.org/2000/svg" xmlns:xlink="http://www.w3.org/1999/xlink" x="0px" y="0px"
	 viewBox="0 0 595.3 116" style="enable-background:new 0 0 595.3 116;" xml:space="preserve">
<style type="text/css">
	.st0{fill:url(#SVGID_1_);}
	.st1{fill:#FFFFFF;}
</style>
<linearGradient id="SVGID_1_" gradientUnits="userSpaceOnUse" x1="6" y1="58" x2="587" y2="58">
	<stop  offset="0" style="stop-color:#053075"/>
	<stop  offset="0.6355" style="stop-color:#0835B2"/>
</linearGradient>
<path class="st0" d="M77,4.7c0,0,26,36.4,76,53.3s127-3,127-3s126.3-33.8,192-29.2c66,4.6,115,51,115,51s-71-13.9-84-8
	s7,42.4,7,42.4s-61-36.4-107-40.4c-39.6-3.4-87.8,8.3-135,19.9c-43.1,10.6-86.3,14.5-124,13.3C65,101.4,6,43.8,6,43.8s65,16.6,71,0
	S77,4.7,77,4.7z"/>
<polygon class="st1" points="127.2,63.7 121.2,73.6 128,83.4 114.5,81.7 105.3,89.8 102.9,78.9 90.5,74.2 102.5,69.1 104,58 
	113.8,65.8 "/>
<polygon class="st1" points="187.3,76.1 181.8,83.4 185.8,91.1 175.7,89.2 167.9,94.9 167.3,86.5 158.3,82.3 168,79 170.4,70.7 
	177,77.1 "/>
<polygon class="st1" points="238.3,76.4 233.3,82.8 237,89.7 228,88 221,93.1 220.5,85.6 212.5,81.9 221.1,79 223.2,71.6 
	229.1,77.3 "/>
<polygon class="st1" points="290.3,68.2 285.4,73.7 289.2,79.5 280.2,78 273.3,82.3 272.6,75.9 264.6,72.7 273.1,70.3 275.1,64 
	281.1,68.8 "/>
<polygon class="st1" points="346.6,59.1 338.3,63.6 338.7,70.7 330.2,66.8 320.4,69.5 323.5,62.7 317,57.2 327.4,56.9 333.2,50.8 
	336.6,57.5 "/>
<polygon class="st1" points="404.4,51.6 393.6,56.2 391.3,64.5 383.6,59.2 371.9,61.6 377.9,53.8 373,47 384.4,47.4 393.1,40.8 
	394.2,48.8 "/>
<polygon class="st1" points="475.5,56.7 460.9,60.2 457.3,70.1 447.4,61.9 431.8,62.5 440.3,54 434.4,44.3 449.5,47.2 461.4,40.7 
	462.2,51.1 "/>
</svg>
