<?xml version="1.0" encoding="utf-8"?>
<!-- Generator: Adobe Illustrator 19.0.0, SVG Export Plug-In . SVG Version: 6.00 Build 0)  -->
<svg version="1.1" id="Capa_1" xmlns="http://www.w3.org/2000/svg" xmlns:xlink="http://www.w3.org/1999/xlink" x="0px" y="0px"
	 viewBox="-232 324.7 146.7 145.3" style="enable-background:new -232 324.7 146.7 145.3;" xml:space="preserve">
<style type="text/css">
	.st0{fill:#2B81B9;}
	.st1{fill:#FCFDFE;}
	.st2{fill:#3598D7;}
	.st3{fill:#3698D7;}
	.st4{fill:#3698D8;}
	.st5{fill:#3799D8;}
</style>
<path class="st0" d="M-220.9,395.6c0.1-35.5,29.6-64.7,65-64.6c35.5,0.1,64.7,29.6,64.6,65c-0.1,35.4-29.6,64.7-65,64.6
	C-191.7,460.5-221,431-220.9,395.6z M-213.1,395.7c-0.1,31.5,25.4,57.1,56.9,57.2c31.5,0.1,57.1-25.5,57.1-56.9
	c0.1-31.5-25.5-57.1-57-57.1C-187.3,338.8-213,364.5-213.1,395.7z"/>
<path class="st1" d="M-213.1,395.7c0.1-31.2,25.9-56.9,57.1-56.9c31.5,0,57,25.6,57,57.1c-0.1,31.5-25.7,57-57.1,56.9
	C-187.7,452.8-213.2,427.2-213.1,395.7z M-144.6,367.1c-3.5,10.4-6.9,20.3-10.2,30.1c-0.3,0.8-0.2,1.4,0,2.2
	c2.1,5.9,4.2,11.7,6.3,17.6c0.3,0.9,0.7,1.4,1.8,1.5c1.2,0,2.5,0.3,3.7,0.5c0.9,0.1,1.4,0.7,1.5,1.7c0,1-0.4,1.6-1.4,2
	c-0.7,0.3-1.3,0.1-2,0.1c-4.5-0.2-9.1-0.6-13.7-0.3c-3.2,0.1-6.4,0.3-9.5,0.4c-1.4,0.1-2.3-0.6-2.5-1.9c-0.2-1.5,0.9-1.9,2.1-2
	c0.9-0.1,1.9-0.4,2.8-0.3c1.9,0.1,1.8-0.7,1.3-2.1c-3.9-12.4-7.7-24.9-11.5-37.3c-1.2-3.8-2.3-7.6-3.6-11.7c-0.3,0.5-0.4,0.8-0.5,1
	c-2.4,8.1-4.9,16.2-7.3,24.3c-1.9,6.4-0.8,12.3,2.6,18c1.3,2.3,2.9,4.4,4,6.8c1,2.3,1.5,4.6,0.8,7.1c-1.1,3.9-3.7,6.1-7.8,6.4
	c-0.1,0.6,0.4,0.7,0.6,0.9c12.1,10,25.9,13.7,41.3,10.3c11.5-2.5,20.8-8.7,27.9-18.3c0.3-0.4,1-0.8,0.6-1.4
	c-0.3-0.5-0.9-0.2-1.4-0.2c-3.3,0.1-6.6,0.2-9.9,0.3c-1.1,0-2.1,0.2-3.2,0.2c-1.3,0-2.2-0.6-2.3-2c-0.2-1.4,0.7-1.8,1.9-2
	c1-0.1,2-0.4,3-0.3c1.8,0.1,1.7-0.6,1.2-2c-3.9-11.4-7.7-22.8-11.5-34.2C-141.1,377.3-142.8,372.5-144.6,367.1z M-157.1,391.5
	c4.8-13.6,9.4-26.8,14-40c0.4-1.1-0.2-1.4-1.1-1.7c-8.9-2.2-17.6-2-26.3,0.8c-1,0.3-1.2,0.7-0.8,1.7c3.1,8.5,6.1,17,9.2,25.5
	C-160.4,382.3-158.8,386.7-157.1,391.5z M-135.4,353.3c7.5,20.7,14.9,41.1,22.4,61.6C-102.1,392.3-112.6,364.3-135.4,353.3z
	 M-180.3,355.7c-0.2-0.1-0.3-0.2-0.5-0.3c-12.6,8.1-20.1,19.5-22.4,34.3c-1.3,8.5,1.6,23.9,5.3,27.4c-0.6-2.8-0.4-5.5-0.1-8.2
	c0.3-2.7,1-5.4,1.9-8c5.1-13.8,9.7-27.9,14.6-41.8C-181.1,358-180.7,356.8-180.3,355.7z"/>
<path class="st2" d="M-144.6,367.1c1.8,5.4,3.5,10.3,5.1,15.2c3.8,11.4,7.6,22.8,11.5,34.2c0.5,1.4,0.5,2.1-1.2,2
	c-1-0.1-2,0.2-3,0.3c-1.2,0.1-2.1,0.6-1.9,2c0.1,1.4,1,2,2.3,2c1.1,0,2.1-0.2,3.2-0.2c3.3-0.1,6.6-0.2,9.9-0.3
	c0.5,0,1.1-0.3,1.4,0.2c0.3,0.6-0.3,1-0.6,1.4c-7,9.5-16.3,15.7-27.9,18.3c-15.4,3.4-29.2-0.3-41.3-10.3c-0.3-0.2-0.7-0.3-0.6-0.9
	c4-0.3,6.6-2.5,7.8-6.4c0.7-2.5,0.2-4.8-0.8-7.1c-1.1-2.4-2.6-4.5-4-6.8c-3.3-5.6-4.5-11.6-2.6-18c2.4-8.1,4.9-16.2,7.3-24.3
	c0.1-0.2,0.2-0.4,0.5-1c1.3,4.1,2.4,7.9,3.6,11.7c3.8,12.4,7.7,24.9,11.5,37.3c0.4,1.4,0.6,2.2-1.3,2.1c-0.9-0.1-1.9,0.2-2.8,0.3
	c-1.2,0.2-2.3,0.5-2.1,2c0.2,1.4,1.1,2,2.5,1.9c3.2-0.1,6.4-0.3,9.5-0.4c4.6-0.2,9.1,0.2,13.7,0.3c0.7,0,1.4,0.2,2-0.1
	c0.9-0.3,1.4-1,1.4-2c0-1-0.6-1.5-1.5-1.7c-1.2-0.2-2.5-0.5-3.7-0.5c-1.1,0-1.5-0.5-1.8-1.5c-2.1-5.9-4.1-11.8-6.3-17.6
	c-0.3-0.7-0.3-1.4,0-2.2C-151.4,387.3-148.1,377.5-144.6,367.1z"/>
<path class="st3" d="M-157.1,391.5c-1.7-4.8-3.4-9.2-5-13.6c-3.1-8.5-6.1-17-9.2-25.5c-0.4-1-0.2-1.4,0.8-1.7
	c8.7-2.8,17.5-3.1,26.3-0.8c0.9,0.2,1.4,0.5,1.1,1.7C-147.7,364.7-152.3,377.9-157.1,391.5z"/>
<path class="st4" d="M-135.4,353.3c22.8,11,33.3,39,22.4,61.6C-120.5,394.4-127.8,374.1-135.4,353.3z"/>
<path class="st5" d="M-180.3,355.7c-0.4,1.2-0.8,2.3-1.2,3.5c-4.9,13.9-9.5,28-14.6,41.8c-1,2.6-1.6,5.3-1.9,8
	c-0.3,2.7-0.5,5.3,0.1,8.2c-3.7-3.5-6.6-18.9-5.3-27.4c2.3-14.9,9.9-26.2,22.4-34.3C-180.6,355.5-180.4,355.6-180.3,355.7z"/>
</svg>
